<?xml version="1.0" encoding="UTF-8"?>
<svg xmlns="http://www.w3.org/2000/svg" id="Icons" viewBox="0 0 60 60" width="512" height="512"><path d="M14,13h4a2,2,0,0,0,2-2V7a2,2,0,0,0-2-2H14a2,2,0,0,0-2,2v4A2,2,0,0,0,14,13Zm0-6h4v4H14Z"/><path d="M23,8h2a1,1,0,0,0,0-2H23a1,1,0,0,0,0,2Z"/><path d="M29,8h7a1,1,0,0,0,0-2H29a1,1,0,0,0,0,2Z"/><path d="M23,12h9a1,1,0,0,0,0-2H23a1,1,0,0,0,0,2Z"/><path d="M57,28.142V18a3,3,0,0,0-3-3H53v-.34a5.035,5.035,0,0,0-1.463-3.537l-9.66-9.66A5.035,5.035,0,0,0,38.34,0H13A6.006,6.006,0,0,0,7,6v9H6a3,3,0,0,0-3,3v3.142A4,4,0,0,0,0,25V54a6.006,6.006,0,0,0,6,6H54a6.006,6.006,0,0,0,6-6V32A4,4,0,0,0,57,28.142ZM54,17a1,1,0,0,1,1,1V28H53V17Zm-4.414-5H43a2,2,0,0,1-2-2V3.414ZM9,6a4,4,0,0,1,4-4H38.34a2.988,2.988,0,0,1,.66.081V10a4,4,0,0,0,4,4h7.919a2.988,2.988,0,0,1,.081.66V28H27.741a2,2,0,0,1-1.736-1.008l-2.273-3.975A4,4,0,0,0,20.259,21H9V6ZM5,18a1,1,0,0,1,1-1H7v4H5ZM58,54a4,4,0,0,1-4,4H6a4,4,0,0,1-4-4V25a2,2,0,0,1,2-2H20.259A2,2,0,0,1,22,24.008l2.273,3.975A4,4,0,0,0,27.741,30H56a2,2,0,0,1,2,2Z"/><path d="M7,46h5a1,1,0,0,0,0-2H7a1,1,0,0,0,0,2Z"/><path d="M29,44H16a1,1,0,0,0,0,2H29a1,1,0,0,0,0-2Z"/><path d="M7,50H22a1,1,0,0,0,0-2H7a1,1,0,0,0,0,2Z"/><path d="M29,52H7a1,1,0,0,0,0,2H29a1,1,0,0,0,0-2Z"/></svg>
