<?xml version="1.0" encoding="UTF-8"?>
<svg version="1.1" xmlns="http://www.w3.org/2000/svg" width="1721" height="1776">
<path d="M0 0 C20.16606299 19.43784405 31.62782876 43.51738003 32.3125 71.6484375 C31.76850253 102.56029355 17.34671776 125.78034281 -4.40673828 146.82226562 C-6.95784399 149.24593333 -9.59297293 151.55801011 -12.27734375 153.83203125 C-14.10430507 155.42699748 -15.80059287 157.10611592 -17.5 158.8359375 C-19.75797943 161.12919786 -22.05996504 163.30021778 -24.5 165.3984375 C-28.55934919 168.89705947 -32.46647149 172.54611667 -36.375 176.2109375 C-42.18764683 181.65792355 -48.05645392 187.03169721 -54 192.3359375 C-55.66731931 193.83521203 -57.33397566 195.33522411 -59 196.8359375 C-59.82242187 197.57585937 -60.64484375 198.31578125 -61.4921875 199.078125 C-63.18592894 200.60301994 -64.87861169 202.12909152 -66.5703125 203.65625 C-70.99894286 207.65149757 -75.44881779 211.61707361 -79.94921875 215.53125 C-82.26088797 217.56551891 -84.5353143 219.6381606 -86.8125 221.7109375 C-90.25378205 224.82122601 -93.76321298 227.80072062 -97.375 230.7109375 C-101.38824111 233.9554451 -105.22435954 237.3232043 -109 240.8359375 C-113.632511 245.1458752 -118.4212195 249.1865469 -123.3515625 253.15625 C-125.97275119 255.31351149 -128.49154281 257.5490475 -131 259.8359375 C-135.22364277 263.68104625 -139.5869793 267.30351921 -144.02734375 270.89453125 C-147.33750824 273.61312889 -150.5750821 276.40663846 -153.8125 279.2109375 C-159.00658397 283.70067866 -164.3222888 287.98718702 -169.74926758 292.19091797 C-173.93994355 295.45533241 -177.98913204 298.85369858 -182 302.3359375 C-187.09329957 306.75376887 -192.29125159 310.99026562 -197.6159668 315.12548828 C-202.07013641 318.58840314 -206.44858741 322.13518301 -210.8125 325.7109375 C-217.01709788 330.78448497 -223.33193416 335.69114067 -229.71850586 340.53295898 C-234.33388563 344.03891809 -238.87236197 347.62423671 -243.375 351.2734375 C-249.62207014 356.32116333 -256.04030573 361.10381168 -262.52636719 365.83911133 C-268.62390464 370.29767655 -274.63381675 374.86075024 -280.625 379.4609375 C-288.12454325 385.20413301 -295.70686604 390.78762598 -303.46484375 396.17626953 C-306.47167313 398.26805913 -309.47143539 400.36937849 -312.46508789 402.47998047 C-324.48423123 410.9454144 -336.63197983 419.19829258 -348.875 427.3359375 C-349.79098969 427.94567413 -350.70697937 428.55541077 -351.65072632 429.18362427 C-364.99866475 438.06650705 -378.38795247 446.86152199 -392 455.3359375 C-393.67456861 456.3865762 -395.34904579 457.43736065 -397.0234375 458.48828125 C-428.55313219 478.20819289 -460.80526721 496.57505025 -494 513.3359375 C-494.96518555 513.82658691 -495.93037109 514.31723633 -496.92480469 514.82275391 C-537.7217285 535.44063276 -581.53577513 550.91620289 -626.5 559.1484375 C-627.55977051 559.34348877 -628.61954102 559.53854004 -629.71142578 559.73950195 C-646.68483722 562.67995157 -663.60864074 563.72113014 -680.8125 563.6484375 C-681.74264923 563.64628235 -682.67279846 563.6441272 -683.63113403 563.64190674 C-732.95051649 563.46015094 -780.94461053 552.53733967 -828.88671875 541.9375 C-893.19275079 527.75229108 -958.13843775 521.17806339 -1023.875 518.1484375 C-1024.66487305 518.11150787 -1025.45474609 518.07457825 -1026.26855469 518.03652954 C-1057.67790147 516.60495889 -1089.11888278 516.1786051 -1120.55669594 516.23454356 C-1124.82193441 516.24098599 -1129.0871744 516.24139678 -1133.35241699 516.24256897 C-1141.35510035 516.24562291 -1149.35776931 516.25375219 -1157.36044645 516.26391846 C-1166.50267331 516.27526919 -1175.64490102 516.28063676 -1184.78713322 516.28561389 C-1203.5247635 516.2959431 -1222.26238058 516.31342157 -1241 516.3359375 C-1241.19906952 517.02010742 -1241.39813904 517.70427734 -1241.60324097 518.40917969 C-1241.86807281 519.30797852 -1242.13290466 520.20677734 -1242.40576172 521.1328125 C-1242.66670624 522.02323242 -1242.92765076 522.91365234 -1243.19650269 523.83105469 C-1247.77112779 538.09233421 -1260.19419392 550.95068161 -1273.13671875 558.05859375 C-1285.91023411 564.21104434 -1297.39760136 565.80331695 -1311.390625 565.76953125 C-1313.06533009 565.77410499 -1314.74003331 565.77941405 -1316.41473389 565.78541565 C-1319.91117005 565.7943046 -1323.40737732 565.79197368 -1326.90380859 565.78198242 C-1331.3426081 565.77052261 -1335.78060845 565.79067972 -1340.21930313 565.81989956 C-1343.67530177 565.83841956 -1347.13111466 565.8379376 -1350.58715057 565.83226204 C-1352.22150541 565.83211062 -1353.85587432 565.83800361 -1355.49018097 565.85055351 C-1376.78135934 565.99100816 -1393.33669057 560.11855479 -1409.12109375 545.3515625 C-1423.17355037 530.77864452 -1427.6454258 511.84407583 -1427.50120544 492.18075562 C-1427.50511092 490.72911399 -1427.51076124 489.27747622 -1427.51797634 487.82584727 C-1427.53257002 483.88693306 -1427.5226472 479.9484252 -1427.50823963 476.00952482 C-1427.49704107 471.74226756 -1427.50910145 467.47506324 -1427.51808167 463.20780945 C-1427.53195545 454.86859658 -1427.52450185 446.52953599 -1427.50940608 438.19033049 C-1427.4924761 428.46474226 -1427.49576497 418.73919122 -1427.49950016 409.01359279 C-1427.50536785 391.65388801 -1427.49124929 374.29425594 -1427.46655273 356.93457031 C-1427.44262779 340.11520666 -1427.43555278 323.29594011 -1427.44604492 306.4765625 C-1427.45747016 288.12869933 -1427.45936493 269.78088097 -1427.44494683 251.43301833 C-1427.4434211 249.47437454 -1427.44190074 247.51573074 -1427.44038582 245.55708694 C-1427.439628 244.59357401 -1427.43887019 243.63006108 -1427.43808941 242.63735079 C-1427.43335958 235.86852139 -1427.43518872 229.09971211 -1427.43945122 222.33088303 C-1427.44439241 214.07626751 -1427.43832876 205.82174354 -1427.41855692 197.56714891 C-1427.40872773 193.36080594 -1427.40353223 189.15460197 -1427.41144943 184.94825172 C-1427.41856385 181.08930375 -1427.41156887 177.23063484 -1427.3938458 173.37172337 C-1427.38795663 171.33290199 -1427.3965673 169.29405413 -1427.40589231 167.25524557 C-1427.32779017 155.77415662 -1425.84573581 144.39032304 -1420.375 134.1484375 C-1420.02727539 133.48191162 -1419.67955078 132.81538574 -1419.32128906 132.12866211 C-1410.65711481 116.08525469 -1396.96639025 105.14995986 -1379.61579895 99.56904602 C-1370.77198615 97.07431465 -1362.26647161 96.87934487 -1353.16796875 96.90234375 C-1351.56195356 96.89776796 -1349.95594031 96.89245831 -1348.34992981 96.88645935 C-1345.00070186 96.87758111 -1341.65171301 96.87988942 -1338.30249023 96.88989258 C-1334.05315589 96.90135999 -1329.80465541 96.88117817 -1325.55543041 96.85197544 C-1322.24269034 96.83344749 -1318.93014388 96.83393878 -1315.61736488 96.83961296 C-1314.05278672 96.83976424 -1312.48819374 96.83388372 -1310.923666 96.82132149 C-1290.6814451 96.68166623 -1272.98419892 102.04920129 -1258 116.3359375 C-1253.12788018 121.52313131 -1249.24534585 126.77568682 -1245.86450195 133.03369141 C-1245.32718948 134.02607819 -1244.78987701 135.01846497 -1244.23628235 136.04092407 C-1243.62432259 137.17695572 -1243.62432259 137.17695572 -1243 138.3359375 C-1141.27399874 114.98342094 -1141.27399874 114.98342094 -1044.84594727 75.77246094 C-957.53110989 31.83254927 -895.61914987 27.09390501 -803.68616867 55.05503082 C-798.29318057 56.69417998 -792.89861566 58.32812247 -787.50415039 59.96240234 C-779.96311121 62.24738674 -772.42246144 64.53364585 -764.88242054 66.8219223 C-749.98038972 71.34433988 -735.07243726 75.84689251 -720.16122437 80.33892822 C-716.45987369 81.454196 -712.75881904 82.57044066 -709.05786133 83.68701172 C-697.43528859 87.19318304 -685.81122002 90.6942756 -674.18431091 94.18603516 C-669.11743173 95.70778192 -664.05109162 97.23131994 -658.98487186 98.75526047 C-655.54577146 99.78961088 -652.10638593 100.82298842 -648.66622925 101.8538208 C-624.48778105 109.09973473 -624.48778105 109.09973473 -613.63671875 112.671875 C-612.94543381 112.897043 -612.25414886 113.122211 -611.54191589 113.35420227 C-587.46746004 121.42833919 -568.97429952 140.02707223 -557.25 162.0859375 C-552.16829145 172.63844134 -549.44707599 183.9289516 -547 195.3359375 C-477.99377124 183.27191149 -415.05847754 151.33302427 -352.87496948 120.36053467 C-350.70718164 119.28098459 -348.53884732 118.202531 -346.36990356 117.12530518 C-333.38981033 110.67352497 -320.57089062 103.99894631 -307.87426758 97.00585938 C-301.83128201 93.68143497 -295.70764059 90.52980013 -289.5625 87.3984375 C-280.21939352 82.59614863 -271.0274842 77.59502828 -261.91430664 72.37133789 C-254.02440067 67.86718027 -246.02847211 63.58573391 -238 59.3359375 C-227.15605494 53.59170907 -216.42300864 47.68778708 -205.76171875 41.609375 C-199.41015113 37.98965259 -193.01897167 34.4425662 -186.625 30.8984375 C-184.33978306 29.63031769 -182.05462667 28.36208876 -179.76953125 27.09375 C-178.64369629 26.46887695 -177.51786133 25.84400391 -176.35791016 25.20019531 C-162.73030758 17.63436913 -149.13225022 10.03579418 -135.6875 2.1484375 C-91.27622234 -23.84982022 -42.52133801 -38.54553651 0 0 Z M-91.25 40.2734375 C-92.28793701 40.84336426 -93.32587402 41.41329102 -94.39526367 42.00048828 C-103.31110193 46.91152066 -112.16929365 51.92512693 -121.01953125 56.953125 C-127.48966795 60.62294775 -133.99360591 64.23090025 -140.5 67.8359375 C-148.81380591 72.443497 -157.10846938 77.08160317 -165.375 81.7734375 C-176.99778863 88.36469392 -188.6965475 94.8153558 -200.40400696 101.25442505 C-204.70960222 103.62324553 -209.01028534 106.00079914 -213.30859375 108.3828125 C-228.65028856 116.88098839 -244.06124535 125.23542987 -259.53808594 133.48583984 C-262.96984965 135.31982471 -266.39592483 137.16400283 -269.8203125 139.01171875 C-315.38011683 163.57671647 -361.48366576 187.77371875 -409 208.3359375 C-409.96084503 208.75271759 -409.96084503 208.75271759 -410.94110107 209.17791748 C-449.37164437 225.82722085 -488.99041643 242.2841345 -530.8046875 247.65234375 C-532.52707125 247.88420937 -534.24940189 248.11646978 -535.97167969 248.34912109 C-539.34620598 248.80326488 -542.71985798 249.19015743 -546.10644531 249.54150391 C-554.62422224 250.47103548 -554.62422224 250.47103548 -561.75341797 254.81445312 C-563.76621564 257.5735378 -565.38503939 260.33180586 -567 263.3359375 C-582.52668039 284.67969313 -605.33736497 296.83898789 -631 301.3359375 C-636.63140044 302.17145685 -642.12267253 302.54699942 -647.8125 302.5859375 C-648.87887695 302.616875 -648.87887695 302.616875 -649.96679688 302.6484375 C-668.90398693 302.77693412 -687.87680569 297.00992522 -706.20800781 292.7845459 C-714.1310595 290.95936563 -722.0614258 289.16633172 -729.9921875 287.375 C-730.77585442 287.19792511 -731.55952133 287.02085022 -732.36693573 286.83840942 C-797.34711626 271.63438656 -797.34711626 271.63438656 -863.66040039 271.79931641 C-871.98008327 272.76864667 -879.13964278 271.63662902 -886.14453125 266.8828125 C-891.45775342 262.45326307 -894.81946194 257.18305822 -896 250.3359375 C-896.83914729 241.04428837 -894.88153219 233.68785274 -889 226.3359375 C-880.97932463 218.40538207 -868.48403641 217.87579467 -857.8125 217.1484375 C-856.71881104 217.06948242 -855.62512207 216.99052734 -854.49829102 216.90917969 C-797.66621582 213.04595321 -740.6147511 229.37902636 -685.70922852 242.04492188 C-684.53617661 242.31534302 -683.36312469 242.58576416 -682.15452576 242.86437988 C-679.96859492 243.36895463 -677.78298999 243.87494446 -675.59779358 244.38269043 C-656.41094246 248.81750855 -639.80201326 251.46763865 -621.75 241.6484375 C-612.12106152 235.48158926 -605.87134116 226.24882754 -602.6875 215.3359375 C-600.47789599 204.73408748 -602.52209209 193.87083732 -607.65234375 184.37109375 C-614.50738743 174.01898432 -623.59752975 166.88827303 -635.42578125 163.25390625 C-636.29745438 162.97451706 -637.1691275 162.69512787 -638.06721497 162.40727234 C-641.37147573 161.36075865 -644.68439886 160.34596466 -648 159.3359375 C-648.69214348 159.12467476 -649.38428696 158.91341202 -650.09740448 158.69574738 C-662.45456683 154.92617235 -674.83282816 151.22765382 -687.21339035 147.53581619 C-695.31779161 145.11772344 -703.41967531 142.69119506 -711.52200508 140.26617241 C-714.57554437 139.35233481 -717.62919427 138.43886743 -720.68284607 137.52540588 C-736.63152958 132.75314903 -752.56670155 127.93741503 -768.49465942 123.09649658 C-791.07891935 116.23297734 -813.67140133 109.39631316 -836.2805481 102.61520386 C-839.21951666 101.73351977 -842.15770256 100.84930171 -845.09518433 99.962677 C-848.52203265 98.92847153 -851.9504698 97.89970817 -855.38014793 96.87492752 C-857.21556507 96.32513724 -859.04938892 95.77003638 -860.88313293 95.21469116 C-916.83946942 78.55397602 -963.77952343 97.03722009 -1013.5 122.0859375 C-1081.55657077 156.37146704 -1152.26640238 174.19614796 -1226.26123047 190.86157227 C-1226.99417831 191.02726715 -1227.72712616 191.19296204 -1228.48228455 191.36367798 C-1230.39568575 191.79528408 -1232.30998556 192.22290131 -1234.22436523 192.65014648 C-1236.93558877 193.21222417 -1236.93558877 193.21222417 -1239 194.3359375 C-1239 282.4459375 -1239 370.5559375 -1239 461.3359375 C-1199.07 461.3359375 -1159.14 461.3359375 -1118 461.3359375 C-1013.34795262 462.39839483 -910.65227287 467.95781154 -808.21875 490.3359375 C-786.27207234 495.12517184 -764.3701486 499.88350948 -742.1875 503.4609375 C-740.90924347 503.66858734 -740.90924347 503.66858734 -739.60516357 503.88043213 C-720.2798072 506.98964539 -701.33607643 508.72553343 -681.75 508.6484375 C-680.76010071 508.64628235 -679.77020142 508.6441272 -678.75030518 508.64190674 C-664.2975896 508.59146147 -650.20979791 508.19030739 -636 505.3359375 C-634.98550781 505.14257812 -633.97101562 504.94921875 -632.92578125 504.75 C-597.79234451 497.94997999 -564.32120604 485.5181324 -532 470.3359375 C-531.06720215 469.9023291 -530.1344043 469.4687207 -529.17333984 469.02197266 C-503.68389285 457.14977415 -479.15392878 443.71491217 -455 429.3359375 C-454.14535156 428.82998047 -453.29070313 428.32402344 -452.41015625 427.80273438 C-408.94748037 402.07093173 -366.79791096 374.10284348 -326 344.3359375 C-325.24396484 343.78470215 -324.48792969 343.2334668 -323.70898438 342.66552734 C-311.85615642 334.01056641 -300.15034346 325.17133685 -288.49853516 316.24804688 C-286.13030641 314.43565997 -283.75914891 312.62719468 -281.38671875 310.8203125 C-269.0957498 301.45452569 -256.93724846 291.94948723 -244.96728516 282.17626953 C-240.62245981 278.63460087 -236.23543536 275.15436717 -231.8125 271.7109375 C-226.63823338 267.67796709 -221.60014947 263.51057504 -216.61254883 259.24951172 C-213.4522341 256.55254232 -210.25694273 253.91522602 -207 251.3359375 C-202.54585766 247.80583118 -198.20948394 244.15156623 -193.88232422 240.46826172 C-190.49631105 237.58990265 -187.07892756 234.75795165 -183.625 231.9609375 C-177.91984597 227.31566695 -172.37621385 222.49436954 -166.828125 217.6640625 C-163.21265548 214.51652028 -159.57905159 211.39074095 -155.9375 208.2734375 C-155.08067627 207.53927612 -155.08067627 207.53927612 -154.20654297 206.7902832 C-151.27430291 204.27888539 -148.33838524 201.77190168 -145.3984375 199.26953125 C-138.98431761 193.80278374 -132.66191255 188.26603762 -126.44921875 182.5703125 C-123.67770476 180.04191378 -120.85872997 177.5740975 -118.02734375 175.11328125 C-114.79736924 172.28160803 -111.61809344 169.39391243 -108.4296875 166.515625 C-106.3439382 164.64448656 -104.24182372 162.79668919 -102.125 160.9609375 C-98.15513797 157.50538958 -94.28657757 153.9420978 -90.41577148 150.37670898 C-87.70599721 147.88511437 -84.97765863 145.4245544 -82.1875 143.0234375 C-77.54934223 139.00499183 -73.10152562 134.78266137 -68.62524414 130.58618164 C-65.15803533 127.33908578 -61.67297399 124.12009242 -58.125 120.9609375 C-34.44340937 102.00502707 -34.44340937 102.00502707 -22.76171875 75.48828125 C-22.44101166 61.59660028 -27.35406016 51.30415583 -36.625 41.1484375 C-43.89228527 34.14719929 -53.09792999 30.30778725 -63.125 30.0234375 C-63.97320313 29.98605469 -64.82140625 29.94867187 -65.6953125 29.91015625 C-74.9468688 31.10214164 -83.21117826 35.7994364 -91.25 40.2734375 Z M-1370 156.3359375 C-1372.09420016 159.64076351 -1372.25199006 162.27765927 -1372.25726891 166.15250969 C-1372.2637178 167.34809498 -1372.27016669 168.54368026 -1372.276811 169.77549541 C-1372.2737138 171.09045564 -1372.2706166 172.40541588 -1372.26742554 173.76022339 C-1372.27116124 175.17008366 -1372.27576244 176.57994186 -1372.28115618 177.98979676 C-1372.29341145 181.86853761 -1372.29312276 185.74719238 -1372.29076743 189.62594819 C-1372.2903599 193.80736772 -1372.30139225 197.9887594 -1372.31088257 202.17016602 C-1372.32750718 210.36390959 -1372.33299277 218.55762439 -1372.33410732 226.75138341 C-1372.33505707 233.41028034 -1372.33916368 240.06916776 -1372.34550858 246.72806168 C-1372.36312467 265.59947464 -1372.37234683 284.47086485 -1372.37084763 303.3422861 C-1372.37076772 304.36000063 -1372.3706878 305.37771516 -1372.37060547 306.42626953 C-1372.37052371 307.44522391 -1372.37044195 308.4641783 -1372.37035771 309.51401009 C-1372.36954461 326.03171666 -1372.38868717 342.54933209 -1372.4168822 359.0670123 C-1372.44559176 376.01962045 -1372.45942357 392.97218412 -1372.45769465 409.9248172 C-1372.4570301 419.44552147 -1372.46255087 428.96613019 -1372.48405075 438.48681259 C-1372.50223716 446.59226771 -1372.50663082 454.69758396 -1372.4930319 462.80305062 C-1372.48648947 466.93951326 -1372.48643077 471.07570927 -1372.5037384 475.21214676 C-1372.51941817 478.99843012 -1372.51665824 482.78423432 -1372.49917014 486.57050563 C-1372.49462857 488.5899822 -1372.50979743 490.60947333 -1372.52564943 492.62889278 C-1372.50630579 501.29999563 -1372.50630579 501.29999563 -1368 508.3359375 C-1362.41477107 512.58201142 -1355.63778503 511.76775685 -1348.9375 511.734375 C-1347.04052368 511.73868027 -1347.04052368 511.73868027 -1345.10522461 511.74307251 C-1342.43539397 511.74511108 -1339.76639155 511.74111351 -1337.09667969 511.72705078 C-1333.68710765 511.70995917 -1330.27824421 511.71980836 -1326.86869812 511.73776817 C-1323.59994056 511.75125973 -1320.33126683 511.7417936 -1317.0625 511.734375 C-1315.23416626 511.74348404 -1315.23416626 511.74348404 -1313.36889648 511.7527771 C-1305.24785233 511.74313133 -1305.24785233 511.74313133 -1298 508.3359375 C-1293.47914853 503.57071568 -1292.87643344 500.01946482 -1292.86857224 493.61586285 C-1292.86281052 491.85476052 -1292.86281052 491.85476052 -1292.8569324 490.05808038 C-1292.85779888 488.76714795 -1292.85866537 487.47621553 -1292.85955811 486.14616394 C-1292.85697426 484.7617668 -1292.85396104 483.37737041 -1292.8505547 481.99297506 C-1292.84248387 478.1845942 -1292.84069509 474.37623219 -1292.83995724 470.56784379 C-1292.83810685 466.46207891 -1292.83055963 462.35632381 -1292.82382202 458.25056458 C-1292.81023801 449.2712803 -1292.80421399 440.2920005 -1292.79981136 431.31270766 C-1292.79704929 425.70708544 -1292.79281203 420.10146494 -1292.78830719 414.49584389 C-1292.77611488 398.97830279 -1292.7658152 383.46076307 -1292.7624321 367.94321728 C-1292.76221253 366.95000132 -1292.76199297 365.95678535 -1292.76176675 364.93347194 C-1292.76154847 363.93787003 -1292.76133019 362.94226812 -1292.7611053 361.91649646 C-1292.76066183 359.89900219 -1292.76021527 357.88150793 -1292.75976562 355.86401367 C-1292.7595442 354.86326529 -1292.75932277 353.8625169 -1292.75909463 352.83144281 C-1292.75514571 336.61189044 -1292.73768867 320.39238297 -1292.7144061 304.17284795 C-1292.69070026 287.52421302 -1292.67823061 270.87560064 -1292.67706418 254.22694856 C-1292.67614704 244.87781314 -1292.67038472 235.52873624 -1292.65224457 226.17961693 C-1292.63685401 218.2195046 -1292.63171697 210.25946888 -1292.63998267 202.2993445 C-1292.64389276 198.23773233 -1292.6429421 194.17627448 -1292.62892532 190.11468124 C-1292.61620805 186.39565094 -1292.61736464 182.67689127 -1292.62951604 178.95786146 C-1292.63240489 176.97690516 -1292.62052085 174.99594427 -1292.60809398 173.01502484 C-1292.65057599 165.39585702 -1292.80867678 159.64834802 -1298.31640625 153.93164062 C-1303.52412339 150.94019392 -1310.14216146 151.7687682 -1315.9375 151.8046875 C-1317.30460892 151.80198943 -1318.67171597 151.7981044 -1320.03881836 151.79309082 C-1322.89683394 151.78721039 -1325.75434769 151.79571068 -1328.61230469 151.81445312 C-1332.26417489 151.83724298 -1335.91486905 151.8241119 -1339.56669617 151.80016327 C-1342.38758097 151.78566515 -1345.20818985 151.79032937 -1348.02908325 151.80067444 C-1350.02647674 151.80461641 -1352.02388122 151.79253093 -1354.02124023 151.78015137 C-1362.86965812 151.74707905 -1362.86965812 151.74707905 -1370 156.3359375 Z " fill="#21336D" transform="translate(1558,1208.6640625)"/>
<path d="M0 0 C2.71625785 1.43305663 5.39714794 2.921844 8.06713867 4.43920898 C11.11591226 6.12652038 14.23929365 7.64396749 17.36987305 9.17260742 C25.04580427 12.92441921 32.58433372 16.88348512 40.05883789 21.02026367 C50.50251594 26.79761748 61.11466191 32.22434684 71.74633789 37.64526367 C92.53596478 48.24749351 92.53596478 48.24749351 102.37133789 53.70776367 C114.50676244 60.44383375 126.89373298 66.69272606 139.24917603 73.012146 C140.02812225 73.41056702 140.80706848 73.80898804 141.60961914 74.21948242 C142.37639984 74.61161926 143.14318054 75.0037561 143.93319702 75.40777588 C150.94324933 78.99574624 157.91699355 82.64939183 164.87524414 86.33666992 C168.14556657 88.06908558 171.42605517 89.78093032 174.71118164 91.48510742 C183.98626435 96.2978274 193.22371075 101.15658395 202.37133789 106.20776367 C214.85255262 113.08607181 227.56063317 119.52248455 240.24697876 126.01104736 C241.41648575 126.60922272 241.41648575 126.60922272 242.60961914 127.21948242 C243.37648041 127.61165955 244.14334167 128.00383667 244.93344116 128.40789795 C251.94340878 131.99583402 258.91707393 135.64943443 265.87524414 139.33666992 C269.14556657 141.06908558 272.42605517 142.78093032 275.71118164 144.48510742 C284.98626435 149.2978274 294.22371075 154.15658395 303.37133789 159.20776367 C315.85255262 166.08607181 328.56063317 172.52248455 341.24697876 179.01104736 C342.41648575 179.60922272 342.41648575 179.60922272 343.60961914 180.21948242 C344.37648041 180.61165955 345.14334167 181.00383667 345.93344116 181.40789795 C352.94340878 184.99583402 359.91707393 188.64943443 366.87524414 192.33666992 C370.14556657 194.06908558 373.42605517 195.78093032 376.71118164 197.48510742 C386.90872394 202.77644724 397.04552619 208.1500249 407.09936523 213.7097168 C413.06661499 216.98204552 419.09439759 220.11606138 425.16430664 223.19213867 C425.94659637 223.58964325 426.72888611 223.98714783 427.53488159 224.396698 C431.45180989 226.38606983 435.37349541 228.3648915 439.30395508 230.32739258 C440.76281234 231.06577024 442.22147948 231.80452367 443.67993164 232.54370117 C444.33954391 232.86836365 444.99915619 233.19302612 445.67875671 233.52752686 C451.94756187 236.72794085 457.81618017 240.83678724 461.12133789 247.20776367 C461.51063477 247.93092773 461.89993164 248.6540918 462.30102539 249.39916992 C464.35023324 254.26815551 464.38999552 259.11726277 464.37497234 264.32945919 C464.37672538 265.09951566 464.37847842 265.86957214 464.38028458 266.66296366 C464.38494985 269.25269821 464.38247765 271.84237674 464.38005066 274.43211365 C464.38191843 276.30420718 464.38421899 278.17630031 464.38691598 280.04839283 C464.39304584 285.2011029 464.39289896 290.35379678 464.39172161 295.50650966 C464.39151787 301.06192391 464.3970342 306.61733293 464.40177917 312.17274475 C464.41009568 323.06616763 464.41283458 333.9595851 464.41339155 344.85301089 C464.41386678 353.71895916 464.41592192 362.58490564 464.41909218 371.45085335 C464.42647087 392.51687199 464.43261657 413.58288954 464.43209362 434.64890957 C464.43207804 435.32297293 464.43206246 435.9970363 464.43204641 436.69152582 C464.43196331 440.10771239 464.43186427 443.52389896 464.4317617 446.94008552 C464.43173179 447.95771364 464.43173179 447.95771364 464.43170126 448.99589991 C464.43166083 450.36783653 464.43161903 451.73977316 464.43157587 453.11170978 C464.43096473 474.40048916 464.43843868 495.68925254 464.45214844 516.97802734 C464.46756167 540.92164245 464.47609865 564.86524555 464.47518522 588.80886704 C464.47485445 601.47473728 464.47754785 614.14058952 464.48836327 626.80645561 C464.49752542 637.60549595 464.49959751 648.40451015 464.49285384 659.20355272 C464.48961558 664.70187078 464.48943254 670.20013886 464.49820709 675.698452 C464.54033171 703.84823458 464.44650672 731.96508645 460.43383789 759.89526367 C460.26207031 761.12374023 460.09030273 762.3522168 459.91333008 763.61791992 C453.23284578 810.03473747 440.19476392 855.97448029 418.30932617 897.60473633 C417.1285574 899.87135676 415.98220106 902.15385475 414.83618164 904.43823242 C404.20643969 925.4322223 391.58879039 945.00658485 377.24633789 963.64526367 C376.74086426 964.30768066 376.23539063 964.97009766 375.71459961 965.65258789 C370.49136142 972.48697418 365.09888426 979.10114908 359.27368164 985.43823242 C357.49592375 987.37355653 355.77057537 989.33929384 354.05883789 991.33276367 C334.31165671 1013.88803025 312.26598628 1033.74860958 288.24633789 1051.64526367 C287.63886719 1052.10078613 287.03139648 1052.55630859 286.40551758 1053.02563477 C276.41089618 1060.51189999 266.15419842 1067.6162077 255.89086914 1074.72729492 C251.09607548 1078.05060235 246.32041987 1081.39959035 241.55883789 1084.77026367 C231.29569635 1092.03255855 220.98862544 1099.23186094 210.68481445 1106.4362793 C202.02745015 1112.49014887 193.37290426 1118.54755888 184.74633789 1124.64526367 C174.41823814 1131.94570055 164.05014166 1139.18884883 153.68481445 1146.4362793 C145.02745015 1152.49014887 136.37290426 1158.54755888 127.74633789 1164.64526367 C117.41823814 1171.94570055 107.05014166 1179.18884883 96.68481445 1186.4362793 C87.33585402 1192.97376405 77.99433134 1199.52107697 68.67919922 1206.10668945 C62.36287749 1210.5695247 56.02584206 1215.00249587 49.68774414 1219.43432617 C44.364542 1223.15810702 39.05107996 1226.8952408 33.74633789 1230.64526367 C30.91357541 1232.64607324 28.08016409 1234.645961 25.24633789 1236.64526367 C23.98345947 1237.53640869 23.98345947 1237.53640869 22.69506836 1238.44555664 C20.0263193 1240.3269979 17.35533603 1242.20522848 14.68383789 1244.08276367 C13.86270508 1244.66219727 13.04157227 1245.24163086 12.19555664 1245.83862305 C-3.36389477 1256.75820537 -3.36389477 1256.75820537 -13.00366211 1256.89526367 C-14.08131836 1256.92104492 -15.15897461 1256.94682617 -16.26928711 1256.97338867 C-23.90076506 1256.25472931 -29.45217196 1252.80992998 -35.50366211 1248.33276367 C-36.99796357 1247.25265807 -38.49277693 1246.17326042 -39.98803711 1245.09448242 C-41.15302734 1244.24829346 -41.15302734 1244.24829346 -42.34155273 1243.38500977 C-46.44594434 1240.42469655 -50.60207114 1237.5388089 -54.75366211 1234.64526367 C-61.62264873 1229.84392864 -68.47691987 1225.02239335 -75.32006836 1220.18432617 C-80.7867312 1216.32189897 -86.26818377 1212.48091112 -91.75366211 1208.64526367 C-98.62184766 1203.84277667 -105.47691375 1199.02239767 -112.32006836 1194.18432617 C-117.7867312 1190.32189897 -123.26818377 1186.48091112 -128.75366211 1182.64526367 C-135.62184766 1177.84277667 -142.47691375 1173.02239767 -149.32006836 1168.18432617 C-154.7867312 1164.32189897 -160.26818377 1160.48091112 -165.75366211 1156.64526367 C-171.93049523 1152.32619563 -178.09929126 1147.99628102 -184.25366211 1143.64526367 C-193.73093256 1136.94610253 -203.24216402 1130.29569733 -212.75366211 1123.64526367 C-222.95678714 1116.51124487 -233.15494569 1109.37089453 -243.32080078 1102.18383789 C-248.78718807 1098.32152895 -254.26842422 1094.48074299 -259.75366211 1090.64526367 C-266.62218242 1085.8425426 -273.47999884 1081.0252925 -280.32006836 1076.18212891 C-284.0874452 1073.51723793 -287.86592242 1070.86981317 -291.65991211 1068.24291992 C-306.49094147 1057.96123354 -320.93200489 1047.2594332 -334.75366211 1035.64526367 C-335.26396973 1035.21987305 -335.77427734 1034.79448242 -336.30004883 1034.35620117 C-350.13879525 1022.79983673 -364.35862428 1010.65398738 -376.06616211 996.89526367 C-378.81164333 993.70341246 -381.63955826 990.6060754 -384.50366211 987.52026367 C-389.80046837 981.70982771 -394.63479559 975.59757256 -399.4230957 969.36547852 C-400.66023347 967.76605233 -401.91900526 966.18342419 -403.17944336 964.60229492 C-467.43450292 883.31070565 -491.29520364 782.32510068 -491.16049516 677.31786513 C-491.15568532 671.64271272 -491.16833978 665.96759164 -491.17851257 660.29244995 C-491.19554545 649.2337058 -491.19657467 638.17501883 -491.19129967 627.11626498 C-491.18723382 618.13023472 -491.18872988 609.14422117 -491.19404793 600.15819168 C-491.19479635 598.872214 -491.19554477 597.58623631 -491.19631587 596.2612896 C-491.19784751 593.64799288 -491.19938586 591.03469615 -491.20093084 588.42139943 C-491.21072713 570.93439972 -491.21495649 553.44740993 -491.20730495 535.96040916 C-491.20700778 535.2798338 -491.20671061 534.59925844 -491.20640443 533.89805959 C-491.20395631 528.37379236 -491.20134433 522.84952521 -491.1987203 517.32525806 C-491.18858795 495.71623962 -491.19704523 474.10729869 -491.22021484 452.49829102 C-491.24628577 428.14483209 -491.25908925 403.79143085 -491.25202709 379.4379555 C-491.24853574 366.5680625 -491.25076361 353.69823325 -491.26827812 340.82835007 C-491.28297491 329.89509352 -491.28366654 318.96194582 -491.26620721 308.02869146 C-491.25768148 302.45373142 -491.25558721 296.87896611 -491.27085876 291.30401611 C-491.28466437 286.20134747 -491.27999604 281.09904122 -491.26061953 275.99639376 C-491.25684718 274.15139805 -491.25981693 272.30637358 -491.27023118 270.46140341 C-491.33064303 258.93987915 -490.89943623 249.19577659 -482.71411133 240.31665039 C-478.41632166 236.65255723 -473.31975743 234.26200303 -468.31616211 231.70776367 C-467.08119853 231.06362007 -465.84691877 230.41816397 -464.61328125 229.77148438 C-461.34143691 228.06146421 -458.06009978 226.37055822 -454.77575684 224.68469238 C-451.40736072 222.9532168 -448.04592458 221.20832077 -444.68334961 219.46557617 C-439.40112134 216.73075596 -434.1141116 214.00537495 -428.82397461 211.28588867 C-418.00852236 205.72442241 -407.24627758 200.06818756 -396.53881836 194.30151367 C-383.64759693 187.36165601 -370.71525298 180.52043002 -357.69116211 173.83276367 C-356.98204681 173.46861359 -356.27293152 173.1044635 -355.54232788 172.72927856 C-352.78079419 171.31133487 -350.01920454 169.89350023 -347.25752258 168.47584534 C-336.96502758 163.18946391 -326.73386882 157.79180174 -316.54663086 152.30541992 C-303.65264189 145.36456972 -290.71784108 138.52175896 -277.69116211 131.83276367 C-276.98204681 131.46861359 -276.27293152 131.1044635 -275.54232788 130.72927856 C-272.78079419 129.31133487 -270.01920454 127.89350023 -267.25752258 126.47584534 C-256.96502758 121.18946391 -246.73386882 115.79180174 -236.54663086 110.30541992 C-223.65264189 103.36456972 -210.71784108 96.52175896 -197.69116211 89.83276367 C-196.98204681 89.46861359 -196.27293152 89.1044635 -195.54232788 88.72927856 C-192.78079419 87.31133487 -190.01920454 85.89350023 -187.25752258 84.47584534 C-176.96502758 79.18946391 -166.73386882 73.79180174 -156.54663086 68.30541992 C-154.24079476 67.06424932 -151.93479974 65.82337394 -149.62866211 64.58276367 C-148.7528801 64.1114653 -148.7528801 64.1114653 -147.85940552 63.63064575 C-137.21774472 57.90950466 -126.48874328 52.36774843 -115.7354126 46.86001587 C-107.42968626 42.60346489 -99.1689116 38.29251891 -91.00366211 33.77026367 C-79.54014716 27.42528935 -67.8658044 21.49523701 -56.20043945 15.53295898 C-54.623102 14.72669524 -53.04579037 13.92038099 -51.46850586 13.11401367 C-50.70582397 12.72413269 -49.94314209 12.33425171 -49.15734863 11.93255615 C-42.36925823 8.45787209 -35.61441192 4.92199767 -28.89160156 1.32250977 C-19.65377905 -3.5996433 -9.55929409 -4.61040734 0 0 Z M-22.62866211 59.70776367 C-23.88138916 60.37279907 -23.88138916 60.37279907 -25.15942383 61.05126953 C-30.14257195 63.70123877 -35.11256451 66.37554662 -40.08178711 69.05151367 C-42.34721319 70.27063339 -44.61284443 71.48937193 -46.87866211 72.70776367 C-47.45871002 73.01975708 -48.03875793 73.33175049 -48.63638306 73.65319824 C-60.7388781 80.15664989 -72.94796419 86.44641535 -85.17105103 92.71942139 C-85.84671112 93.06619934 -86.52237122 93.41297729 -87.21850586 93.77026367 C-87.8813559 94.11043518 -88.54420593 94.45060669 -89.22714233 94.80108643 C-95.19481968 97.86635841 -101.13719984 100.97809438 -107.06713867 104.11572266 C-111.11477598 106.25722632 -115.16929073 108.3842094 -119.23413086 110.49291992 C-128.50386761 115.30328027 -137.73613892 120.15940227 -146.87866211 125.20776367 C-156.96260793 130.76495406 -167.19252164 136.02563756 -177.44116211 141.27026367 C-178.25561798 141.68708405 -179.07007385 142.10390442 -179.90921021 142.53335571 C-183.09384422 144.16293858 -186.27856196 145.79235769 -189.46342468 147.42149353 C-200.0198177 152.82432308 -210.50425446 158.35459149 -220.94506836 163.97729492 C-223.25607791 165.22113648 -225.56721145 166.4647425 -227.87866211 167.70776367 C-228.46188232 168.02147919 -229.04510254 168.3351947 -229.64599609 168.65841675 C-241.74529162 175.16010925 -253.9512129 181.44808261 -266.17105103 187.71942139 C-266.84671112 188.06619934 -267.52237122 188.41297729 -268.21850586 188.77026367 C-268.8813559 189.11043518 -269.54420593 189.45060669 -270.22714233 189.80108643 C-276.19481968 192.86635841 -282.13719984 195.97809438 -288.06713867 199.11572266 C-292.11477598 201.25722632 -296.16929073 203.3842094 -300.23413086 205.49291992 C-309.50386761 210.30328027 -318.73613892 215.15940227 -327.87866211 220.20776367 C-337.96260793 225.76495406 -348.19252164 231.02563756 -358.44116211 236.27026367 C-359.25561798 236.68708405 -360.07007385 237.10390442 -360.90921021 237.53335571 C-364.09384422 239.16293858 -367.27856196 240.79235769 -370.46342468 242.42149353 C-381.26718265 247.95092604 -391.99091164 253.62269254 -402.68334961 259.36401367 C-403.30030197 259.69512146 -403.91725433 260.02622925 -404.55290222 260.36737061 C-407.6077311 262.00704309 -410.66150168 263.64861188 -413.71289062 265.29467773 C-414.83880615 265.90021484 -415.96472168 266.50575195 -417.12475586 267.12963867 C-418.11403076 267.66298828 -419.10330566 268.19633789 -420.12255859 268.74584961 C-423.38101846 270.47389039 -426.68057481 272.11695754 -429.98060608 273.76397705 C-431.06159104 274.30371281 -432.14257601 274.84344856 -433.25631809 275.39953995 C-434.49250338 276.01617319 -434.49250338 276.01617319 -435.75366211 276.64526367 C-435.82246001 333.0797588 -435.87525762 389.51424972 -435.9068581 445.94877861 C-435.91060983 452.62462526 -435.91448933 459.30047183 -435.91845703 465.97631836 C-435.91884931 466.64059027 -435.91924159 467.30486218 -435.91964575 467.98926355 C-435.93278943 490.12542175 -435.95663709 512.26155388 -435.9851205 534.39769717 C-436.01326189 556.45342255 -436.02985676 578.50913527 -436.03592759 600.56487787 C-436.04002599 614.15375914 -436.05292892 627.74257165 -436.07741151 641.33143173 C-436.09337674 650.67366832 -436.0980383 660.01586981 -436.09416624 669.35811903 C-436.09226132 674.73288981 -436.094998 680.1075412 -436.11127853 685.48229027 C-436.38519162 780.68307168 -410.56992102 869.88279925 -320.31616211 975.20776367 C-317.36418284 978.10949649 -314.31466176 980.87007442 -311.17163086 983.56323242 C-309.30179012 985.17328915 -307.45550992 986.80089666 -305.61694336 988.44604492 C-289.26804973 1002.98294186 -271.39372306 1015.40739571 -253.40600586 1027.80981445 C-249.60807527 1030.43802158 -245.83493007 1033.10047653 -242.06616211 1035.77026367 C-235.97542181 1040.08127546 -229.86923205 1044.36954493 -223.75366211 1048.64526367 C-216.88544659 1053.4477076 -210.03041024 1058.26812983 -203.18725586 1063.10620117 C-197.72059302 1066.96862838 -192.23914045 1070.80961622 -186.75366211 1074.64526367 C-179.88547656 1079.44775067 -173.03041046 1084.26812967 -166.18725586 1089.10620117 C-160.72059302 1092.96862838 -155.23914045 1096.80961622 -149.75366211 1100.64526367 C-143.57682899 1104.96433171 -137.40803296 1109.29424632 -131.25366211 1113.64526367 C-121.77639166 1120.34442481 -112.2651602 1126.99483001 -102.75366211 1133.64526367 C-92.55053708 1140.77928247 -82.35237852 1147.91963282 -72.18652344 1155.10668945 C-66.72013577 1158.96899865 -61.23885215 1162.80971547 -55.75366211 1166.64526367 C-50.16747539 1170.55227245 -44.5827884 1174.46128109 -39.01245117 1178.39086914 C-37.60710568 1179.38168595 -36.20023954 1180.37034995 -34.79174805 1181.35668945 C-31.39900398 1183.73970754 -28.05242327 1186.16218464 -24.76147461 1188.68432617 C-24.12709473 1189.16224609 -23.49271484 1189.64016602 -22.83911133 1190.13256836 C-21.64938881 1191.03206061 -20.47043466 1191.94604863 -19.30493164 1192.87670898 C-17.5547196 1194.25305269 -17.5547196 1194.25305269 -14.75366211 1195.64526367 C-10.18604051 1194.81478702 -6.44414497 1191.540147 -2.69116211 1188.89526367 C-1.6565686 1188.17487915 -1.6565686 1188.17487915 -0.60107422 1187.43994141 C1.6847388 1185.84644525 3.96547149 1184.24583032 6.24633789 1182.64526367 C7.87885902 1181.50552329 9.51167727 1180.3662084 11.14477539 1179.22729492 C19.72048664 1173.24109251 28.27270274 1167.22186288 36.8125 1161.18457031 C43.1290935 1156.72141483 49.46650054 1152.28826444 55.80493164 1147.85620117 C61.12813224 1144.1324214 66.44178494 1140.39555253 71.74633789 1136.64526367 C78.7504355 1131.69340639 85.77523041 1126.77162585 92.80493164 1121.85620117 C98.12813253 1118.13242119 103.44174908 1114.39550208 108.74633789 1110.64526367 C119.07436808 1103.34472931 129.44253483 1096.10167801 139.80786133 1088.85424805 C149.15682176 1082.3167633 158.49834444 1075.76945037 167.81347656 1069.18383789 C174.12979829 1064.72100265 180.46683372 1060.28803148 186.80493164 1055.85620117 C192.12813224 1052.1324214 197.44178494 1048.39555253 202.74633789 1044.64526367 C208.90066946 1040.29418616 215.0698079 1035.96476689 221.24633789 1031.64526367 C222.94038717 1030.45912126 224.63439792 1029.27292382 226.32836914 1028.08666992 C229.44766377 1025.90249313 232.57027513 1023.72320616 235.69555664 1021.54760742 C254.1547218 1008.66034422 271.64753432 994.86083362 288.24633789 979.64526367 C288.79999023 979.1420459 289.35364258 978.63882813 289.92407227 978.12036133 C299.08206534 969.84936857 299.08206534 969.84936857 307.42602539 960.77807617 C309.36250668 958.50915174 311.39388166 956.3428666 313.44091797 954.17382812 C320.18387518 947.00540101 326.34574062 939.51802822 332.24633789 931.64526367 C332.7580957 930.96334961 333.26985352 930.28143555 333.79711914 929.57885742 C371.06845351 879.61169139 395.52153642 821.67598921 404.99633789 760.02026367 C405.19509521 758.73627686 405.39385254 757.45229004 405.59863281 756.12939453 C406.20574221 751.97435133 406.73772648 747.81320538 407.24633789 743.64526367 C407.33495519 742.93461769 407.4235725 742.22397171 407.51487517 741.49179101 C409.92364535 721.27254548 409.57390802 700.92283876 409.59574151 680.59650517 C409.60364402 675.18706353 409.62278945 669.77765829 409.64016724 664.36824036 C409.67937996 651.36177834 409.69976673 638.35531392 409.71762282 625.34880775 C409.72465523 620.44503116 409.73294594 615.54125707 409.74130214 610.63748258 C409.77816582 589.003404 409.80968186 567.36932533 409.82509804 545.73521996 C409.82891713 540.46174492 409.83275796 535.18826989 409.83666992 529.91479492 C409.8376374 528.60427067 409.83860488 527.29374641 409.83960168 525.9435093 C409.85625544 504.64424591 409.90704787 483.34527546 409.97183128 462.0461152 C410.03788271 440.15136817 410.07398552 418.2567348 410.08038652 396.36188757 C410.08472004 384.07868587 410.10227084 371.79581124 410.15330887 359.51270676 C410.19659642 349.07194523 410.2128849 338.63159061 410.1933753 328.19074951 C410.18425492 322.86320092 410.18825588 317.53649326 410.22689819 312.20905876 C410.26193888 307.33645179 410.26035337 302.4653062 410.22910361 297.59268613 C410.22431764 295.82679153 410.23317315 294.06079862 410.25676091 292.29505508 C410.76668697 283.39417445 410.76668697 283.39417445 407.5327785 275.54906678 C405.45011474 274.21169918 403.58969585 273.41548187 401.24633789 272.64526367 C399.97862901 271.98841579 398.7194612 271.31448655 397.47436523 270.61572266 C396.17880157 269.95406526 394.88136683 269.29606128 393.58227539 268.64135742 C392.87697693 268.28175934 392.17167847 267.92216125 391.44500732 267.55166626 C389.94624893 266.78753089 388.44676244 266.02482212 386.94659424 265.26345825 C376.34661488 259.88111054 365.7663378 254.4786052 355.37133789 248.70776367 C345.5440877 243.26242403 335.55946386 238.13739863 325.55883789 233.02026367 C324.74329437 232.60289948 323.92775085 232.18553528 323.0874939 231.75552368 C319.9040163 230.12652699 316.72046573 228.49767307 313.53675842 226.86912537 C302.98030057 221.46627284 292.49580552 215.93596815 282.05493164 210.31323242 C279.74392209 209.06939086 277.43278855 207.82578484 275.12133789 206.58276367 C274.53811768 206.26904816 273.95489746 205.95533264 273.35400391 205.6321106 C261.25470838 199.1304181 249.0487871 192.84244473 236.82894897 186.57110596 C236.15328888 186.224328 235.47762878 185.87755005 234.78149414 185.52026367 C233.78721909 185.01000641 233.78721909 185.01000641 232.77285767 184.48944092 C226.80518032 181.42416893 220.86280016 178.31243297 214.93286133 175.17480469 C210.88522402 173.03330103 206.83070927 170.90631795 202.76586914 168.79760742 C193.49613239 163.98724707 184.26386108 159.13112507 175.12133789 154.08276367 C165.03739207 148.52557328 154.80747836 143.26488979 144.55883789 138.02026367 C143.33715408 137.39503311 143.33715408 137.39503311 142.09078979 136.75717163 C138.90615578 135.12758877 135.72143804 133.49816965 132.53657532 131.86903381 C122.00351208 126.4781446 111.54100497 120.96237726 101.12524414 115.34838867 C98.83248609 114.11362236 96.53950925 112.87926224 94.24633789 111.64526367 C93.66534332 111.33249481 93.08434875 111.01972595 92.48574829 110.69747925 C81.42624941 104.75030254 70.2666654 99.00715894 59.0871582 93.28955078 C50.41111314 88.84984127 41.77385558 84.36623978 33.24633789 79.64526367 C24.21987315 74.65241616 15.08631457 69.87632572 5.92016602 65.14624023 C4.3107311 64.31558506 2.70200022 63.48356427 1.09399414 62.65014648 C-1.16029144 61.48268161 -3.41740267 60.32088793 -5.67553711 59.16088867 C-6.36089539 58.8052887 -7.04625366 58.44968872 -7.75238037 58.08331299 C-14.25485399 54.76092519 -16.46288705 56.40135886 -22.62866211 59.70776367 Z " fill="#21336D" transform="translate(873.753662109375,4.354736328125)"/>
<path d="M0 0 C16.26081851 13.62392902 26.74913485 31.85963336 29.45703125 53.05859375 C30.77563903 76.53447521 26.45572157 99.50299803 10.55053711 117.76049805 C-1.65544469 131.20000675 -15.84841933 140.29981486 -33.75 143.78125 C-36.808366 144.84838255 -36.808366 144.84838255 -38.2109375 148.02734375 C-38.68026533 149.36246199 -39.12186008 150.70749168 -39.54296875 152.05859375 C-39.8056958 152.83066162 -40.06842285 153.60272949 -40.33911133 154.39819336 C-40.93086147 156.13985026 -41.5143032 157.88434508 -42.09082031 159.63110352 C-51.07769311 186.67237334 -63.94504961 212.85250965 -80.54296875 236.05859375 C-81.08743652 236.82333008 -81.6319043 237.58806641 -82.19287109 238.37597656 C-88.22913269 246.81440689 -94.24360476 255.20813696 -101.3828125 262.7578125 C-103.21871178 264.71322782 -104.96985668 266.7059814 -106.71875 268.73828125 C-116.92885261 280.4475888 -128.15003485 291.67052191 -140.54296875 301.05859375 C-141.84867627 302.07942584 -143.15327118 303.10168189 -144.45703125 304.125 C-211.72477732 356.63322118 -296.70838605 380.61010864 -381.54296875 371.05859375 C-450.53172986 362.3050634 -523.52697419 329.83833142 -568.54296875 275.05859375 C-569.73019531 273.70314453 -569.73019531 273.70314453 -570.94140625 272.3203125 C-586.63858759 254.35525017 -599.06206783 234.43566442 -610.48046875 213.55859375 C-611.02445313 212.56778809 -611.5684375 211.57698242 -612.12890625 210.55615234 C-618.22135915 199.26194493 -622.56829363 189.81813218 -620.10546875 176.734375 C-618.16395992 170.55795003 -613.85844159 165.16954618 -608.4140625 161.703125 C-600.76985643 157.80359447 -593.24091532 156.72263453 -584.77734375 158.70703125 C-573.31984402 162.8190787 -568.86349021 171.49574248 -563.73046875 181.99609375 C-558.52108602 192.38472603 -553.07121184 202.43490013 -546.54296875 212.05859375 C-546.14158691 212.65381836 -545.74020508 213.24904297 -545.32666016 213.86230469 C-539.28806085 222.74442659 -532.6519226 231.01438215 -525.54296875 239.05859375 C-525.08245117 239.58227539 -524.62193359 240.10595703 -524.14746094 240.64550781 C-485.89147247 283.9415284 -428.47769014 309.78493027 -371.54296875 316.05859375 C-370.73947998 316.15140625 -369.93599121 316.24421875 -369.1081543 316.33984375 C-320.35261913 321.42848408 -270.37621064 311.69271355 -226.54296875 290.05859375 C-225.3533252 289.47706543 -225.3533252 289.47706543 -224.13964844 288.88378906 C-207.06338485 280.45949903 -191.30006536 270.08154224 -176.54296875 258.05859375 C-175.99753418 257.61612305 -175.45209961 257.17365234 -174.89013672 256.71777344 C-161.16887241 245.49883131 -148.36153105 233.12067189 -137.54296875 219.05859375 C-136.77082031 218.10339844 -135.99867188 217.14820313 -135.203125 216.1640625 C-116.13020816 192.20992523 -101.79331776 164.20969362 -92.54296875 135.05859375 C-93.28289063 134.78917969 -94.0228125 134.51976562 -94.78515625 134.2421875 C-110.43289654 127.52651426 -122.92524604 110.36613353 -129.19750977 94.9855957 C-137.4577794 73.3368379 -136.56290689 49.82679927 -127.26171875 28.62109375 C-117.74318619 8.89177172 -101.34926397 -6.22556395 -80.64648438 -13.61865234 C-52.22685238 -22.82655469 -23.66611861 -18.20197728 0 0 Z M-75.13671875 47.96875 C-79.77585733 54.86302539 -80.50692445 61.84872388 -79.54296875 70.05859375 C-77.653937 76.95302601 -73.6255813 83.50986599 -67.484375 87.34375 C-59.97338494 91.18882565 -52.32666734 92.61335144 -44 90.375 C-35.90504048 87.01719407 -30.07549795 82.00742892 -26.4296875 73.96484375 C-24.16015742 66.52638392 -24.35640108 58.74209702 -27.54296875 51.62109375 C-31.33665881 45.12373161 -36.93344309 39.77576385 -44.21875 37.5 C-56.78859026 35.11278664 -67.09003746 37.77755224 -75.13671875 47.96875 Z " fill="#21336D" transform="translate(1202.54296875,575.94140625)"/>
<path d="M0 0 C6.71664908 5.50940823 10.11214082 11.26853859 11.453125 19.8359375 C12.09499435 29.06280935 8.9006358 35.91361626 3.2578125 42.9921875 C-2.42852363 48.8273806 -10.83570549 50.20594484 -18.421875 52.3359375 C-20.42420133 52.99558415 -22.42463024 53.66106134 -24.421875 54.3359375 C-23.57407471 54.63661133 -22.72627441 54.93728516 -21.8527832 55.24707031 C22.55664257 71.05275201 66.77713037 88.76225881 106.578125 114.3359375 C107.63644531 115.00882813 108.69476562 115.68171875 109.78515625 116.375 C148.47361897 141.54580707 183.05009954 174.27147213 194.578125 220.3359375 C200.0471193 249.04018347 193.16295181 277.44191556 177.25 301.484375 C168.22504175 314.68952378 157.84993797 327.05019307 145.578125 337.3359375 C144.57229074 338.22438451 143.56855999 339.11521599 142.56640625 340.0078125 C121.84534024 358.33810267 98.00188738 372.53108828 73.578125 385.3359375 C72.61116699 385.84737305 71.64420898 386.35880859 70.64794922 386.88574219 C21.87784539 412.53739437 -31.35052581 430.13441024 -84.296875 444.8984375 C-85.16218842 445.14028778 -86.02750183 445.38213806 -86.91903687 445.63131714 C-92.74010842 447.25110023 -98.57335578 448.81827672 -104.421875 450.3359375 C-105.79237 450.69205109 -105.79237 450.69205109 -107.19055176 451.05535889 C-109.99606827 451.77637917 -112.80553067 452.47912592 -115.6171875 453.17578125 C-116.46570282 453.39335587 -117.31421814 453.61093048 -118.18844604 453.83509827 C-126.91707096 455.95069524 -135.21486806 456.43944097 -143.421875 452.3359375 C-150.42489756 447.64242238 -154.76530073 441.6341475 -156.421875 433.3359375 C-157.23704651 424.22205279 -156.46996287 416.37859868 -150.609375 409.078125 C-146.80213051 405.28487774 -143.15382004 402.98149654 -137.99609375 401.48046875 C-136.27314087 400.97821777 -136.27314087 400.97821777 -134.51538086 400.46582031 C-127.79125046 398.59286653 -121.04295195 396.80857947 -114.29516602 395.02319336 C-45.06011553 376.68634135 28.49967365 354.23913434 87.578125 312.3359375 C88.22056152 311.88283203 88.86299805 311.42972656 89.52490234 310.96289062 C111.98178257 294.99501383 135.33913598 274.40202786 140.30078125 245.83203125 C141.84447488 226.37279467 132.08341511 210.82084175 120.21484375 196.48046875 C115.68838551 191.31295771 110.90328006 186.66766027 105.578125 182.3359375 C104.59457031 181.52640625 103.61101562 180.716875 102.59765625 179.8828125 C63.50379643 148.1644993 15.85825955 127.59108464 -31.421875 111.3359375 C-30.94411621 111.79846924 -30.46635742 112.26100098 -29.97412109 112.73754883 C-29.34586426 113.3539624 -28.71760742 113.97037598 -28.0703125 114.60546875 C-27.13711182 115.51582886 -27.13711182 115.51582886 -26.18505859 116.44458008 C-19.75729693 123.33960495 -18.99143837 130.62239013 -19.0859375 139.72265625 C-19.76609778 147.03833372 -22.93023494 152.24146304 -28.171875 157.2734375 C-35.12259595 162.792362 -42.69004448 164.28925444 -51.421875 163.3359375 C-66.36760236 160.9558816 -79.0155415 142.95859403 -89.1953125 132.8359375 C-90.08581928 131.95075439 -90.97632607 131.06557129 -91.8938179 130.15356445 C-95.63462798 126.433895 -99.37443349 122.71322487 -103.11035728 118.98864746 C-108.42702749 113.68824775 -113.75205882 108.39657271 -119.08891237 103.11649323 C-123.32099331 98.92788626 -127.53923622 94.72552186 -131.75282669 90.51831055 C-133.53711399 88.74072489 -135.32564459 86.96738763 -137.11854172 85.19848633 C-139.62399555 82.72469832 -142.11316567 80.23554844 -144.59912109 77.7421875 C-145.3357901 77.02192383 -146.07245911 76.30166016 -146.83145142 75.55957031 C-153.15112656 69.16270059 -156.99510346 62.59272579 -156.984375 53.3984375 C-156.73733988 45.22863331 -154.1934695 39.69102558 -149.046875 33.4609375 C-142.54094477 28.19423208 -135.93588078 26.08419365 -127.95385742 23.94433594 C-126.81797684 23.63163757 -125.68209625 23.31893921 -124.51179504 22.99676514 C-120.7696297 21.96961672 -117.02374401 20.95689643 -113.27734375 19.9453125 C-111.32601627 19.41458157 -109.37502764 18.8826183 -107.42407018 18.35052896 C-101.2944583 16.6789096 -95.16217509 15.01737641 -89.02807617 13.36230469 C-82.72086221 11.66034913 -76.41825025 9.94210977 -70.11770743 8.21563697 C-64.68894571 6.72863463 -59.25755282 5.25154807 -53.82395631 3.78231072 C-50.58719237 2.90701203 -47.35187786 2.02713295 -44.11833763 1.13994598 C-40.50808592 0.15109095 -36.8938104 -0.8214525 -33.27807617 -1.79003906 C-31.69342056 -2.22944824 -31.69342056 -2.22944824 -30.07675171 -2.67773438 C-19.60159119 -5.44734058 -9.31357926 -6.39933027 0 0 Z " fill="#21336D" transform="translate(1523.421875,467.6640625)"/>
<path d="M0 0 C6.31456051 4.40146273 10.92704437 9.72101437 12.84375 17.28515625 C13.76427228 25.81044779 13.378017 33.32622348 8.33203125 40.40625 C2.27848468 47.82014412 -4.44922951 50.69254795 -13.53125 52.87890625 C-15.40237598 53.35005106 -17.27346828 53.82132962 -19.14453125 54.29272461 C-20.12373535 54.53538055 -21.10293945 54.7780365 -22.11181641 55.02804565 C-44.72255343 60.65103859 -67.00478551 67.07297232 -89.15625 74.28515625 C-89.95504578 74.54490234 -90.75384155 74.80464844 -91.57684326 75.07226562 C-138.9105839 90.50380679 -186.98632332 108.79444161 -228.15625 137.28515625 C-229.3023877 138.07744629 -229.3023877 138.07744629 -230.47167969 138.88574219 C-253.82101202 155.19124821 -277.70187175 175.39871601 -283.7578125 204.6953125 C-286.09868664 219.9109944 -279.75102909 233.56114717 -271.39453125 245.8828125 C-269.72177536 248.0936577 -267.97785065 250.19555892 -266.15625 252.28515625 C-265.14111328 253.48011719 -265.14111328 253.48011719 -264.10546875 254.69921875 C-226.29873818 298.0795881 -165.99433354 321.69412885 -113.15625 340.28515625 C-115.14124518 337.79044415 -117.12813544 335.3175306 -119.21875 332.91015625 C-124.91468599 325.19308168 -125.19327251 317.72699929 -124.15625 308.28515625 C-121.66187154 299.81535561 -116.488064 294.79760837 -109.03125 290.47265625 C-101.54734487 287.38147804 -94.03703299 287.37384707 -86.498806 290.22662163 C-79.07161198 293.58275997 -73.27667275 299.86735043 -67.60058594 305.55029297 C-66.78654297 306.35761871 -65.9725 307.16494446 -65.13378906 307.99673462 C-62.46411839 310.64752012 -59.80194685 313.30567807 -57.140625 315.96484375 C-55.27848641 317.82055032 -53.41619975 319.67610832 -51.55377197 321.53152466 C-47.6598171 325.41273478 -43.77073937 329.298788 -39.88378906 333.18701172 C-35.403068 337.66893577 -30.91129128 342.139564 -26.4142282 346.60508525 C-22.0698472 350.92008826 -17.73665811 355.24616839 -13.40753937 359.57648087 C-11.57198923 361.40967497 -9.73320442 363.23963629 -7.89110565 365.06624985 C-5.3158936 367.62182369 -2.75371377 370.18981204 -0.19433594 372.76123047 C0.56417664 373.50850403 1.32268921 374.25577759 2.10418701 375.0256958 C8.78347782 381.78494995 12.91743148 388.62433932 13.21875 398.34765625 C13.15546808 406.4567817 10.59307517 411.84849979 5.59375 418.09765625 C-0.76003506 423.15180346 -7.55891525 426.04537408 -15.3659668 428.05249023 C-16.23902466 428.28742188 -17.11208252 428.52235352 -18.01159668 428.7644043 C-20.87330795 429.53146238 -23.73920541 430.28139898 -26.60546875 431.03125 C-28.62527119 431.56916177 -30.64478235 432.10816833 -32.66401672 432.64820862 C-37.97427735 434.06539332 -43.28823363 435.46818802 -48.60314941 436.86779785 C-53.93880838 438.27532487 -59.27107017 439.69559068 -64.60351562 441.11523438 C-70.63966586 442.72165095 -76.67607966 444.32697269 -82.71525574 445.92198181 C-83.63769986 446.16578111 -84.56014399 446.4095804 -85.51054096 446.66076756 C-87.33018579 447.14157685 -89.14997135 447.62185388 -90.9699049 448.10156918 C-95.7195565 449.35783147 -100.45982523 450.64202309 -105.19180298 451.96340942 C-106.18428197 452.23925653 -107.17676096 452.51510363 -108.19931507 452.79930973 C-110.09080535 453.32654582 -111.98098596 453.85851274 -113.86955547 454.39611721 C-123.31729284 457.02577956 -131.70563285 457.87692011 -140.8359375 453.6640625 C-148.06303023 449.36917406 -152.06196227 443.93647706 -154.53515625 435.9453125 C-156.21053253 428.76964429 -155.24521041 421.96929466 -152.15625 415.28515625 C-144.96395462 404.71992235 -136.22795904 402.06387117 -124.3515625 399.1171875 C-121.28781088 398.43735203 -121.28781088 398.43735203 -119.15625 397.28515625 C-119.91728027 397.02524902 -120.67831055 396.7653418 -121.46240234 396.49755859 C-154.38507823 385.19003838 -186.06277477 371.94117376 -217.15625 356.28515625 C-218.51435791 355.60694824 -218.51435791 355.60694824 -219.89990234 354.91503906 C-242.37935855 343.64045549 -264.10313992 329.72908247 -283.15625 313.28515625 C-284.30867188 312.29902344 -284.30867188 312.29902344 -285.484375 311.29296875 C-311.97496667 288.04791314 -336.8199055 258.76607587 -339.38378906 222.02441406 C-340.01899985 207.65426821 -339.68802637 193.99935163 -335.15625 180.28515625 C-334.79402344 179.16753906 -334.43179687 178.04992187 -334.05859375 176.8984375 C-327.13022563 157.42854879 -315.44158272 141.01102606 -301.15625 126.28515625 C-300.61983887 125.72296387 -300.08342773 125.16077148 -299.53076172 124.58154297 C-291.83400501 116.52917521 -283.86060569 109.25340583 -274.92285156 102.60302734 C-273.16271747 101.28998093 -271.42071545 99.95542575 -269.6796875 98.6171875 C-207.90796354 51.65503458 -128.82813006 25.96349871 -54.84375 5.78515625 C-53.92803223 5.53530975 -53.01231445 5.28546326 -52.06884766 5.02804565 C-42.98716976 2.55981983 -33.88779768 0.16229228 -24.7421875 -2.05859375 C-24.06165817 -2.22830688 -23.38112885 -2.39802002 -22.67997742 -2.57287598 C-14.67242207 -4.47269847 -7.22499295 -4.13068244 0 0 Z " fill="#21336D" transform="translate(341.15625,496.71484375)"/>
<path d="M0 0 C5.74757387 5.21890551 9.17350074 10.59705758 9.94140625 18.40234375 C10.20325915 27.44196132 8.75715889 33.23909755 3.03125 40.25390625 C-3.10331337 46.68852978 -8.48567913 48.68958761 -17.34375 49.00390625 C-26.5970949 49.08958537 -33.62906848 44.5618497 -41.03125 39.50390625 C-76.49396432 16.01795042 -116.21461048 2.48822506 -158.34375 -2.49609375 C-159.42914062 -2.62886719 -160.51453125 -2.76164062 -161.6328125 -2.8984375 C-228.41637124 -9.46878762 -298.36241693 12.58726989 -350.19921875 54.84375 C-354.48356462 58.42178289 -358.59058371 62.18897192 -362.66015625 66.0078125 C-364.94659973 68.13450447 -367.27362084 70.17463186 -369.65625 72.19140625 C-373.62576068 75.64845961 -376.96180015 79.4806685 -380.34375 83.50390625 C-381.54451172 84.87289062 -381.54451172 84.87289062 -382.76953125 86.26953125 C-406.4217077 113.36170678 -422.76558276 144.58940195 -434.34375 178.50390625 C-433.62960937 178.75785156 -432.91546875 179.01179687 -432.1796875 179.2734375 C-415.16988211 186.65372496 -404.38553399 203.11384823 -397.34375 219.50390625 C-394.87668457 226.6144211 -392.65337957 233.94378425 -392.34375 241.50390625 C-392.2921875 242.65117188 -392.240625 243.7984375 -392.1875 244.98046875 C-391.46060781 269.1631506 -399.1795219 290.31622961 -415.87890625 308.12890625 C-433.2360127 324.8533448 -454.91005449 332.06462003 -478.64453125 331.71484375 C-501.13586893 330.97382347 -520.86689242 320.50702483 -536.34375 304.50390625 C-552.0632883 286.36597744 -557.90589527 264.74259154 -556.5625 241.12402344 C-554.86091479 220.74298274 -544.60155346 201.79201717 -529.953125 187.69921875 C-521.65293493 180.71612471 -510.00321203 172.3044201 -499.0546875 171.16015625 C-494.9349269 170.59191341 -492.71424017 169.99666461 -489.34375 167.50390625 C-485.82005046 161.13814084 -484.30409748 153.7556172 -482.34912109 146.79638672 C-479.57529444 137.71240754 -475.33893861 129.10261711 -471.34375 120.50390625 C-470.95493652 119.65908691 -470.56612305 118.81426758 -470.16552734 117.94384766 C-461.1590357 98.56254846 -449.95421963 80.00571917 -436.34375 63.50390625 C-435.58707031 62.55773437 -434.83039063 61.6115625 -434.05078125 60.63671875 C-429.72037819 55.25539171 -425.22912585 50.05220422 -420.5703125 44.953125 C-419.12967241 43.3684209 -417.7064093 41.76766786 -416.3046875 40.1484375 C-406.46582263 28.85401023 -395.19930406 18.64194036 -383.34375 9.50390625 C-382.36293457 8.7469043 -382.36293457 8.7469043 -381.36230469 7.97460938 C-296.64238461 -56.99628236 -183.13710525 -77.47271406 0 0 Z M-495.28125 231.37890625 C-500.30823321 237.6951628 -502.82792178 244.59911568 -502.1640625 252.6953125 C-500.80565582 260.66555578 -496.65611814 266.95923063 -490.34375 271.94140625 C-483.40760291 276.64807749 -476.61952259 277.52406438 -468.34375 276.50390625 C-458.79727103 273.30854261 -453.0622636 267.17871202 -448.34375 258.50390625 C-446.23050675 252.16417649 -446.40291254 244.87709738 -448.96875 238.69140625 C-453.47743932 229.98932056 -459.12903921 225.57547651 -468.34375 222.50390625 C-479.34506803 221.42383295 -487.59998623 223.13638104 -495.28125 231.37890625 Z " fill="#21336D" transform="translate(1045.34375,373.49609375)"/>
<path d="M0 0 C5.75070748 6.01818224 8.7701788 12.63974497 9 20.9375 C9.03738281 21.80632812 9.07476563 22.67515625 9.11328125 23.5703125 C7.9659058 32.30720812 3.68749422 38.75547062 -2 45.25 C-3.25793542 46.73036431 -4.515748 48.21083301 -5.7734375 49.69140625 C-6.38155273 50.39797363 -6.98966797 51.10454102 -7.61621094 51.83251953 C-9.8300689 54.41662835 -11.97995968 57.04599275 -14.125 59.6875 C-14.82238281 60.54085937 -15.51976562 61.39421875 -16.23828125 62.2734375 C-16.92277344 63.11132812 -17.60726563 63.94921875 -18.3125 64.8125 C-19.81235696 66.64595036 -21.3123594 68.47928171 -22.8125 70.3125 C-23.92625 71.67375 -23.92625 71.67375 -25.0625 73.0625 C-96.3125 160.14583333 -167.5625 247.22916667 -238.8125 334.3125 C-239.93398438 335.68341797 -239.93398438 335.68341797 -241.078125 337.08203125 C-242.52547051 338.85072795 -243.97335301 340.61898543 -245.421875 342.38671875 C-249.89831045 347.85156421 -254.359564 353.32850645 -258.8125 358.8125 C-263.96473637 365.15771382 -269.13197976 371.4903466 -274.3125 377.8125 C-275.81264281 379.64571648 -277.31264082 381.47905146 -278.8125 383.3125 C-287.8125 394.3125 -287.8125 394.3125 -290.05859375 397.046875 C-291.5858035 398.92081695 -293.09845578 400.80670047 -294.59765625 402.703125 C-307.60956858 419.0405518 -307.60956858 419.0405518 -316.3125 420.8125 C-325.73037844 421.83593246 -332.31888751 420.91407818 -340.3125 415.8125 C-344.83758869 411.99535532 -348.97272929 407.82723906 -353.13427734 403.62182617 C-354.38929183 402.3719578 -355.64537469 401.12316141 -356.9024353 399.87535095 C-360.29380187 396.50241511 -363.66935371 393.1140614 -367.04163694 389.72205901 C-370.58201057 386.16523427 -374.13504095 382.62109013 -377.68618774 379.07502747 C-383.64451818 373.12120987 -389.59260654 367.15730764 -395.53466797 361.18725586 C-402.39565669 354.29419708 -409.2725613 347.41733773 -416.15821493 340.54892367 C-422.79578598 333.92723674 -429.42198151 327.29427782 -436.04307938 320.65612221 C-438.8550996 317.83724597 -441.67100768 315.02234094 -444.49015427 312.21059227 C-447.810521 308.89790799 -451.12078068 305.57543797 -454.42361832 302.24527931 C-455.63434236 301.02769185 -456.84844295 299.81345081 -458.06620789 298.60290527 C-465.93151009 290.77886009 -473.20741497 283.50831519 -473.625 271.75 C-473.54632677 264.95038552 -471.05574014 258.8296464 -467.6875 253 C-460.34783675 246.23978385 -453.08683852 243.39005038 -443.24609375 243.546875 C-429.1891624 244.81967304 -419.90535155 257.06621751 -410.54833984 266.46313477 C-409.63004395 267.38128464 -408.71174805 268.29943451 -407.765625 269.2454071 C-405.28058283 271.7301658 -402.7986063 274.21796533 -400.31722593 276.70638013 C-397.71123673 279.31867873 -395.10235938 281.92808995 -392.49380493 284.53782654 C-387.56930314 289.4654195 -382.64735297 294.3955528 -377.72634566 299.3266353 C-372.11757971 304.94663167 -366.50592753 310.56374238 -360.8940475 316.1806289 C-349.36368153 327.72140904 -337.83689211 339.26575442 -326.3125 350.8125 C-322.55131504 349.08173697 -320.70311309 347.14812354 -318.125 343.875 C-317.33222656 342.87984375 -316.53945313 341.8846875 -315.72265625 340.859375 C-314.92730469 339.85390625 -314.13195312 338.8484375 -313.3125 337.8125 C-311.89936924 336.08044248 -310.48272743 334.35124328 -309.0625 332.625 C-305.30188314 328.029421 -301.55562213 323.42232544 -297.8125 318.8125 C-292.66026363 312.46728618 -287.49302024 306.1346534 -282.3125 299.8125 C-280.81235719 297.97928352 -279.31235918 296.14594854 -277.8125 294.3125 C-259.8125 272.3125 -241.8125 250.3125 -223.8125 228.3125 C-222.69101562 226.94158203 -222.69101562 226.94158203 -221.546875 225.54296875 C-220.09952949 223.77427205 -218.65164699 222.00601457 -217.203125 220.23828125 C-212.72668955 214.77343579 -208.265436 209.29649355 -203.8125 203.8125 C-198.66026363 197.46728618 -193.49302024 191.1346534 -188.3125 184.8125 C-186.81235719 182.97928352 -185.31235918 181.14594854 -183.8125 179.3125 C-165.8125 157.3125 -147.8125 135.3125 -129.8125 113.3125 C-129.06484375 112.39855469 -128.3171875 111.48460937 -127.546875 110.54296875 C-126.09952949 108.77427205 -124.65164699 107.00601457 -123.203125 105.23828125 C-118.72668955 99.77343579 -114.265436 94.29649355 -109.8125 88.8125 C-104.66026363 82.46728618 -99.49302024 76.1346534 -94.3125 69.8125 C-92.81235719 67.97928352 -91.31235918 66.14594854 -89.8125 64.3125 C-53.8125 20.3125 -53.8125 20.3125 -51.56640625 17.578125 C-50.0391965 15.70418305 -48.52654422 13.81829953 -47.02734375 11.921875 C-33.9927486 -4.44403178 -19.45926872 -12.85046048 0 0 Z " fill="#21336D" transform="translate(1180.3125,357.1875)"/>
</svg>
