<svg id="Layer_1" enable-background="new 0 0 512 512" viewBox="0 0 512 512" xmlns="http://www.w3.org/2000/svg"><path d="m251.93 153.37c-42.5 0-77.08 34.58-77.08 77.08s34.58 77.08 77.08 77.08 77.08-34.58 77.08-77.08-34.58-77.08-77.08-77.08zm0 144.15c-36.99 0-67.08-30.09-67.08-67.08s30.09-67.08 67.08-67.08 67.08 30.09 67.08 67.08-30.09 67.08-67.08 67.08zm22.56-49.52c0 10.72-7.52 19.72-17.56 22v4.55c0 2.76-2.24 5-5 5s-5-2.24-5-5v-4.55c-5.64-1.28-10.62-4.69-13.88-9.65-1.51-2.31-.87-5.41 1.44-6.92s5.41-.87 6.92 1.44c2.33 3.56 6.26 5.69 10.51 5.69 6.92 0 12.56-5.63 12.56-12.56s-5.63-12.56-12.56-12.56c-12.44 0-22.56-10.12-22.56-22.56 0-10.72 7.52-19.72 17.56-22v-4.55c0-2.76 2.24-5 5-5s5 2.24 5 5v4.55c5.64 1.28 10.62 4.69 13.88 9.65 1.51 2.31.87 5.41-1.44 6.92s-5.41.87-6.92-1.44c-2.33-3.56-6.26-5.69-10.51-5.69-6.92 0-12.56 5.63-12.56 12.56s5.63 12.56 12.56 12.56c12.44.01 22.56 10.13 22.56 22.56zm-22.56-124.04c-58.72 0-106.49 47.77-106.49 106.49s47.77 106.49 106.49 106.49 106.49-47.77 106.49-106.49-47.77-106.49-106.49-106.49zm0 202.98c-53.21 0-96.49-43.29-96.49-96.49s43.29-96.49 96.49-96.49 96.49 43.29 96.49 96.49-43.28 96.49-96.49 96.49zm226.87 111.89c-1.39-3.22-4.55-5.3-8.06-5.3h-17.06v-68.28c0-6.92-5.63-12.55-12.55-12.55h-11.59c.83-7.57-1.45-15.32-6.53-21.34l-20.06-23.78c-3.92-4.64-4.89-10.76-2.6-16.36s7.27-9.27 13.32-9.83l31-2.88c13.62-1.27 24.11-11.65 25.52-25.25 1.63-15.71 1.57-31.65-.18-47.37-1.51-13.6-12.09-23.9-25.73-25.06l-31.03-2.63c-6.05-.51-11.06-4.15-13.4-9.73s-1.42-11.7 2.46-16.38l19.87-23.95c8.73-10.52 8.81-25.29.19-35.91-9.97-12.28-21.29-23.5-33.65-33.37-10.68-8.53-25.44-8.33-35.9.49l-23.78 20.06c-4.65 3.92-10.76 4.89-16.36 2.6s-9.27-7.27-9.83-13.32l-2.85-30.98c-1.27-13.62-11.65-24.11-25.25-25.53-15.71-1.63-31.65-1.57-47.37.18-13.6 1.52-23.9 12.1-25.06 25.73l-2.63 31.03c-.51 6.05-4.15 11.06-9.73 13.4s-11.7 1.42-16.38-2.47l-23.95-19.87c-10.52-8.73-25.29-8.81-35.9-.19-12.28 9.97-23.51 21.29-33.37 33.65-8.53 10.68-8.33 25.45.48 35.9l20.06 23.78c3.92 4.64 4.89 10.76 2.6 16.36s-7.27 9.27-13.32 9.83l-31 2.88c-13.62 1.27-24.11 11.65-25.53 25.25-1.63 15.71-1.57 31.65.18 47.37 1.51 13.6 12.09 23.9 25.73 25.06l31.03 2.63c6.05.51 11.06 4.15 13.4 9.73s1.42 11.7-2.47 16.38l-19.87 23.95c-8.73 10.52-8.81 25.29-.19 35.91 9.97 12.28 21.29 23.5 33.65 33.37 10.68 8.53 25.45 8.33 35.9-.48l23.78-20.06c4.65-3.92 10.76-4.89 16.36-2.6s9.27 7.27 9.84 13.32l2.88 30.99c1.27 13.62 11.65 24.11 25.25 25.53 7.58.79 15.21 1.18 22.84 1.18 8.19 0 16.39-.45 24.52-1.36 13.6-1.52 23.9-12.1 25.06-25.73l2.63-31.03c.51-6.05 4.15-11.06 9.73-13.4s11.7-1.42 16.38 2.46l23.95 19.87c10.52 8.73 25.29 8.81 35.91.19.09-.07.18-.15.27-.23v32.68l-16.6-.54c-3.56-.16-6.8 1.89-8.27 5.12s-.87 7 1.55 9.61l45.8 49.41c2.36 2.55 5.7 4.02 9.15 4.03h.05c3.44 0 6.76-1.44 9.13-3.96l45.91-48.72c2.4-2.55 3.06-6.28 1.67-9.49zm-94.98-45.68c-6.86 5.57-16.41 5.53-23.22-.12l-23.95-19.87c-7.48-6.21-17.68-7.74-26.63-3.99-8.94 3.75-15 12.09-15.83 21.78l-2.63 31.03c-.75 8.81-7.41 15.66-16.2 16.63-15.01 1.67-30.23 1.73-45.23.17-8.79-.91-15.51-7.7-16.33-16.5l-2.88-30.99c-.9-9.68-7.03-17.98-16-21.65s-19.16-2.06-26.59 4.21l-23.78 20.06c-6.76 5.7-16.3 5.83-23.21.31-11.8-9.42-22.61-20.14-32.12-31.86-5.57-6.87-5.52-16.41.12-23.22l19.87-23.95c6.21-7.48 7.74-17.69 3.99-26.63s-12.09-15.01-21.78-15.83l-31.03-2.63c-8.82-.75-15.66-7.41-16.63-16.2-1.67-15.01-1.73-30.22-.17-45.22.91-8.79 7.7-15.51 16.5-16.33l31-2.88c9.68-.9 17.98-7.03 21.65-16s2.06-19.16-4.21-26.59l-20.06-23.78c-5.7-6.76-5.83-16.3-.31-23.21 9.42-11.8 20.14-22.61 31.86-32.12 6.86-5.58 16.41-5.52 23.21.12l23.95 19.87c7.48 6.21 17.68 7.74 26.63 3.99 8.94-3.75 15-12.09 15.83-21.78l2.63-31.03c.75-8.81 7.41-15.66 16.2-16.63 15.01-1.67 30.22-1.73 45.23-.17 8.79.91 15.51 7.7 16.33 16.5l2.88 30.99c.9 9.68 7.03 17.98 16 21.65 8.97 3.68 19.16 2.06 26.59-4.21l23.78-20.06c6.76-5.7 16.3-5.83 23.21-.31 11.8 9.42 22.61 20.14 32.12 31.86 5.57 6.87 5.52 16.41-.12 23.22l-19.87 23.95c-6.21 7.48-7.74 17.69-3.99 26.63s12.09 15.01 21.78 15.83l31.03 2.63c8.82.75 15.66 7.41 16.63 16.2 1.67 15.01 1.73 30.22.17 45.22-.91 8.79-7.7 15.51-16.5 16.33l-31 2.88c-9.68.9-17.98 7.03-21.65 16s-2.06 19.16 4.21 26.59l20.06 23.78c3.6 4.26 5.03 9.64 4.09 14.89h-16.51c-6.92 0-12.55 5.63-12.55 12.55v22.3c-2.15 1.9-4.34 3.78-6.57 5.59zm40.12 97.04c-.67.71-1.47.8-1.87.81-.41 0-1.19-.11-1.86-.83l-43.81-47.26 18.83.62c1.35.05 2.67-.46 3.64-1.4s1.52-2.24 1.52-3.59v-73.28c0-1.41 1.14-2.55 2.55-2.55h38.18c1.41 0 2.55 1.14 2.55 2.55v73.28c0 2.76 2.24 5 5 5h19.22z"/></svg>