<svg id="Layer_1" enable-background="new 0 0 500 500" viewBox="0 0 500 500" xmlns="http://www.w3.org/2000/svg"><path clip-rule="evenodd" d="m448.419 283.058c0 15.089-12.243 27.358-27.332 27.358s-27.357-12.268-27.357-27.358c0-15.089 12.268-27.363 27.357-27.363 6.499 0 12.475 2.283 17.207 6.085l-17.217 19.087-7.02-7.454c-2.433-2.588-6.514-2.712-9.107-.274-2.583 2.438-2.702 6.514-.264 9.107l11.809 12.542c1.219 1.292 2.918 2.025 4.685 2.025h.078c1.798-.02 3.507-.79 4.716-2.128l20.224-22.471c1.446 3.328 2.221 6.995 2.221 10.844zm-97.73 7.108c0 .165-.026.201-.186.253l-12.16 3.952c-2.164.703-3.802 2.5-4.293 4.722-2.185 9.789-6.023 19.041-11.406 27.513-1.219 1.927-1.338 4.35-.3 6.38l5.806 11.401c.077.15.067.196-.052.315l-4.639 4.634-17.883-30.979c7.707-11.271 11.767-24.387 11.767-38.2 0-37.462-30.483-67.939-67.939-67.939-37.467 0-67.939 30.478-67.939 67.939 0 13.813 4.06 26.929 11.762 38.2l-17.884 30.979-4.639-4.634c-.124-.119-.129-.165-.052-.315l5.817-11.401c1.028-2.03.914-4.453-.315-6.375-5.383-8.477-9.221-17.734-11.39-27.512-.501-2.226-2.133-4.024-4.303-4.727l-12.16-3.952c-.155-.052-.191-.088-.191-.253v-20.022c0-.16.036-.201.191-.253l12.16-3.952c2.17-.703 3.802-2.5 4.303-4.721 2.18-9.789 6.008-19.046 11.39-27.512 1.229-1.927 1.343-4.35.315-6.385l-5.817-11.401c-.078-.145-.072-.191.052-.305l7.067-7.077c.01 0 .01 0 .01-.005l.005-.005 7.067-7.072c.124-.114.165-.124.315-.046l11.401 5.806c2.025 1.033 4.453.92 6.38-.3 8.477-5.388 17.734-9.226 27.513-11.401 2.226-.501 4.019-2.133 4.722-4.298l3.952-12.165c.052-.155.093-.186.258-.186h20.017c.16 0 .207.031.258.186l3.946 12.165c.708 2.164 2.5 3.797 4.727 4.298 9.779 2.175 19.036 6.013 27.513 11.401 1.922 1.219 4.35 1.333 6.38.3l11.401-5.806c.15-.078.191-.067.31.046l7.077 7.077v.005l7.077 7.072c.119.119.129.165.052.31l-5.806 11.401c-1.038 2.035-.919 4.458.3 6.385 5.383 8.466 9.221 17.728 11.406 27.507.491 2.226 2.128 4.024 4.293 4.727l12.165 3.952c.155.052.181.093.181.253v20.02zm-156.345-10.011c0 9.024 2.138 17.672 6.23 25.472l15.719-27.223c7.02-12.15 19.082-19.118 33.112-19.118 14.025 0 26.087 6.968 33.102 19.118l15.724 27.223c4.086-7.8 6.235-16.448 6.235-25.472 0-30.359-24.702-55.056-55.061-55.056-30.364 0-55.061 24.697-55.061 55.056zm132.459 126.063c4.711-8.172 4.711-17.171 0-25.348l-55.449-96.03c-4.716-8.172-12.511-12.672-21.949-12.672s-17.233 4.5-21.954 12.672l-55.438 96.03c-4.727 8.177-4.727 17.176 0 25.348 4.711 8.172 12.511 12.677 21.944 12.677h110.887c9.437 0 17.232-4.504 21.959-12.677zm-249.085-95.803c-15.089 0-27.358-12.274-27.358-27.358 0-15.089 12.268-27.363 27.358-27.363 6.183 0 11.891 2.061 16.479 5.533l-17.692 19.64-7.02-7.454c-2.443-2.588-6.514-2.712-9.107-.274-2.583 2.438-2.712 6.514-.274 9.107l11.814 12.542c1.219 1.292 2.913 2.025 4.69 2.025h.077c1.798-.02 3.502-.79 4.706-2.128l21.04-23.364c1.699 3.559 2.65 7.537 2.65 11.736 0 15.085-12.279 27.358-27.363 27.358zm32.988-130.258c10.667 10.662 28.024 10.662 38.686.005.01 0 .01-.005.01-.005 0-.005.005-.005.005-.01 8.162-8.162 10.068-20.229 5.739-30.23l-21.417 23.778c-1.204 1.338-2.913 2.113-4.716 2.133-.016 0-.041 0-.067 0-1.767 0-3.471-.733-4.685-2.03l-11.819-12.542c-2.438-2.588-2.319-6.664.274-9.102 2.588-2.438 6.664-2.319 9.102.274l7.025 7.454 18.359-20.394c-4.99-4.014-11.07-6.028-17.15-6.028-7.005 0-14.014 2.665-19.346 8.002-10.662 10.666-10.662 28.023 0 38.695zm111.331-71.684c0-15.089 12.279-27.363 27.368-27.363 6.504 0 12.48 2.283 17.176 6.085l-19.222 21.34-7.02-7.454c-2.438-2.588-6.519-2.712-9.102-.268-2.593 2.438-2.717 6.514-.279 9.102l11.819 12.542c1.219 1.297 2.913 2.03 4.685 2.03.026 0 .046 0 .072-.005 1.803-.021 3.513-.79 4.711-2.128l22.269-24.728c1.441 3.327 2.247 6.994 2.247 10.848 0 15.084-12.268 27.358-27.357 27.358-15.088-.002-27.367-12.275-27.367-27.359zm131.467 32.988c-10.662 10.667-10.662 28.024 0 38.696 10.667 10.667 28.029 10.667 38.696 0 5.166-5.171 8.012-12.041 8.012-19.35 0-4.246-.966-8.337-2.784-12.041l-20.658 22.941c-1.204 1.338-2.913 2.113-4.716 2.128-.015 0-.041 0-.067 0-1.767 0-3.471-.729-4.69-2.02l-11.814-12.547c-2.438-2.588-2.319-6.664.274-9.102 2.583-2.438 6.664-2.319 9.102.274l7.025 7.454 17.207-19.113c-4.68-3.461-10.311-5.331-16.236-5.331-7.31-.001-14.18 2.84-19.351 8.011zm107.364 114.456c2.376-2.64 2.17-6.715-.465-9.097-2.635-2.376-6.716-2.164-9.092.48l-4.443 4.908c-6.974-5.858-15.967-9.396-25.782-9.396-18.979 0-34.915 13.203-39.14 30.901h-18.374v-3.57c0-5.713-3.652-10.739-9.087-12.501l-8.74-2.841c-2.294-8.72-5.734-17.047-10.295-24.837l4.179-8.198c2.593-5.088 1.622-11.22-2.423-15.265l-2.521-2.521 12.331-12.33c7.454 6.245 16.639 9.381 25.839 9.381 10.305 0 20.606-3.921 28.458-11.767 7.599-7.604 11.778-17.708 11.778-28.458 0-7.976-2.309-15.595-6.602-22.099l5.197-5.765c2.376-2.645 2.164-6.715-.48-9.097-2.64-2.376-6.705-2.17-9.097.475l-4.381 4.866c-15.781-12.434-38.779-11.385-53.33 3.167-13.415 13.415-15.347 34.021-5.822 49.523l-13.002 12.992-2.516-2.521c-4.045-4.039-10.177-5.011-15.27-2.418l-8.198 4.179c-7.79-4.556-16.117-8.007-24.837-10.295l-2.841-8.746c-1.762-5.429-6.783-9.081-12.501-9.081h-3.564v-17.796c19.129-3.094 33.799-19.723 33.799-39.719 0-7.707-2.18-14.908-5.951-21.035l3.466-3.854c2.381-2.64 2.164-6.715-.48-9.091-2.634-2.382-6.715-2.17-9.091.475l-2.387 2.65c-6.989-5.858-15.988-9.391-25.797-9.391-22.187 0-40.246 18.054-40.246 40.246 0 19.996 14.665 36.625 33.804 39.719v17.796h-3.57c-5.713 0-10.744 3.652-12.506 9.081l-2.841 8.746c-8.715 2.288-17.047 5.739-24.832 10.295l-8.203-4.179c-5.083-2.593-11.22-1.622-15.259 2.418l-2.521 2.521-10.538-10.528c9.531-13.198 10.063-30.906 1.633-44.616l4.318-4.794c2.382-2.645 2.164-6.715-.48-9.097-2.635-2.381-6.705-2.17-9.092.475l-3.239 3.601c-15.802-13.193-39.409-12.382-54.24 2.443-15.683 15.688-15.683 41.217 0 56.911 7.852 7.842 18.157 11.767 28.458 11.767 8.27 0 16.541-2.531 23.54-7.583l10.528 10.533-2.526 2.521c-4.034 4.039-5.006 10.176-2.412 15.265l4.174 8.198c-4.551 7.79-8.002 16.117-10.29 24.837l-8.746 2.841c-5.44 1.762-9.087 6.788-9.087 12.501v3.57h-18.374c-1.074-4.494-2.903-8.699-5.352-12.47l4.799-5.326c2.381-2.64 2.164-6.715-.47-9.097-2.645-2.376-6.716-2.17-9.102.48l-3.91 4.339c-6.886-5.517-15.611-8.828-25.105-8.828-22.192 0-40.241 18.054-40.241 40.246 0 22.187 18.049 40.241 40.241 40.241 20.993 0 38.278-16.169 40.076-36.703h17.439v3.57c0 5.713 3.647 10.739 9.087 12.501l8.74 2.841c2.294 8.72 5.744 17.047 10.295 24.837l-4.174 8.193c-2.593 5.093-1.622 11.225 2.412 15.27l7.077 7.077-7.821 13.55c-7.01 12.145-7.01 26.082 0 38.226 7.015 12.15 19.077 19.113 33.107 19.113h110.887c14.035 0 26.097-6.963 33.112-19.113 7.01-12.145 7.01-26.082 0-38.226l-7.821-13.55 7.072-7.077c4.045-4.045 5.016-10.177 2.423-15.27l-4.179-8.193c4.561-7.79 8.002-16.117 10.295-24.837l8.74-2.841c5.435-1.762 9.087-6.788 9.087-12.501v-3.57h17.439c1.792 20.534 19.077 36.703 40.075 36.703 22.166 0 40.246-18.054 40.246-40.241 0-7.707-2.17-14.908-5.941-21.029zm-211.463 145.28c-3.776 0-6.85-3.074-6.85-6.85s3.074-6.85 6.85-6.85c3.771 0 6.845 3.074 6.845 6.85-.001 3.777-3.074 6.85-6.845 6.85zm0-26.577c10.874 0 19.723 8.849 19.723 19.728s-8.849 19.728-19.723 19.728c-10.879 0-19.733-8.849-19.733-19.728s8.854-19.728 19.733-19.728zm3.409-19.743 6.746-44.146c-.016-.01-.031-.026-.047-.041-.79-.625-1.916-.945-3.342-.945h-13.534c-1.431 0-2.557.32-3.347.945-.016.015-.036.031-.052.041l6.747 44.146c.372.263 1.265.656 2.552.656h1.726c1.291 0 2.184-.393 2.551-.656zm14.753-54.235c-3.084-2.474-7.025-3.781-11.396-3.781h-13.534c-4.38 0-8.322 1.307-11.401 3.781-3.719 2.981-5.47 7.18-4.809 11.52l6.891 45.081c.992 6.473 7.387 11.168 15.218 11.168h1.726c7.831 0 14.231-4.701 15.218-11.168l6.896-45.081c.662-4.34-1.089-8.54-4.809-11.52z" fill-rule="evenodd"/></svg>