<?xml version="1.0" encoding="UTF-8"?>
<svg version="1.1" xmlns="http://www.w3.org/2000/svg" width="1746" height="2012">
<path d="M0 0 C1.40465026 -0.00445668 1.40465026 -0.00445668 2.8376773 -0.0090034 C5.97730926 -0.01767889 9.11690303 -0.01919768 12.25654602 -0.02069092 C14.50704022 -0.02531992 16.75753363 -0.03034469 19.00802612 -0.03573608 C25.12390862 -0.04885453 31.23978014 -0.05530402 37.35567451 -0.05974674 C41.1775151 -0.06267848 44.9993527 -0.06678349 48.82119179 -0.07125092 C59.41135756 -0.08335835 70.00152071 -0.09374077 80.59169292 -0.09712601 C81.26905229 -0.09734557 81.94641165 -0.09756514 82.64429705 -0.09779136 C83.66271147 -0.09811878 83.66271147 -0.09811878 84.70169991 -0.09845281 C86.07740382 -0.09889627 87.45310774 -0.09934283 88.82881165 -0.09979248 C89.51120243 -0.10001391 90.19359322 -0.10023534 90.89666251 -0.10046348 C101.94737973 -0.10440931 112.99803092 -0.12185781 124.04872265 -0.145152 C135.40555885 -0.16889745 146.76235082 -0.18107162 158.11921626 -0.18249393 C164.49111382 -0.18354144 170.86291824 -0.18943797 177.23479271 -0.20731354 C183.23070705 -0.22380715 189.22645835 -0.22594334 195.22238731 -0.21717453 C197.41933631 -0.21640484 199.61629413 -0.22073782 201.81322098 -0.23063278 C204.82025358 -0.24337886 207.82671103 -0.23746081 210.83374023 -0.22705078 C211.69611933 -0.23510719 212.55849842 -0.24316359 213.44701022 -0.25146413 C221.74706829 -0.18459914 230.05474394 1.34923838 236.19526672 7.30059814 C242.00635536 14.24735639 243.29041099 20.70725568 243.30073547 29.64825439 C242.04233434 37.40694828 237.3345185 43.39678064 232.73432922 49.57794189 C231.56681435 51.16976805 230.40016728 52.762231 229.23432922 54.35528564 C228.64780579 55.15434326 228.06128235 55.95340088 227.45698547 56.77667236 C224.83980051 60.36788337 222.28595466 64.00250196 219.73432922 67.64044189 C215.0738268 74.27026825 210.3448752 80.84774068 205.58979797 87.40997314 C201.4346761 93.1517764 197.33832906 98.93280298 193.2648468 104.73272705 C190.09055484 109.24408672 186.87021284 113.71901817 183.62251282 118.17779541 C169.1000361 137.18607834 169.1000361 137.18607834 165.73432922 160.14044189 C166.70922827 165.06835378 168.06798176 169.87239054 169.46089172 174.69512939 C169.85131212 176.08607103 170.24047589 177.47736591 170.62846375 178.86898804 C171.64929515 182.51737829 172.68710938 186.16071727 173.72871399 189.80322266 C174.76579378 193.44133308 175.78639489 197.08405309 176.80854797 200.72637939 C179.71899452 211.07924909 182.64534243 221.42745966 185.65913391 231.75079346 C185.9434024 232.72904083 186.2276709 233.70728821 186.52055359 234.71517944 C187.03493256 236.48114521 187.55379604 238.24581421 188.07823181 240.00881958 C189.11182234 243.55828163 189.73432922 246.41260454 189.73432922 250.14044189 C190.39432922 250.14044189 191.05432922 250.14044189 191.73432922 250.14044189 C191.99230286 249.29094971 192.25027649 248.44145752 192.5160675 247.56622314 C193.79641072 243.96586724 195.41713722 240.67975065 197.22651672 237.32794189 C197.56829956 236.68612976 197.9100824 236.04431763 198.26222229 235.38305664 C199.37332279 233.29968836 200.49116194 231.22002459 201.60932922 229.14044189 C202.3868149 227.68650322 203.16399324 226.23240016 203.94087219 224.77813721 C208.67494316 215.92724146 213.45514918 207.10178279 218.2792511 198.29962158 C222.26665775 191.02003453 226.19478797 183.7094248 230.10932922 176.39044189 C230.42548187 175.7993866 230.74163452 175.2083313 231.06736755 174.59936523 C231.38358063 174.00818909 231.6997937 173.41701294 232.02558899 172.80792236 C232.6641712 171.61407028 233.3027617 170.42022262 233.94136047 169.22637939 C234.41582359 168.33932816 234.41582359 168.33932816 234.89987183 167.43435669 C239.91308816 158.06473258 244.95912557 148.71273798 250.0004425 139.35821533 C252.91303187 133.95298753 255.82357152 128.54665622 258.73432922 123.14044189 C259.90098619 120.97377 261.06765285 118.80710333 262.23432922 116.64044189 C262.81182922 115.56794189 263.38932922 114.49544189 263.98432922 113.39044189 C270.40099589 101.47377523 276.81766256 89.55710856 283.23432922 77.64044189 C284.10154602 76.0295166 284.10154602 76.0295166 284.98628235 74.38604736 C286.14558351 72.23356837 287.30573095 70.08154495 288.4667511 67.92999268 C291.18165288 62.8964304 293.88831367 57.85899451 296.56391907 52.80444336 C297.50792616 51.02207903 298.45469358 49.24120843 299.40229797 47.46075439 C300.58748334 45.23189834 301.76752478 43.00029612 302.94136047 40.76544189 C307.91843179 31.42897876 313.18738688 21.6441165 323.63667297 17.69512939 C351.01393263 10.45570505 394.28020138 38.54788257 416.88276672 51.65606689 C428.56174933 58.5867353 439.82926633 66.04912616 450.73432922 74.14044189 C451.3185968 74.5730835 451.90286438 75.0057251 452.50483704 75.45147705 C460.86300062 81.67823716 468.88378954 88.28965257 476.73432922 95.14044189 C478.05884094 96.29479736 478.05884094 96.29479736 479.41011047 97.47247314 C486.10785608 103.47233499 492.50440269 109.78330902 498.88526917 116.1161499 C499.89249154 117.11533051 500.90118953 118.1130263 501.91151428 119.10906982 C507.98637851 125.10713969 513.65730915 131.25679107 518.9679718 137.94317627 C520.69743557 140.17560085 520.69743557 140.17560085 522.73432922 142.14044189 C525.16830525 142.14154321 525.16830525 142.14154321 528.0216217 141.69351196 C529.151451 141.55352594 530.28128029 141.41353992 531.44534683 141.2693119 C533.3262105 141.03222291 533.3262105 141.03222291 535.24507141 140.79034424 C554.03350172 138.62601725 572.78189674 138.69835155 591.67102146 138.73746538 C596.61015826 138.74521891 601.54928088 138.73797441 606.48841858 138.73330688 C614.76833662 138.72789594 623.04817358 138.73491883 631.32807922 138.74932861 C640.82470026 138.76566771 650.32112807 138.7603384 659.81774449 138.7438494 C668.05989303 138.73012588 676.30198428 138.72836668 684.54414058 138.7361654 C689.4283417 138.74078012 694.31245275 138.74164183 699.19664764 138.73155594 C766.00287013 138.61255986 828.04339303 153.56217852 879.73432922 198.14044189 C880.46780579 198.76305908 881.20128235 199.38567627 881.95698547 200.02716064 C895.23715294 211.62168078 908.07254729 224.16534687 918.47944641 238.42803955 C919.8061112 240.23839497 921.16231236 242.02381141 922.52339172 243.80841064 C928.90100025 252.23584726 934.59376812 260.90783096 939.73432922 270.14044189 C940.19452454 270.96511963 940.65471985 271.78979736 941.12886047 272.63946533 C966.45106212 318.49002174 977.23576319 366.95627065 977.13838196 419.07037354 C977.14246728 421.87565979 977.15097247 424.68092924 977.15917969 427.48620605 C977.17618115 434.24666673 977.17724807 441.00703373 977.17196678 447.76751018 C977.1678927 453.26688049 977.16940654 458.76622353 977.17471504 464.26559258 C977.17546346 465.05411444 977.17621189 465.8426363 977.17698299 466.65505276 C977.17851473 468.25778172 977.18005308 469.86051066 977.18159796 471.4632396 C977.19525244 486.41301784 977.18993269 501.3627434 977.17841274 516.31252038 C977.16846216 529.95424462 977.18146505 543.59583358 977.20534693 557.23753697 C977.22978551 571.3048141 977.23933571 585.37202832 977.23269421 599.43932623 C977.22921583 607.31347852 977.2313435 615.1875266 977.24894524 623.06166267 C977.26372597 629.75549545 977.26422521 636.44915036 977.24687432 643.14297987 C977.23841453 646.54979299 977.23829455 649.956031 977.25152588 653.36286736 C977.31193056 670.20877262 977.21359812 686.25063744 968.98432922 701.45294189 C968.46890564 702.43919556 968.46890564 702.43919556 967.94306946 703.44537354 C957.31128904 723.27796597 940.56640411 737.58557168 919.03511047 744.29278564 C907.18991736 747.66936332 896.0586161 748.28746646 883.8105011 748.2822876 C882.31640521 748.28532453 880.82231025 748.28884745 879.32821655 748.29281616 C876.12643331 748.30066277 872.92466099 748.30583388 869.72286987 748.30910683 C864.65369819 748.31505196 859.5845954 748.33162361 854.51545715 748.35044861 C852.77529148 748.35678466 851.03512577 748.3631103 849.29496002 748.36942577 C848.42394496 748.37259158 847.5529299 748.3757574 846.65552044 748.37901914 C834.86620946 748.42099754 823.07693272 748.45408346 811.28755188 748.46636963 C803.31732626 748.47476063 795.34727379 748.49728298 787.3771348 748.5357253 C783.16661624 748.5554377 778.95635621 748.56790627 774.74578857 748.56289101 C770.78602218 748.55823096 766.82674634 748.57212324 762.86707878 748.59990311 C761.41956632 748.60679001 759.97200287 748.6069685 758.52449226 748.59970284 C747.45342536 748.54977016 738.89027482 750.05444819 730.71211243 757.9006958 C724.21657011 765.25659078 721.29419339 775.67136986 718.2106781 784.80636597 C710.71496508 806.92686875 701.342168 828.14240385 691.46089172 849.29278564 C690.55166206 851.24182927 689.64280439 853.19104648 688.73432922 855.14044189 C688.26349915 856.1486499 687.79266907 857.15685791 687.30757141 858.19561768 C686.85801086 859.16869873 686.40845032 860.14177979 685.94526672 861.14434814 C685.54356262 862.01003418 685.14185852 862.87572021 684.72798157 863.76763916 C681.35867155 871.81341902 682.04758081 879.55522572 685.27339172 887.52325439 C689.79079872 895.61593539 696.26231257 901.92144853 702.8195343 908.37335205 C703.83090733 909.37595725 704.84179357 910.37905368 705.85223389 911.38259888 C708.0167735 913.53074284 710.18425247 915.67585948 712.35399818 917.81874466 C715.79574871 921.21881091 719.22798357 924.62837718 722.65856934 928.03970337 C732.41116278 937.73497864 742.17371367 947.42014849 751.95137024 957.09014893 C757.36101805 962.44039671 762.76140508 967.79982086 768.15212744 973.16913831 C771.54830712 976.55081849 774.95516668 979.92120616 778.37077105 983.28325963 C780.50880257 985.39320896 782.63593583 987.51390042 784.76037025 989.63753128 C786.19218696 991.0627288 787.63641347 992.47542645 789.08122253 993.88745117 C805.92888065 1010.81147059 815.05413168 1031.75980652 815.23432922 1055.64044189 C814.94551384 1085.23850701 800.82964173 1105.51458654 780.55415344 1125.74053955 C779.12682862 1127.17521758 777.70012359 1128.61051245 776.27398682 1130.04637146 C772.42336284 1133.91908743 768.56327686 1137.7822343 764.70064306 1141.6429677 C761.4652881 1144.8782024 758.2342978 1148.11777955 755.00316155 1151.35722673 C747.37402853 1159.00554931 739.73680027 1166.64572203 732.09468079 1174.28106689 C724.23681029 1182.13229904 716.39380866 1189.99816511 708.55782497 1197.87123644 C701.80559146 1204.65425438 695.04363493 1211.42747406 688.27404988 1218.19317472 C684.24159545 1222.22357083 680.21292582 1226.25756878 676.19382858 1230.3012886 C672.41118272 1234.10634383 668.61645314 1237.89893552 664.81250191 1241.68268776 C663.42721849 1243.06458625 662.0460912 1244.45066718 660.66972542 1245.84144783 C642.26015332 1264.43029268 621.52694692 1276.42878044 594.79682922 1276.64044189 C567.41237376 1276.36041975 547.0156223 1265.05383984 527.98970032 1245.6729126 C526.96889781 1244.64469311 525.94738659 1243.61717683 524.92523193 1242.59030151 C522.74608817 1240.39840281 520.57164191 1238.20199044 518.40081406 1236.00185585 C514.96182642 1232.51708216 511.51049243 1229.04470773 508.05723572 1225.57408142 C499.48813967 1216.95817256 490.93449683 1208.32696671 482.38514709 1199.69146729 C475.72516502 1192.96465703 469.06067408 1186.24245214 462.38221228 1179.53398198 C458.95469673 1176.09004764 455.53674882 1172.63698333 452.12592673 1169.17651904 C449.99808307 1167.02188204 447.86181915 1164.87574441 445.72322273 1162.73178482 C444.73976002 1161.74247025 443.75972009 1160.74973838 442.78355598 1159.75322151 C434.38945423 1151.19036512 425.91061651 1144.44844705 413.48432922 1143.76544189 C403.8860987 1144.09221743 394.90588034 1149.38410763 386.48432922 1153.57794189 C364.10684504 1164.47625317 341.18303604 1173.63536194 317.66279602 1181.73980713 C304.53788798 1186.23198028 304.53788798 1186.23198028 293.92182922 1194.95294189 C293.37913391 1195.55751221 292.8364386 1196.16208252 292.27729797 1196.78497314 C287.07568831 1204.72565827 287.30125336 1212.56206939 287.33369446 1221.76373291 C287.32794428 1223.2380987 287.32085838 1224.71245979 287.31254578 1226.18681335 C287.29748369 1229.35044783 287.29165406 1232.51391409 287.29307365 1235.67758369 C287.29511764 1240.69377524 287.27546845 1245.7097432 287.25289917 1250.72587585 C287.21198808 1260.48059752 287.19334968 1270.23530137 287.17672729 1279.99008942 C287.15435616 1292.38059456 287.12051323 1304.77104717 287.06952816 1317.16146797 C287.04976775 1322.13324715 287.04003728 1327.10490919 287.03857601 1332.07672608 C287.03579619 1335.19023211 287.02490195 1338.3036751 287.01206589 1341.41715431 C287.00784022 1342.84441788 287.00688888 1344.27169619 287.00974083 1345.69896317 C287.05765568 1372.82184561 280.43025832 1395.79938416 261.20698547 1415.76544189 C246.44601261 1429.98452882 226.84657702 1438.48590493 206.28739929 1438.40786743 C204.94394422 1438.4146641 204.94394422 1438.4146641 203.57334864 1438.42159808 C200.60140153 1438.43415951 197.62963962 1438.43262707 194.65766907 1438.43096924 C192.51469185 1438.43695972 190.37171677 1438.44376646 188.22874451 1438.45132446 C182.4267829 1438.46894054 176.62488034 1438.47367805 170.82289457 1438.47495604 C167.19143408 1438.4763809 163.55998844 1438.48065689 159.92853165 1438.48595047 C147.24057823 1438.50443757 134.55266675 1438.5126229 121.86470032 1438.51104736 C110.06887233 1438.50984695 98.2732276 1438.53093322 86.47744596 1438.56253469 C76.3250526 1438.58875663 66.17271886 1438.59941215 56.02029192 1438.59813654 C49.96794917 1438.59762857 43.91576933 1438.60322022 37.86346054 1438.62449265 C32.16535068 1438.64397437 26.46755745 1438.64393187 20.76943588 1438.62945938 C18.68949415 1438.62738234 16.60953208 1438.63200547 14.52962494 1438.6441803 C-0.57221334 1438.72678606 -14.99109016 1437.74450533 -28.57817078 1430.39044189 C-29.23494812 1430.04755127 -29.89172546 1429.70466064 -30.56840515 1429.35137939 C-50.51794639 1418.66482162 -64.5733003 1401.89261009 -71.48442078 1380.33966064 C-74.9645645 1368.2621338 -75.41285621 1356.7044737 -75.40751648 1344.19488525 C-75.41055434 1342.71049395 -75.41407751 1341.22610358 -75.41804504 1339.74171448 C-75.42588391 1336.5639581 -75.43105976 1333.38621269 -75.43433571 1330.20844841 C-75.44028676 1325.17700201 -75.45686334 1320.1456248 -75.47567749 1315.11421204 C-75.48201327 1313.38627151 -75.48833891 1311.65833095 -75.49465466 1309.93039036 C-75.49782047 1309.06558996 -75.50098628 1308.20078957 -75.50424802 1307.3097831 C-75.54621291 1295.61036285 -75.57931717 1283.91097744 -75.59159851 1272.21148682 C-75.59998962 1264.29875204 -75.62251083 1256.38619168 -75.66095418 1248.47354418 C-75.6806633 1244.29433916 -75.69313618 1240.11539452 -75.68811989 1235.93614006 C-75.68345976 1232.00672761 -75.69735252 1228.07780948 -75.72513199 1224.14849663 C-75.73201827 1222.71227135 -75.73219805 1221.27599468 -75.72493172 1219.83977127 C-75.6747743 1208.80664135 -77.20803191 1200.26683316 -85.02592468 1192.1182251 C-92.38181966 1185.62268278 -102.79659874 1182.70030606 -111.93159485 1179.61679077 C-134.05209763 1172.12107776 -155.26763273 1162.74828067 -176.41801453 1152.86700439 C-178.36705815 1151.95777473 -180.31627536 1151.04891706 -182.26567078 1150.14044189 C-183.27387878 1149.66961182 -184.28208679 1149.19878174 -185.32084656 1148.71368408 C-186.29392761 1148.26412354 -187.26700867 1147.81456299 -188.26957703 1147.35137939 C-189.13526306 1146.94967529 -190.0009491 1146.54797119 -190.89286804 1146.13409424 C-198.12834644 1143.10411203 -205.60507218 1143.27046709 -212.89702129 1146.0893755 C-221.63725913 1149.96777556 -228.10552876 1156.58476108 -234.7039032 1163.31744385 C-235.7162912 1164.33888398 -236.72939405 1165.35961603 -237.7431488 1166.37969971 C-239.91134149 1168.56405218 -242.07486924 1170.75288284 -244.23489952 1172.94530678 C-247.6620858 1176.42302095 -251.10212236 1179.88783611 -254.54431152 1183.35069275 C-263.71033688 1192.57562523 -272.86024072 1201.81649054 -282.00110847 1211.06634921 C-288.01326408 1217.1500934 -294.03275601 1223.22637396 -300.06600457 1229.28920716 C-303.47736344 1232.71845588 -306.87702621 1236.15874291 -310.26793802 1239.60820544 C-312.39538969 1241.76696115 -314.53357493 1243.91484718 -316.6746521 1246.06008148 C-318.11181464 1247.5061785 -319.53640736 1248.96473539 -320.96032715 1250.4238739 C-337.89448561 1267.30972955 -358.84719666 1276.45995882 -382.76567078 1276.64044189 C-412.36373589 1276.35162651 -432.63981542 1262.2357544 -452.86576843 1241.96026611 C-454.30044647 1240.53294129 -455.73574133 1239.10623626 -457.17160034 1237.68009949 C-461.04431631 1233.82947551 -464.90746319 1229.96938953 -468.76819658 1226.10675573 C-472.00343128 1222.87140077 -475.24300843 1219.64041047 -478.48245561 1216.40927422 C-486.13077819 1208.7801412 -493.77095091 1201.14291294 -501.40629578 1193.50079346 C-509.25752792 1185.64292296 -517.12339399 1177.79992133 -524.99646533 1169.96393764 C-531.77948327 1163.21170413 -538.55270294 1156.4497476 -545.3184036 1149.68016255 C-549.34879971 1145.64770812 -553.38279766 1141.6190385 -557.42651749 1137.59994125 C-561.23157271 1133.81729539 -565.0241644 1130.02256581 -568.80791664 1126.21861458 C-570.18981514 1124.83333116 -571.57589606 1123.45220387 -572.96667671 1122.07583809 C-591.78365874 1103.440329 -603.56187936 1082.64784884 -603.76567078 1055.64044189 C-603.50104659 1028.52151314 -591.88478353 1008.14855892 -572.79814148 989.37994385 C-571.76993121 988.35750846 -570.74241465 987.33437507 -569.7155304 986.31060791 C-567.5236754 984.12814972 -565.32727254 981.95041853 -563.12708473 979.77636147 C-559.64275682 976.33299342 -556.17025213 972.87785894 -552.6993103 969.42100525 C-545.33450837 962.08932766 -537.95701279 954.7704848 -530.57817078 947.45294189 C-522.598792 939.53978337 -514.62172041 931.62437482 -506.65921086 923.69423646 C-503.21343739 920.26333886 -499.76050278 916.83987167 -496.30174792 913.42206347 C-494.14874804 911.29154504 -492.00207483 909.15473605 -489.8570137 907.01622772 C-488.8668228 906.03162031 -487.8740582 905.04959283 -486.87845039 904.07046318 C-478.24717345 895.57750541 -471.50594292 887.97374966 -470.89067078 875.39044189 C-471.20364354 865.27500166 -476.63306208 856.12244129 -481.07817078 847.26544189 C-492.38206386 824.23081812 -501.87877432 800.24085194 -510.03398132 775.91802979 C-513.49088405 765.79507798 -517.64445703 757.35624005 -527.30129147 752.01440525 C-534.85855089 748.6374245 -542.01514123 748.58204184 -550.17607117 748.64215088 C-551.65733891 748.63832034 -553.13860292 748.63269506 -554.61985779 748.62542725 C-557.79279317 748.61353563 -560.96539726 748.61392043 -564.13833809 748.62402153 C-569.17206654 748.63969276 -574.2054607 748.62582574 -579.23916626 748.60798645 C-589.0286317 748.57724585 -598.81799338 748.57566048 -608.60749817 748.57763672 C-621.04198774 748.57903149 -633.47639618 748.5683992 -645.91082758 748.52905899 C-650.89717772 748.51426623 -655.88322639 748.51428989 -660.86958039 748.52653682 C-663.99521447 748.53130526 -667.1207373 748.52363994 -670.24635315 748.51299286 C-671.67601041 748.51062142 -673.10568767 748.51319601 -674.53532219 748.52160072 C-698.80404315 748.65552963 -720.76179137 742.35454358 -739.26567078 726.14044189 C-739.95403015 725.54747314 -740.64238953 724.95450439 -741.35160828 724.34356689 C-755.71536312 711.058513 -764.7552136 690.5758369 -765.63465691 671.17283821 C-765.82922703 663.90732724 -765.79560458 656.64246223 -765.76737976 649.37506104 C-765.76896084 646.5857028 -765.77652225 643.79636759 -765.78375244 641.00701904 C-765.79760646 634.24828061 -765.79018523 627.48973044 -765.77507686 620.73100115 C-765.75810239 612.83229599 -765.76144177 604.93363626 -765.76517094 597.03491848 C-765.77103611 582.91893223 -765.75693566 568.80303542 -765.73222351 554.68707275 C-765.70834785 541.04706462 -765.70120501 527.40717615 -765.7117157 513.76715088 C-765.72318027 498.86287766 -765.72498391 483.95865966 -765.7106176 469.05438703 C-765.70909204 467.45812222 -765.70757168 465.8618574 -765.70605659 464.26559258 C-765.70491987 463.08799951 -765.70491987 463.08799951 -765.70376019 461.8866167 C-765.69905669 456.40636232 -765.70084082 450.92613293 -765.70512199 445.44587898 C-765.71010023 438.74221853 -765.70384009 432.03867018 -765.6842277 425.33503509 C-765.67449696 421.92726048 -765.67075233 418.51979295 -765.67712021 415.11198997 C-765.78121525 351.34493668 -746.81112017 286.3947628 -705.58061218 236.73175049 C-704.3253807 235.21270132 -703.09749905 233.67117534 -701.87113953 232.12872314 C-695.91698966 224.80558763 -689.41599317 218.08461643 -682.76567078 211.39044189 C-681.89958191 210.51508789 -681.03349304 209.63973389 -680.14115906 208.737854 C-674.15951198 202.78491613 -667.89666875 197.35723987 -661.26567078 192.14044189 C-660.62194519 191.63206787 -659.9782196 191.12369385 -659.31498718 190.59991455 C-607.73355197 150.50404425 -548.55435659 138.60633935 -484.6314199 138.73746538 C-479.66296681 138.74519781 -474.69452818 138.73797919 -469.72607422 138.73330688 C-461.38776108 138.72788653 -453.04952829 138.73494048 -444.71122742 138.74932861 C-435.15453786 138.76563166 -425.59804066 138.76036841 -416.04135579 138.7438494 C-407.75083386 138.73010783 -399.46036887 138.72837637 -391.1698392 138.7361654 C-386.25586074 138.74077529 -381.34197174 138.74165676 -376.4279995 138.73155594 C-370.93327908 138.72159667 -365.43881731 138.72937502 -359.94413757 138.7522583 C-359.08282364 138.75509992 -358.22150971 138.75794154 -357.33409536 138.76086926 C-348.65895257 138.8053636 -340.08203514 139.02260391 -331.4589386 140.02172852 C-330.77730229 140.10050008 -330.09566598 140.17927164 -329.39337403 140.26043022 C-326.26510768 140.63570499 -323.15470975 141.06417631 -320.04321575 141.5604496 C-313.21348455 142.59738343 -313.21348455 142.59738343 -307.18734741 139.75411987 C-304.71334867 137.46032753 -303.02332905 134.86861804 -301.3613739 131.92730713 C-296.68213922 124.2964429 -289.3882372 118.07672484 -283.0879364 111.77740479 C-281.52706751 110.21435456 -279.9743919 108.64346824 -278.42192078 107.07208252 C-272.02775267 100.64207927 -265.38097225 94.7778853 -258.26567078 89.14044189 C-256.97166591 88.06799621 -255.68090289 86.99161733 -254.39457703 85.90997314 C-221.15394907 58.22936176 -162.62953889 16.25400623 -117.43363953 16.80450439 C-109.32638709 17.66421304 -104.13210577 21.76330803 -99.01249695 27.80743408 C-95.98797568 31.84689254 -93.80955684 36.25383537 -91.57817078 40.76544189 C-90.53053532 42.82757752 -89.48100914 44.88875352 -88.42973328 46.94903564 C-87.90282898 47.98656982 -87.37592468 49.024104 -86.83305359 50.09307861 C-84.45493374 54.71670663 -81.96027415 59.27332167 -79.45317078 63.82794189 C-74.88339661 72.15622525 -70.37027248 80.5133231 -65.89067078 88.89044189 C-64.61338225 91.27849227 -63.33603513 93.66651129 -62.05863953 96.05450439 C-61.7423056 96.64591721 -61.42597168 97.23733002 -61.10005188 97.84666443 C-57.81194438 103.99210484 -54.50893356 110.12948546 -51.20317078 116.26544189 C-50.6296991 117.32988525 -50.05622742 118.39432861 -49.46537781 119.49102783 C-48.31018272 121.63495026 -47.15490947 123.77883057 -45.9995575 125.92266846 C-42.50244862 132.41265649 -39.00810999 138.90413657 -35.51322937 145.39532471 C-32.60998705 150.78740732 -29.70611999 156.17915137 -26.80082703 161.57012939 C-20.14568914 173.92110601 -13.5079848 186.28126196 -6.88676453 198.65045166 C-1.96385191 207.84437557 2.97857141 217.0276845 7.92622375 226.20831299 C12.21772346 234.17398235 16.48870242 242.15022499 20.73432922 250.14044189 C23.86922525 242.4383911 25.92626272 234.45048249 28.07807922 226.43341064 C28.49224718 224.90168662 28.90676354 223.37005677 29.3216095 221.83851624 C30.408873 217.82091489 31.49151406 213.80208244 32.57313538 209.78295898 C33.66710477 205.72104346 34.76530924 201.6602737 35.86323547 197.59942627 C37.10163237 193.01800317 38.33959156 188.43646496 39.57453918 183.85411072 C39.8564327 182.8082579 39.8564327 182.8082579 40.14402103 181.74127674 C40.50719596 180.3933333 40.87012104 179.04532251 41.23277187 177.69723797 C42.52660997 172.89254598 43.84786685 168.09582115 45.18844604 163.30397034 C47.39459347 154.56022644 45.89345661 146.00185887 41.73432922 138.14044189 C35.55633557 128.06118161 28.41501568 118.59493583 21.2558136 109.20025635 C16.81788498 103.34530235 12.70243019 97.29276233 8.58979797 91.20684814 C5.10487221 86.07510782 1.49545755 81.07273345 -2.26567078 76.14044189 C-7.2976394 69.53994821 -12.01772621 62.76037966 -16.6672821 55.88604736 C-20.24167364 50.60642653 -23.9169429 45.44262373 -27.77738953 40.36700439 C-32.19827661 33.75307884 -32.08220208 26.86802677 -31.26567078 19.14044189 C-28.76985767 11.02101557 -24.46777096 6.541642 -17.20317078 2.39044189 C-11.49549099 -0.03835801 -6.10594171 -0.00605666 0 0 Z M43.73432922 51.14044189 C47.99053713 57.8287686 52.18833288 64.33474076 56.85932922 70.70294189 C57.41209534 71.46324707 57.96486145 72.22355225 58.53437805 73.00689697 C60.26477139 75.38689097 61.99910374 77.76396927 63.73432922 80.14044189 C96.81742113 125.47406682 96.81742113 125.47406682 96.98432922 154.07794189 C97.00495422 154.92678955 97.02557922 155.77563721 97.04682922 156.65020752 C97.14148553 172.65895604 91.59920277 188.49276525 87.37886047 203.77325439 C86.75168058 206.05876655 86.12495536 208.34440353 85.49865723 210.63015747 C83.85412899 216.62724115 82.20340719 222.62260258 80.55134583 228.61761475 C78.89693655 234.62547871 77.24858577 240.63500382 75.5995636 246.64434814 C74.63418397 250.16009694 73.66863389 253.67579888 72.70304489 257.19149017 C72.07197877 259.489723 71.44117137 261.78802687 70.81062698 264.08640289 C67.90768605 274.66696803 65.00347834 285.2461061 61.98970032 295.79571533 C61.59754109 297.17780798 61.20557814 298.55995634 60.81384277 299.94216919 C60.13099561 302.34216049 59.43938144 304.73968575 58.73648071 307.13388062 C58.44919601 308.1465097 58.16191132 309.15913879 57.86592102 310.20245361 C57.61980576 311.04831024 57.37369049 311.89416687 57.12011719 312.76565552 C56.24998891 318.12188475 58.63713115 322.27281469 61.12886047 326.85528564 C61.47205826 327.49851273 61.81525604 328.14173981 62.16885376 328.80445862 C63.28857253 330.8990509 64.41753179 332.98850076 65.54682922 335.07794189 C66.32905589 336.5363389 67.11079036 337.99500001 67.89204407 339.45391846 C72.63763981 348.30358389 77.4259636 357.13037603 82.25483704 365.93487549 C85.09715591 371.12039813 87.91020593 376.32062026 90.69917297 381.53497314 C91.03928406 382.17085358 91.37939514 382.80673401 91.72981262 383.46188354 C93.40495578 386.5954024 95.07783111 389.73011575 96.74848938 392.86602783 C97.65606995 394.56614014 97.65606995 394.56614014 98.58198547 396.30059814 C99.38648132 397.81085571 99.38648132 397.81085571 100.20722961 399.35162354 C101.6524855 401.99097733 103.16690942 404.57212895 104.73432922 407.14044189 C108.53507782 405.8735257 108.69031489 404.85360345 110.44917297 401.34747314 C110.96399231 400.33644531 111.47881165 399.32541748 112.00923157 398.28375244 C112.83221741 396.63500122 112.83221741 396.63500122 113.67182922 394.95294189 C114.84835916 392.64210043 116.02677919 390.33222041 117.20698547 388.02325439 C117.80011536 386.85955322 118.39324524 385.69585205 119.00434875 384.49688721 C121.4611891 379.73021474 124.02303533 375.02529873 126.60932922 370.32794189 C130.94458114 362.42693617 135.25041294 354.51081024 139.51417542 346.5710144 C140.44378883 344.84089242 141.37586841 343.11209621 142.30805969 341.38336182 C143.47219559 339.21314129 144.61905629 337.033538 145.74586487 334.84370422 C147.04819028 332.35069882 148.45492899 329.98245546 149.97966003 327.61975098 C154.45684284 320.33951078 156.68674927 314.7232942 154.66157532 306.22296143 C153.79320599 302.95517344 152.7848968 299.74403344 151.75776672 296.52325439 C151.24081325 294.75431633 150.72911824 292.98383423 150.22232056 291.21195984 C148.86286212 286.51063863 147.43487447 281.83288934 145.99259567 277.15642166 C144.51412982 272.31732144 143.10292562 267.45874719 141.6867218 262.60113525 C139.44414247 254.93329848 137.16990093 247.27571578 134.86860657 239.62530518 C131.18929585 227.38197391 127.69932727 215.09091212 124.27833557 202.77294922 C123.44983223 199.80331412 122.60768309 196.83790128 121.76118469 193.87335205 C114.11976939 166.98190379 114.11976939 166.98190379 114.35932922 154.64044189 C114.36948059 153.843479 114.37963196 153.04651611 114.39009094 152.22540283 C115.05581586 126.39114752 127.74449241 107.81179166 142.39839172 87.73028564 C146.12197106 82.62307528 149.76388609 77.46022213 153.39863586 72.28961182 C155.81927417 68.84830551 158.24945155 65.41490527 160.70698547 61.99981689 C161.17531799 61.34851807 161.64365051 60.69721924 162.12617493 60.02618408 C163.01202377 58.79621887 163.89979352 57.56763419 164.78974915 56.34063721 C166.84197628 53.96377877 166.84197628 53.96377877 167.73432922 51.14044189 C126.81432922 51.14044189 85.89432922 51.14044189 43.73432922 51.14044189 Z M343.73432922 74.14044189 C343.38354309 74.79190186 343.03275696 75.44336182 342.67134094 76.11456299 C342.17392395 77.0383374 341.67650696 77.96211182 341.16401672 78.91387939 C340.32483704 80.47235596 340.32483704 80.47235596 339.46870422 82.06231689 C338.5483136 83.77161377 338.5483136 83.77161377 337.60932922 85.51544189 C337.13898254 86.38894287 337.13898254 86.38894287 336.65913391 87.28009033 C332.59061178 94.83591715 328.52208964 102.39174398 324.4535675 109.9475708 C323.60254456 111.52804199 323.60254456 111.52804199 322.73432922 113.14044189 C267.90099589 214.97377523 213.06766256 316.80710856 158.23432922 418.64044189 C157.65634583 419.71390869 157.07836243 420.78737549 156.48286438 421.89337158 C155.32131366 424.05039818 154.15953146 426.20730015 152.99751282 428.36407471 C150.00061878 433.92721172 147.00831783 439.49274812 144.02339172 445.06231689 C138.49235059 455.374254 132.96453883 465.67560317 127.08979797 475.79669189 C126.26519776 477.22251359 125.470934 478.66723233 124.73432922 480.14044189 C202.61432922 480.14044189 280.49432922 480.14044189 360.73432922 480.14044189 C361.06432922 442.85044189 361.39432922 405.56044189 361.73432922 367.14044189 C368.39792369 353.81325295 368.39792369 353.81325295 375.99604797 350.00762939 C382.58923037 347.91963155 391.90203962 347.81537217 398.29682922 350.70294189 C404.95360319 354.8272475 408.69671801 360.63709773 410.73432922 368.14044189 C411.16042566 371.87307006 411.17194815 375.57574627 411.16670227 379.32989502 C411.17697606 380.44102409 411.18724985 381.55215317 411.19783497 382.69695282 C411.22757912 386.27192213 411.23724259 389.84661625 411.24604797 393.42169189 C411.26152306 395.63752189 411.27832153 397.85334306 411.29646301 400.06915283 C411.35427479 408.25948509 411.38651763 416.44998172 411.42182922 424.64044189 C411.52495422 442.95544189 411.62807922 461.27044189 411.73432922 480.14044189 C459.58432922 480.14044189 507.43432922 480.14044189 556.73432922 480.14044189 C556.79620422 461.24794189 556.85807922 442.35544189 556.92182922 422.89044189 C556.94914124 416.98492432 556.97645325 411.07940674 557.0045929 404.99493408 C557.01464282 399.5746791 557.01464282 399.5746791 557.0206604 394.15441895 C557.02518574 391.79063203 557.03556077 389.42685081 557.05105591 387.06311035 C557.57474825 302.75953201 526.90497254 220.50980573 469.16011047 158.75372314 C467.05888113 156.49007994 465.04252395 154.18403296 463.04682922 151.82794189 C460.17360886 148.50899522 457.03743933 145.6817235 453.69136047 142.84747314 C451.83451998 141.22783383 450.13035431 139.53920899 448.42182922 137.76544189 C443.86498922 133.14688397 438.8116293 129.16772442 433.73432922 125.14044189 C432.79073547 124.37989502 431.84714172 123.61934814 430.87495422 122.83575439 C390.63883807 90.47019704 390.63883807 90.47019704 343.73432922 74.14044189 Z M-224.26567078 127.14044189 C-225.67840271 128.29866455 -225.67840271 128.29866455 -227.11967468 129.48028564 C-234.73946265 135.7913722 -241.89250596 142.45290399 -248.86039734 149.47442627 C-250.52192681 151.14673853 -252.19397834 152.80799552 -253.86723328 154.46856689 C-260.45427239 161.04717298 -266.51580989 167.80750638 -272.26567078 175.14044189 C-273.12311453 176.20084678 -273.98106 177.26084655 -274.83988953 178.32012939 C-317.88864299 233.22519388 -345.61711796 304.09180625 -345.37919617 374.33477783 C-345.3793167 375.50586216 -345.37943724 376.67694649 -345.37956142 377.88351822 C-345.37882197 381.63063789 -345.3712383 385.37770625 -345.36332703 389.12481689 C-345.36185461 391.45570858 -345.36083575 393.78660059 -345.36027527 396.11749268 C-345.35505716 404.70848083 -345.34109591 413.29946188 -345.32817078 421.89044189 C-345.30754578 441.11294189 -345.28692078 460.33544189 -345.26567078 480.14044189 C-297.41567078 480.14044189 -249.56567078 480.14044189 -200.26567078 480.14044189 C-200.09524769 443.73158436 -200.09524769 443.73158436 -199.96781921 407.3225708 C-199.92240906 400.25836182 -199.92240906 400.25836182 -199.89610291 396.94448853 C-199.88155094 394.64496236 -199.87471978 392.34537902 -199.87413025 390.04580688 C-199.87170092 386.54914085 -199.84427095 383.05344302 -199.81156921 379.5569458 C-199.81659328 378.54367029 -199.82161736 377.53039478 -199.82679367 376.48641396 C-199.71497333 368.81393621 -198.2087797 361.79153527 -193.30082703 355.70294189 C-192.32436218 354.92950439 -192.32436218 354.92950439 -191.32817078 354.14044189 C-190.67977234 353.60419189 -190.0313739 353.06794189 -189.36332703 352.51544189 C-182.53815327 348.04158498 -175.1178001 348.48818834 -167.26567078 349.14044189 C-160.66447849 350.76250781 -155.93504549 355.56695922 -152.26567078 361.14044189 C-139.71798396 398.78350234 -149.61680101 440.46272583 -149.26567078 480.14044189 C-71.38567078 480.14044189 6.49432922 480.14044189 86.73432922 480.14044189 C82.24525962 471.72343639 77.75915297 463.31485504 73.17182922 454.95294189 C68.52384944 446.4554083 63.9276853 437.93101997 59.35932922 429.39044189 C59.04399231 428.80092743 58.7286554 428.21141296 58.40376282 427.60403442 C58.08745911 427.01268707 57.7711554 426.42133972 57.44526672 425.81207275 C56.80595135 424.6168376 56.16662843 423.42160648 55.52729797 422.22637939 C55.21094391 421.6349263 54.89458984 421.04347321 54.56864929 420.43409729 C51.28055178 414.28870311 47.97757045 408.15135832 44.67182922 402.01544189 C43.8116217 400.41877686 43.8116217 400.41877686 42.93403625 398.78985596 C41.77884117 396.64593353 40.62356792 394.50205322 39.46821594 392.35821533 C36.55562657 386.95298753 33.64508693 381.54665622 30.73432922 376.14044189 C29.56767226 373.97377 28.4010056 371.80710333 27.23432922 369.64044189 C-105.76567078 122.64044189 -105.76567078 122.64044189 -107.51860046 119.38482666 C-108.67530706 117.23677272 -109.8322054 115.08882203 -110.98930359 112.940979 C-113.72926623 107.85441087 -116.46722081 102.76679039 -119.19841003 97.67550659 C-120.17478976 95.85562419 -121.15177697 94.03606923 -122.12895203 92.21661377 C-123.36194213 89.92039306 -124.59376344 87.62354426 -125.82426453 85.32598877 C-126.65377625 83.78201416 -126.65377625 83.78201416 -127.50004578 82.20684814 C-127.98698914 81.29878418 -128.4739325 80.39072021 -128.97563171 79.45513916 C-130.31323112 76.98301 -130.31323112 76.98301 -132.26567078 74.14044189 C-161.40608553 74.14044189 -202.50095247 109.22666585 -224.26567078 127.14044189 Z M-637.26567078 239.14044189 C-637.81303894 239.6133667 -638.3604071 240.0862915 -638.92436218 240.57354736 C-678.59939419 275.1220992 -704.1317366 324.36886087 -712.26567078 376.14044189 C-712.52948547 377.68030762 -712.52948547 377.68030762 -712.79862976 379.25128174 C-714.72567363 392.07350195 -714.67286532 404.95234128 -714.69120789 417.89581299 C-714.69920758 420.5670585 -714.71659937 423.23579452 -714.75273132 425.90655518 C-714.80175837 429.81293469 -714.81700512 433.71816091 -714.82426453 437.62481689 C-714.84379684 438.80324158 -714.86332916 439.98166626 -714.88345337 441.19580078 C-714.82235367 452.54242499 -711.43202491 461.91813825 -703.51176453 470.16778564 C-694.30753449 478.25150072 -685.53400763 480.44389854 -673.57258606 480.38095093 C-671.79467629 480.3835142 -671.79467629 480.3835142 -669.98084915 480.38612926 C-666.69929132 480.38885062 -663.4178921 480.38261269 -660.13635302 480.37257314 C-656.5945032 480.36392677 -653.05266062 480.36685964 -649.51080322 480.36837769 C-643.37707396 480.36942579 -637.24338728 480.36315702 -631.10966873 480.35190201 C-622.24137532 480.33563982 -613.37310248 480.33043827 -604.50479577 480.32792602 C-590.1161565 480.32355005 -575.72753992 480.31024359 -561.33891296 480.2913208 C-547.36267714 480.27295948 -533.38644748 480.25880421 -519.41020203 480.25030518 C-518.54853665 480.24977973 -517.68687126 480.24925428 -516.79909481 480.24871291 C-512.47632206 480.24610281 -508.15354927 480.2435754 -503.83077645 480.24108911 C-467.97572521 480.22035965 -432.12069976 480.18513677 -396.26567078 480.14044189 C-396.26208825 479.25425076 -396.26208825 479.25425076 -396.25843334 478.35015678 C-396.1986925 463.81887697 -396.12278234 449.28773964 -396.02995586 434.75663567 C-395.98543145 427.72882483 -395.94592413 420.70105983 -395.91923523 413.67315674 C-395.89589628 407.5310313 -395.86211977 401.38905642 -395.81696922 395.24705136 C-395.79350687 392.00995603 -395.77604029 388.77302959 -395.76805687 385.53585434 C-395.59267839 320.83390062 -381.52579482 248.70854629 -345.19682312 193.77154541 C-344.10041247 192.16398747 -344.10041247 192.16398747 -344.26567078 190.14044189 C-366.94635533 190.07004905 -389.62702161 190.0173065 -412.30779362 189.98500538 C-422.8412347 189.96960211 -433.37460752 189.94863926 -443.90800476 189.91412354 C-453.09960447 189.88401921 -462.29115468 189.86481952 -471.48280233 189.85817641 C-476.33999768 189.8542994 -481.19705157 189.84532812 -486.05420113 189.82325172 C-542.99238873 189.57479699 -593.24571163 200.89319619 -637.26567078 239.14044189 Z M555.73432922 190.14044189 C557.16097119 193.77618515 558.75238822 197.18065619 560.60542297 200.62091064 C580.98349883 238.87454228 595.52705049 279.14510532 602.54682922 322.01544189 C602.83940613 323.79422729 602.83940613 323.79422729 603.13789368 325.60894775 C606.32907668 346.28618069 607.05470619 366.86156728 607.14839172 387.75762939 C607.16715157 390.43904545 607.18663856 393.12044658 607.20707703 395.80184937 C607.25332156 402.07325226 607.29032296 408.34467189 607.3237499 414.61615479 C607.36236261 421.77256683 607.41166586 428.92889382 607.46173406 436.08523345 C607.56424275 450.7702368 607.65375873 465.45530133 607.73432922 480.14044189 C644.34692299 480.25496821 680.95948527 480.34303182 717.57222138 480.39576854 C721.89790476 480.40202183 726.22358778 480.40849346 730.54927063 480.4151001 C731.84098055 480.41706743 731.84098055 480.41706743 733.15878561 480.4190745 C747.08933155 480.44081161 761.01977398 480.48022376 774.95025858 480.52620587 C789.25174701 480.57301775 803.55318135 480.60074728 817.85474324 480.61088437 C826.67459441 480.61773374 835.49415296 480.63934093 844.31391403 480.68002423 C850.36776908 480.70652107 856.42147358 480.71442725 862.47538236 480.70794878 C865.9645786 480.7047566 869.45326469 480.7095356 872.94236946 480.73646927 C876.7352215 480.76145101 880.52683499 480.75532643 884.31971741 480.74171448 C885.40924737 480.75627868 886.49877733 480.77084289 887.62132335 480.78584844 C898.56648162 480.68012134 907.83527768 476.99645054 915.76167297 469.38653564 C926.23371738 457.46292073 926.91887456 444.67766873 926.85932922 429.51544189 C926.85449524 428.22654053 926.84966125 426.93763916 926.84468079 425.60968018 C926.82097744 421.78633082 926.78252836 417.96355603 926.73432922 414.14044189 C926.71547668 412.62450439 926.71547668 412.62450439 926.69624329 411.07794189 C926.05751463 373.95346838 917.44687893 336.87361603 899.73432922 304.14044189 C899.15811829 303.05037842 899.15811829 303.05037842 898.57026672 301.93829346 C872.2497108 252.16272601 828.39794899 214.87841006 774.67573547 197.89825439 C754.96470585 191.91675772 735.07930648 189.81846413 714.55635071 189.91339111 C712.81002306 189.91395704 711.06369493 189.91363513 709.31736755 189.9125061 C704.63459625 189.91193868 699.95193007 189.9235927 695.26918292 189.93765402 C690.3538485 189.95026452 685.43851094 189.95133993 680.52316284 189.95370483 C671.24118104 189.95988957 661.95924707 189.97625915 652.67728621 189.99640381 C642.09910723 190.0188571 631.52092581 190.02977982 620.94272888 190.03979468 C599.2065691 190.06062847 577.47045219 190.09574517 555.73432922 190.14044189 Z M922.26167297 524.38262939 C921.52497375 524.64430908 920.78827454 524.90598877 920.0292511 525.17559814 C918.51205672 525.7161065 916.99862725 526.26736528 915.4901886 526.83184814 C902.57284198 531.34686273 888.68918796 531.4384919 875.15620422 531.41891479 C873.55021958 531.42393187 871.94423744 531.42981173 870.33825874 531.43646753 C865.97338758 531.45211097 861.60858105 531.45568946 857.24368525 531.45711613 C852.51861433 531.46083786 847.79357775 531.47600684 843.06852722 531.48973083 C834.89802924 531.51192103 826.72754361 531.52698367 818.55702209 531.53709793 C806.74406655 531.55173162 794.93115407 531.57728139 783.11822391 531.60542922 C763.94892931 531.6508123 744.77962848 531.68746204 725.61030579 531.71856689 C706.99766446 531.74878727 688.38503835 531.7831535 669.77241516 531.82305908 C668.04925009 531.8267514 668.04925009 531.8267514 666.29127359 531.83051832 C660.52775209 531.8428936 654.76423077 531.85535 649.00070953 531.86784673 C601.24527068 531.9712874 553.48981285 532.06053244 505.73432922 532.14044189 C505.72457691 532.69331532 505.7148246 533.24618876 505.70477676 533.81581593 C505.60083455 539.6545946 505.49011822 545.49321888 505.37574768 551.33180237 C505.33410903 553.50073641 505.29410574 555.66970256 505.25587463 557.83869934 C503.49668241 657.10556127 466.63004587 753.11884144 398.17085266 825.60235596 C396.7472778 827.12657785 395.35045426 828.67113445 393.96089172 830.22637939 C387.6120364 837.32089042 380.87135304 843.83830717 373.73432922 850.14044189 C373.16730286 850.64688232 372.60027649 851.15332275 372.0160675 851.67510986 C348.24989121 872.88255474 321.83772683 891.14406845 293.73432922 906.14044189 C292.876297 906.59967041 292.01826477 907.05889893 291.13423157 907.53204346 C202.56593316 954.44717765 92.04030037 966.80310427 -4.26622009 937.53240967 C-24.73902627 931.21923027 -44.79015794 924.10902592 -64.26567078 915.14044189 C-65.12402527 914.7471167 -65.98237976 914.3537915 -66.866745 913.94854736 C-108.69910668 894.5219827 -146.2606206 866.33593939 -178.77958679 833.81182861 C-180.32490144 832.26870659 -181.87807524 830.73379884 -183.4316864 829.19903564 C-189.82875804 822.83791724 -195.65569421 816.21779296 -201.26567078 809.14044189 C-202.33814793 807.8464631 -203.41452729 806.55570086 -204.49613953 805.26934814 C-263.82987105 734.02354731 -291.86163756 644.56896012 -293.81254578 552.84747314 C-293.85709172 550.83367447 -293.90184917 548.81988047 -293.94682312 546.80609131 C-294.05554344 541.91759188 -294.1614043 537.02903827 -294.26567078 532.14044189 C-295.07635954 532.13908537 -295.8870483 532.13772884 -296.72230339 532.1363312 C-344.80522078 532.05562378 -392.88810944 531.96464573 -440.97098184 531.86039028 C-446.7485733 531.8478719 -452.52616495 531.83543905 -458.30375671 531.82305908 C-460.02902722 531.81936009 -460.02902722 531.81936009 -461.78915167 531.81558637 C-480.39546442 531.77589813 -499.00178322 531.7431334 -517.60811353 531.71294208 C-536.70993852 531.68179208 -555.81173794 531.64316756 -574.91353416 531.59765184 C-586.69363682 531.56981639 -598.47372084 531.54776197 -610.25384748 531.53317939 C-618.33964885 531.52261064 -626.42541407 531.50476013 -634.51118815 531.48127486 C-639.17129364 531.46795169 -643.8313486 531.45775142 -648.49147415 531.45622826 C-652.76807491 531.45475914 -657.04455428 531.44403123 -661.32111764 531.42630748 C-662.85839736 531.42150504 -664.39569183 531.41993921 -665.93297744 531.42216308 C-678.92798482 531.43785951 -692.28265011 531.1111447 -704.57817078 526.51544189 C-709.31062839 524.69083474 -709.31062839 524.69083474 -714.26567078 524.14044189 C-714.35921808 543.28176422 -714.42970086 562.42304 -714.47291946 581.56454372 C-714.49352228 590.45279532 -714.52159914 599.34090466 -714.56742859 608.22906494 C-714.60736634 615.97830032 -714.63312016 623.72743264 -714.64202476 631.47676808 C-714.6472278 635.57793347 -714.6594089 639.67880411 -714.688591 643.7798748 C-714.71587002 647.64504533 -714.7240908 651.50980147 -714.7181015 655.37505913 C-714.71919619 656.78873959 -714.72707575 658.20243483 -714.74249268 659.61603165 C-714.8602942 670.98097006 -713.0945678 678.88731175 -705.25004578 687.28497314 C-694.94140015 696.92396266 -684.89059356 697.43714349 -671.30693054 697.39581299 C-669.79640515 697.39856671 -668.2858812 697.40224891 -666.77536011 697.40678406 C-663.53317875 697.41486796 -660.29106624 697.4170715 -657.04887581 697.41483688 C-651.90615406 697.41198854 -646.76356802 697.42641483 -641.62088013 697.44381714 C-627.0003006 697.49069142 -612.37973037 697.51475806 -597.75907898 697.52130127 C-589.67563052 697.52507143 -581.59233601 697.54325876 -573.50895351 697.57639563 C-568.41385985 697.59643599 -563.31916803 697.59906567 -558.22405159 697.58811545 C-555.02953245 697.5854777 -551.83523927 697.59966013 -548.6407795 697.61819649 C-547.17888216 697.62344549 -545.71694123 697.6221497 -544.2550621 697.61316109 C-530.83266955 697.53740555 -516.83386261 699.33310133 -504.89067078 705.89044189 C-504.23913025 706.23260742 -503.58758972 706.57477295 -502.91630554 706.92730713 C-477.50884875 720.62124117 -467.07931209 742.28581089 -458.24980164 768.60064697 C-451.33514734 789.09640073 -442.71372154 808.81668227 -433.07328796 828.16192627 C-420.93587326 852.63445643 -416.09180248 876.04216265 -424.33207703 902.57403564 C-430.34955779 919.43489758 -442.11387103 932.33535818 -454.67900085 944.71734619 C-455.68907263 945.72028196 -456.6986609 946.72370486 -457.70780945 947.72756958 C-459.85913435 949.8659267 -462.01344494 952.00121041 -464.17016029 954.13413048 C-467.5851878 957.51217951 -470.99116904 960.89925526 -474.39572144 964.28785706 C-484.07030918 973.91442709 -493.75691329 983.52885321 -503.45195007 993.13482666 C-508.82368538 998.45737253 -514.18813248 1003.78715836 -519.54495543 1009.12471324 C-522.92348494 1012.49021863 -526.31079071 1015.84654404 -529.70505393 1019.19617689 C-531.81596481 1021.28353126 -533.91837115 1023.37929396 -536.0185318 1025.47745895 C-537.44941594 1026.90204346 -538.89026695 1028.31659539 -540.33145142 1029.73075867 C-548.21145688 1037.63468744 -552.34170348 1044.51484841 -552.57817078 1055.82794189 C-552.42329468 1072.43410086 -540.06010173 1082.64414662 -529.04350281 1093.63726807 C-527.69560357 1094.9895198 -526.34812118 1096.34218713 -525.00102234 1097.69523621 C-521.35695378 1101.35264553 -517.70655759 1105.0036753 -514.05454493 1108.65315032 C-511.00104216 1111.7055804 -507.9505278 1114.7609885 -504.89995468 1117.81634599 C-497.70209892 1125.02527909 -490.49894987 1132.22889283 -483.29252625 1139.42926025 C-475.86749451 1146.84824786 -468.4516975 1154.27637552 -461.04033768 1161.70901889 C-454.66594439 1168.10104124 -448.28574481 1174.4872272 -441.90090454 1180.86881429 C-438.09228467 1184.67562385 -434.28590822 1188.48460921 -430.48515701 1192.29927635 C-426.91150298 1195.88552586 -423.33063612 1199.46441499 -419.74417114 1203.03785133 C-418.43228667 1204.34737456 -417.12293452 1205.65944057 -415.81637192 1206.97427368 C-401.84462609 1221.06991917 -401.84462609 1221.06991917 -382.95317078 1225.51544189 C-367.26970358 1225.2545623 -359.0888629 1215.12728207 -348.62773132 1204.58428955 C-347.20074345 1203.15259432 -345.77375448 1201.72090018 -344.34672415 1200.28924727 C-342.82756007 1198.7642325 -341.30963937 1197.2379898 -339.79204369 1195.71141434 C-336.61176025 1192.51267139 -333.42698795 1189.31842255 -330.24145508 1186.12490845 C-321.18850626 1177.0479348 -312.14150277 1167.96504934 -303.09892273 1158.87774658 C-298.09352167 1153.84766913 -293.08443081 1148.82129452 -288.07147819 1143.79874265 C-284.91420798 1140.63499087 -281.76146539 1137.46682072 -278.61217725 1134.29512429 C-276.63951497 1132.31059826 -274.66255409 1130.33039608 -272.68444824 1128.35129738 C-271.35327066 1127.01700403 -270.02709648 1125.67772456 -268.70117188 1124.33821106 C-250.15682133 1105.82336398 -229.38037224 1093.2097358 -202.51567078 1092.82794189 C-182.3930966 1092.9670325 -166.17797602 1100.715745 -148.39067078 1109.39044189 C-131.98023429 1117.37988356 -115.25692815 1124.34401196 -98.05473328 1130.43341064 C-96.86281624 1130.85682236 -96.86281624 1130.85682236 -95.64682007 1131.28878784 C-91.74617382 1132.67201673 -87.84110668 1134.0385563 -83.92411804 1135.37481689 C-71.79005763 1139.57930549 -59.79680364 1144.72913444 -50.45317078 1153.82794189 C-49.66027649 1154.5831311 -49.66027649 1154.5831311 -48.85136414 1155.35357666 C-34.311134 1169.66437515 -25.47360169 1189.47217686 -24.76687622 1209.86816406 C-24.74703898 1212.57913936 -24.74748064 1215.28452144 -24.76737976 1217.99493408 C-24.76354304 1219.50490349 -24.75791259 1221.01486921 -24.75065613 1222.52482605 C-24.7388305 1225.74022739 -24.73909619 1228.95530144 -24.74925041 1232.1707077 C-24.76499246 1237.2665502 -24.7510108 1242.36206552 -24.73321533 1247.45788574 C-24.7025807 1257.35175956 -24.70088764 1267.24552994 -24.7028656 1277.13944244 C-24.70426419 1289.74700629 -24.69375286 1302.35449109 -24.65428787 1314.96199727 C-24.63945123 1320.01664302 -24.63955024 1325.07099156 -24.6517657 1330.12564135 C-24.65650792 1333.27834422 -24.64890969 1336.43093543 -24.63822174 1339.58362007 C-24.63583553 1341.03312071 -24.63847948 1342.48264082 -24.64682961 1343.93211937 C-24.7227593 1357.96258672 -23.35653311 1368.83181308 -13.37895203 1379.07794189 C-4.80782824 1387.16073053 4.4119374 1388.29845042 15.94973755 1388.27415466 C16.74903913 1388.27642022 17.54834071 1388.27868578 18.37186354 1388.28101999 C21.03542497 1388.28732214 23.69893502 1388.28653306 26.36250305 1388.28570557 C28.27832098 1388.28869942 30.1941383 1388.29210247 32.10995483 1388.29588318 C37.30426421 1388.30470431 42.4985571 1388.3070605 47.69287324 1388.30769897 C50.94083658 1388.30841053 54.18879574 1388.31054687 57.43675804 1388.31319618 C68.77561585 1388.3224433 80.11446191 1388.32653185 91.45332336 1388.32574463 C102.01026375 1388.32514398 112.56715302 1388.33569494 123.12408048 1388.35148829 C132.19861523 1388.36457851 141.2731333 1388.3699279 150.34767741 1388.36928922 C155.76266477 1388.36903467 161.17760668 1388.37186203 166.59258461 1388.38246727 C171.68729262 1388.39217319 176.78191196 1388.39221033 181.87662315 1388.38495064 C183.74138392 1388.3839079 185.60615028 1388.38624913 187.47090149 1388.3923111 C202.12553633 1388.43684728 215.01051041 1388.34931326 226.48432922 1378.01544189 C233.97280319 1370.03934637 235.85369056 1360.12435001 235.8656311 1349.51519775 C235.86963928 1348.22305862 235.87364746 1346.93091949 235.8777771 1345.59962463 C235.8773021 1344.18484495 235.87676601 1342.77006528 235.87617493 1341.35528564 C235.87921022 1339.85151569 235.8827327 1338.34774666 235.88670349 1336.84397888 C235.89456681 1333.61379903 235.8997278 1330.38363008 235.90299416 1327.15344238 C235.90893377 1322.03237581 235.9255036 1316.91137767 235.94433594 1311.79034424 C235.95067282 1310.03234867 235.95699845 1308.27435307 235.9633131 1306.51635742 C235.96806182 1305.19596592 235.96806182 1305.19596592 235.97290647 1303.84889984 C236.01485971 1291.93616432 236.04792785 1280.02346122 236.06025696 1268.11065674 C236.06867138 1260.06274758 236.0912863 1252.01500889 236.12961262 1243.96718502 C236.14925987 1239.71732271 236.16181591 1235.46771454 236.15677834 1231.21780396 C236.15208785 1227.21208613 236.1661735 1223.20684839 236.19379044 1219.20122719 C236.20062904 1217.74333587 236.20090935 1216.2853941 236.19359016 1214.82750511 C236.09159964 1192.20057361 244.00668097 1172.28186868 259.79292297 1155.99591064 C273.31003641 1142.59536269 289.54173994 1137.11881817 307.14424133 1131.17486572 C327.64420543 1124.2081964 347.3911941 1115.59814817 366.7558136 1105.94805908 C390.90727814 1093.96988033 413.78294593 1088.95497442 440.14057922 1097.20684814 C457.43999037 1103.44699288 469.17246036 1114.39310546 481.90644836 1127.24664307 C482.87828417 1128.22368907 483.85037346 1129.200483 484.82269287 1130.17704773 C486.89521304 1132.25940993 488.9662373 1134.34324391 491.03613472 1136.42821312 C494.31637591 1139.73177166 497.60171296 1143.03023156 500.88800049 1146.32777405 C510.22505376 1155.69805659 519.55776998 1165.07262976 528.88008118 1174.45758057 C534.04475728 1179.65687406 539.21485338 1184.85071436 544.39094061 1190.03864843 C547.65268371 1193.30844054 550.90778141 1196.58465767 554.15799534 1199.86590803 C556.18686865 1201.91089165 558.22211209 1203.94944363 560.25914955 1205.98629189 C561.63770028 1207.3683816 563.0087609 1208.7579299 564.37950134 1210.14776611 C573.18987542 1218.93002091 581.18695265 1225.38190216 594.04682922 1225.51544189 C611.21122177 1225.23020761 621.76615437 1212.40805013 633.1452179 1201.00421143 C634.47629124 1199.67749219 635.80777964 1198.35118925 637.13964844 1197.02526855 C640.73507556 1193.44316467 644.32414118 1189.85475215 647.91164184 1186.26471186 C650.91432072 1183.26095913 653.91998018 1180.2601975 656.92558557 1177.25937355 C664.01807013 1170.1779602 671.10524295 1163.09126162 678.18916321 1156.00128174 C685.48375204 1148.70064896 692.78748041 1141.40925204 700.09572428 1134.12229073 C706.38502821 1127.85062579 712.66848479 1121.57314411 718.94734937 1115.2910279 C722.69101974 1111.54554886 726.4368555 1107.80230398 730.18839073 1104.06470108 C733.71556928 1100.55013429 737.23536234 1097.02833191 740.74972725 1093.50095367 C742.03625727 1092.21206597 743.32532017 1090.92570047 744.61716461 1089.64213943 C759.15743467 1075.48897476 759.15743467 1075.48897476 764.10932922 1056.39044189 C763.82231555 1040.35144267 753.76533157 1032.00454149 743.01045227 1021.35064697 C742.05004545 1020.39544633 741.08988827 1019.43999463 740.12995911 1018.48431396 C738.0764763 1016.44070203 736.02152952 1014.39857805 733.96547508 1012.35755348 C730.70300341 1009.11836099 727.44559664 1005.87410647 724.18911743 1002.62889099 C714.93290792 993.40593399 705.67255618 984.18716541 696.40156555 974.97906494 C691.27031468 969.88253743 686.1446037 964.78050405 681.02478439 959.67249221 C678.32466076 956.97908198 675.62185482 954.28849913 672.91206932 951.6048069 C645.21953702 924.17191962 645.21953702 924.17191962 639.29682922 910.51544189 C638.97319397 909.79888428 638.64955872 909.08232666 638.31611633 908.34405518 C629.34769901 887.98146845 629.27667209 865.12810942 637.10932922 844.39044189 C639.52043314 838.49751097 642.34050124 832.80347608 645.13960266 827.08770752 C654.4535589 808.06462425 662.74014926 788.67116278 669.74995422 768.67559814 C669.99317413 767.98217316 670.23639404 767.28874817 670.48698425 766.5743103 C671.63641361 763.28241309 672.76524946 759.98596654 673.86958313 756.67852783 C678.16246275 744.09084514 683.90217955 733.12538219 692.73432922 723.14044189 C693.25253235 722.52813721 693.77073547 721.91583252 694.30464172 721.28497314 C706.70716218 707.66713033 726.57110567 699.46282587 744.64334679 697.77546692 C748.65369013 697.64308136 752.65335973 697.62419007 756.66474915 697.65802002 C758.18294627 697.65582636 759.70114166 697.65181783 761.21932983 697.64616394 C764.45274563 697.63768932 767.68582712 697.64125216 770.91922569 697.65458679 C776.04473825 697.6751615 781.16992401 697.66484558 786.29544067 697.65032959 C797.17093414 697.62373702 808.04631728 697.63027616 818.92182922 697.64044189 C830.67887445 697.651424 842.43574693 697.65648101 854.19276315 697.62314749 C859.27564514 697.60986791 864.3580233 697.61559674 869.44087446 697.63651276 C872.61331763 697.64556569 875.78557103 697.63796579 878.95799828 697.62610054 C880.4151475 697.62398941 881.8723264 697.62857418 883.32942581 697.6408062 C893.85807538 697.72412983 904.01222282 696.84734239 913.05073547 690.99200439 C922.38819849 681.73573671 926.74961517 673.71343295 927.09509277 660.35084534 C927.10369638 657.79154004 927.09602576 655.23214521 927.0749054 652.6729126 C927.07405723 651.25258909 927.07453796 649.83226428 927.07623291 648.41194153 C927.0770869 644.5902828 927.05955895 640.76891168 927.03851104 636.94731927 C927.01964372 632.94084176 927.01798593 628.93435627 927.01443481 624.92784119 C927.00514368 617.35621074 926.98057001 609.78471161 926.95038635 602.21313876 C926.91675056 593.58670604 926.90033334 584.96026676 926.88530004 576.3337847 C926.85401752 558.60259622 926.80131465 540.87152965 926.73432922 523.14044189 C925.27656836 523.08430756 925.27656836 523.08430756 922.26167297 524.38262939 Z M-243.26567078 531.14044189 C-243.26567078 628.7525409 -218.34673067 716.38056211 -151.26567078 789.14044189 C-150.46258484 790.04665283 -149.6594989 790.95286377 -148.83207703 791.88653564 C-137.99849839 804.00790966 -126.09817333 815.15583951 -113.26567078 825.14044189 C-112.64611511 825.62722412 -112.02655945 826.11400635 -111.38822937 826.61553955 C-101.64249569 834.26111989 -91.73017076 841.50896783 -81.26567078 848.14044189 C-80.40570496 848.68813232 -80.40570496 848.68813232 -79.52836609 849.24688721 C-35.91167037 876.80077714 12.76596196 893.26675784 63.73432922 900.14044189 C64.58188782 900.25903564 65.42944641 900.37762939 66.3026886 900.49981689 C152.20169802 912.01700252 244.89589621 885.94470928 313.62446594 833.76690674 C323.34180978 826.27593883 332.70379819 818.44791508 341.73432922 810.14044189 C343.42125012 808.63979065 345.10875884 807.13979997 346.79682922 805.64044189 C353.49383422 799.6047399 359.8863229 793.32121252 365.74604797 786.46466064 C367.27214179 784.68071994 368.8207463 782.91601615 370.37886047 781.15997314 C378.50371973 771.94971637 385.71969505 762.21472326 392.73432922 752.14044189 C393.18018372 751.50525635 393.62603821 750.8700708 394.08540344 750.21563721 C417.77549494 716.31539863 434.48642452 678.12660589 444.73432922 638.14044189 C444.95427551 637.29449463 445.1742218 636.44854736 445.40083313 635.57696533 C454.27484771 600.90124878 454.73432922 567.10777079 454.73432922 531.14044189 C224.39432922 531.14044189 -5.94567078 531.14044189 -243.26567078 531.14044189 Z " fill="#21336D" transform="translate(767.2656707763672,571.8595581054688)"/>
<path d="M0 0 C1.12135849 -0.00570007 2.24271698 -0.01140015 3.39805603 -0.01727295 C5.76544266 -0.02666828 8.13284204 -0.033235 10.50024414 -0.03710938 C14.02840746 -0.04670786 17.55595991 -0.07774017 21.08398438 -0.109375 C63.68544031 -0.30848726 106.24825745 8.09803258 144.02734375 28.203125 C144.68202637 28.54714355 145.33670898 28.89116211 146.01123047 29.24560547 C162.02484771 37.71225792 176.53048402 48.14665821 190.02734375 60.203125 C190.56842773 60.68249512 191.10951172 61.16186523 191.66699219 61.65576172 C240.12649876 104.75772167 262.58842687 169.01190055 266.74609375 232.66796875 C268.96299055 277.05564287 264.75188638 320.50397372 252.02734375 363.203125 C251.75696289 364.11610352 251.48658203 365.02908203 251.20800781 365.96972656 C238.7362905 407.35384606 216.92451256 445.056609 187.02734375 476.203125 C186.54152832 476.71617187 186.05571289 477.22921875 185.55517578 477.7578125 C177.97003627 485.74590463 169.84855072 492.61980438 161.02734375 499.203125 C160.48416504 499.61771973 159.94098633 500.03231445 159.38134766 500.45947266 C130.53040197 522.45733786 96.50004819 535.6398119 61.02734375 542.203125 C59.7753418 542.4508667 59.7753418 542.4508667 58.49804688 542.70361328 C30.16137883 548.15340604 -2.64494552 547.57872345 -30.97265625 542.203125 C-32.36339355 541.95369141 -32.36339355 541.95369141 -33.78222656 541.69921875 C-88.5995213 531.68184509 -138.45122173 502.06915473 -172.97265625 458.203125 C-173.7409375 457.26339844 -174.50921875 456.32367188 -175.30078125 455.35546875 C-193.70601716 432.34892387 -206.77327765 405.69141932 -216.97265625 378.203125 C-217.30249512 377.32221191 -217.63233398 376.44129883 -217.97216797 375.53369141 C-226.79354186 351.64266257 -231.8100262 326.42169783 -234.97265625 301.203125 C-235.0897998 300.30271484 -235.20694336 299.40230469 -235.32763672 298.47460938 C-243.7816375 230.7923565 -232.73022859 151.34238652 -191.97265625 95.203125 C-191.23789062 94.18347656 -190.503125 93.16382812 -189.74609375 92.11328125 C-153.82242962 43.35495674 -97.52275102 12.72275392 -38.296875 3.26171875 C-25.53928304 1.34508 -12.91122619 0.05261669 0 0 Z M-32.97265625 54.203125 C-33.98682617 54.40711914 -35.00099609 54.61111328 -36.04589844 54.82128906 C-56.15300721 58.99583839 -74.95951756 65.3138291 -92.97265625 75.203125 C-93.60655273 75.55101074 -94.24044922 75.89889648 -94.89355469 76.25732422 C-109.90825498 84.62221972 -122.58251041 95.37772338 -134.97265625 107.203125 C-135.6378125 107.81542969 -136.30296875 108.42773438 -136.98828125 109.05859375 C-171.34366614 141.56777805 -184.64504372 197.54284974 -186.09863281 243.15625 C-186.88899171 281.07814104 -183.18505091 318.06581863 -170.97265625 354.203125 C-170.59270508 355.3485376 -170.59270508 355.3485376 -170.20507812 356.51708984 C-159.64376551 387.99588941 -143.04301852 416.31697905 -119.97265625 440.203125 C-119.04136683 441.19763597 -118.11038089 442.19243122 -117.1796875 443.1875 C-87.55073219 474.36126027 -42.7531311 493.01104868 0.0144043 494.32568359 C4.76864079 494.42339827 9.5221951 494.44971683 14.27734375 494.453125 C15.54623444 494.45413712 15.54623444 494.45413712 16.84075928 494.45516968 C30.10772463 494.43838241 42.99534927 493.89483193 56.02734375 491.203125 C56.85218262 491.03683594 57.67702148 490.87054688 58.52685547 490.69921875 C84.55348828 485.26967202 108.98468162 474.46696424 130.02734375 458.203125 C130.92066406 457.5328125 131.81398438 456.8625 132.734375 456.171875 C182.37695914 417.4700103 206.92983981 355.23832416 214.484375 294.3359375 C215.80435541 282.40955366 216.26825639 270.56666811 216.27734375 258.578125 C216.27801849 257.76976196 216.27869324 256.96139893 216.27938843 256.12854004 C216.25992427 241.32777815 215.3240729 226.8418967 213.02734375 212.203125 C212.87168945 211.18460449 212.71603516 210.16608398 212.55566406 209.11669922 C208.82951571 185.70741388 201.7697549 161.88307987 190.02734375 141.203125 C189.36117991 139.96727622 188.69714907 138.73027553 188.03515625 137.4921875 C184.03451074 130.11986143 179.54298486 123.52160991 174.02734375 117.203125 C173.29386719 116.36007813 172.56039063 115.51703125 171.8046875 114.6484375 C137.44203417 75.86520269 90.49477615 54.88454917 39.02734375 51.203125 C35.45003421 51.05925387 31.87683793 51.01718074 28.296875 51 C27.31160828 50.99294037 26.32634155 50.98588074 25.31121826 50.97860718 C-3.98275265 50.57519967 -3.98275265 50.57519967 -32.97265625 54.203125 Z " fill="#21336D" transform="translate(857.97265625,1.796875)"/>
<path d="M0 0 C1.06734375 0.57621094 2.1346875 1.15242188 3.234375 1.74609375 C13.66889951 7.59861851 22.92972091 14.77848984 31.69921875 22.890625 C33.7713264 24.79035018 35.89841131 26.58226381 38.0625 28.375 C64.2038922 51.32075107 76.60290065 87.90171094 83 121 C83.24991699 122.25901123 83.24991699 122.25901123 83.50488281 123.54345703 C88.65594372 150.75449618 88.23290282 181.84814574 83 209 C82.83902832 209.89992676 82.67805664 210.79985352 82.51220703 211.72705078 C74.49224693 256.03328571 53.8565486 302.13985113 18 331 C17.03320312 331.78117187 16.06640625 332.56234375 15.0703125 333.3671875 C-4.7585622 349.13162711 -26.69422981 359.45942837 -51.125 365.75 C-51.8871582 365.94875732 -52.64931641 366.14751465 -53.43457031 366.35229492 C-67.17799441 369.72171573 -80.8635986 370.40889198 -94.9375 370.375 C-95.79139313 370.37445618 -96.64528625 370.37391235 -97.52505493 370.37335205 C-111.65886808 370.33211338 -125.22806974 369.40476319 -139 366 C-140.30590088 365.67854004 -140.30590088 365.67854004 -141.63818359 365.35058594 C-171.20878378 357.78870158 -196.07085052 342.90990732 -218 322 C-218.79148437 321.26136719 -219.58296875 320.52273438 -220.3984375 319.76171875 C-258.99802896 282.71965466 -275.93229964 224.46124706 -277.25 172.359375 C-277.77354349 133.93952346 -272.07854329 94.930577 -253 61 C-252.44957031 59.96488281 -251.89914062 58.92976563 -251.33203125 57.86328125 C-232.17185865 23.04729065 -195.7156282 -2.67397638 -158.16040039 -14.0859375 C-106.90243497 -28.70526809 -47.14487256 -25.77827334 0 0 Z M-196.7734375 69.375 C-214.19944952 88.44074781 -222.286683 115.80491356 -225 141 C-225.10957031 141.87011719 -225.21914062 142.74023438 -225.33203125 143.63671875 C-230.29179576 189.99398436 -219.1218097 240.06241049 -190 277 C-171.07253772 300.44553874 -143.4671651 315.2729584 -113.53295898 318.80151367 C-96.71200258 320.11962813 -78.33512622 320.44584879 -62 316 C-60.93217285 315.70996094 -60.93217285 315.70996094 -59.84277344 315.4140625 C-29.25232946 306.83656025 -4.09978503 286.96502693 11.625 259.3125 C36.05784853 214.88816612 42.21117275 160.86968546 28.54003906 111.98803711 C19.64614146 82.16558612 1.36058438 59.09549483 -26 44 C-80.19684254 15.15910818 -154.35241628 24.87767563 -196.7734375 69.375 Z " fill="#21336D" transform="translate(1506,303)"/>
<path d="M0 0 C3.03242088 2.72236925 5.98260758 5.52566593 8.93359375 8.3359375 C9.77664063 9.10292969 10.6196875 9.86992187 11.48828125 10.66015625 C43.45394616 40.73647675 56.56073971 90.39704996 58.05786133 132.8605957 C58.13954879 136.7277258 58.1801648 140.5930866 58.18359375 144.4609375 C58.18426849 145.15469482 58.18494324 145.84845215 58.18563843 146.56323242 C58.11609484 192.09543528 46.71344579 239.88331079 19.93359375 277.3359375 C19.21816406 278.35300781 18.50273437 279.37007812 17.765625 280.41796875 C12.33500058 287.90550224 6.30028314 294.65184717 -0.06640625 301.3359375 C-0.75992187 302.09390625 -1.4534375 302.851875 -2.16796875 303.6328125 C-13.52043887 315.64276159 -27.41119334 324.87625182 -42.06640625 332.3359375 C-42.67661621 332.65256348 -43.28682617 332.96918945 -43.91552734 333.29541016 C-64.78160766 344.02253601 -89.18411602 350.40090785 -112.67578125 350.5390625 C-113.87646744 350.54965195 -113.87646744 350.54965195 -115.10140991 350.56045532 C-166.19818177 350.90881006 -210.74868085 337.26594328 -247.94140625 300.8984375 C-256.42509059 292.4200351 -263.55606665 283.39472561 -270.06640625 273.3359375 C-270.74606445 272.28672119 -270.74606445 272.28672119 -271.43945312 271.21630859 C-287.27358878 246.36648116 -296.92220111 218.24218326 -302.06640625 189.3359375 C-302.23011719 188.44664551 -302.39382813 187.55735352 -302.5625 186.64111328 C-311.78473346 134.42307443 -303.99226346 74.68827402 -274.83203125 29.7890625 C-269.07918436 21.6430313 -262.19946971 14.2861019 -255.06640625 7.3359375 C-254.53144531 6.76746094 -253.99648437 6.19898438 -253.4453125 5.61328125 C-191.2155169 -59.46278359 -65.76268444 -57.89453718 0 0 Z M-191.06640625 23.3359375 C-191.69208496 23.66045898 -192.31776367 23.98498047 -192.96240234 24.31933594 C-218.37462519 37.83327478 -237.24976143 59.93270991 -246.06640625 87.3359375 C-247.27053228 91.50049535 -248.34979906 95.68744386 -249.37890625 99.8984375 C-249.6214917 100.89020996 -249.86407715 101.88198242 -250.11401367 102.90380859 C-253.2909591 116.69640095 -254.45480533 130.3399652 -254.37890625 144.4609375 C-254.37708344 145.17382935 -254.37526062 145.88672119 -254.37338257 146.62121582 C-254.32028086 159.04667049 -253.4605332 171.12730392 -251.06640625 183.3359375 C-250.81697266 184.63265381 -250.81697266 184.63265381 -250.5625 185.95556641 C-243.38612989 222.01682618 -225.40268507 258.60155096 -194.21191406 279.73681641 C-182.7192156 287.27711691 -170.43164417 292.98687556 -157.06640625 296.3359375 C-155.93460937 296.635 -154.8028125 296.9340625 -153.63671875 297.2421875 C-132.5128037 301.90759205 -107.80809086 301.27398271 -87.06640625 295.3359375 C-86.39561035 295.15401855 -85.72481445 294.97209961 -85.03369141 294.78466797 C-70.02136285 290.6398874 -57.0293197 283.21342415 -45.06640625 273.3359375 C-44.091875 272.53800781 -43.11734375 271.74007813 -42.11328125 270.91796875 C-11.44790101 244.38679553 3.5174841 201.92657075 6.65234375 162.32421875 C9.1740406 122.3407754 3.4293779 79.31460862 -23.6015625 48.015625 C-26.87795489 44.45365166 -30.2632151 41.3221977 -34.06640625 38.3359375 C-35.35417969 37.29373047 -35.35417969 37.29373047 -36.66796875 36.23046875 C-55.43755675 21.53352721 -76.46655145 13.40563766 -100.06640625 10.3359375 C-101.02675781 10.20574219 -101.98710937 10.07554687 -102.9765625 9.94140625 C-132.368377 6.76962771 -164.56340853 9.5568614 -191.06640625 23.3359375 Z " fill="#21336D" transform="translate(459.06640625,322.6640625)"/>
</svg>
