<svg xmlns="http://www.w3.org/2000/svg" version="1.1" xmlns:xlink="http://www.w3.org/1999/xlink" width="512" height="512" x="0" y="0" viewBox="0 0 512 512" style="enable-background:new 0 0 512 512" xml:space="preserve" class=""><g><path d="M366.934 196.266c4.71 0 8.53-3.82 8.53-8.532V85.332h34.138c9.425 0 17.066-7.64 17.066-17.066V42.668C426.637 19.113 407.551.028 384 0H25.602C11.46 0 0 11.46 0 25.602v460.796C0 500.54 11.46 512 25.602 512H256c4.71 0 8.535-3.82 8.535-8.535 0-4.711-3.824-8.531-8.535-8.531H25.602a8.534 8.534 0 0 1-8.536-8.536V25.602a8.534 8.534 0 0 1 8.536-8.536c14.136 0 25.597 11.461 25.597 25.602v25.598c0 9.425 7.64 17.066 17.067 17.066h290.132v102.402c0 4.711 3.82 8.532 8.536 8.532zM59.512 17.066H384c14.137 0 25.602 11.461 25.602 25.602v25.598H68.266V42.668a42.216 42.216 0 0 0-8.754-25.602zm0 0" fill="#f5821f" opacity="1" data-original="#000000" class=""></path><path d="M332.8 119.465c0-4.711-3.82-8.531-8.534-8.531H51.199a8.532 8.532 0 0 0-8.531 8.53A8.533 8.533 0 0 0 51.199 128h273.067a8.534 8.534 0 0 0 8.535-8.535zM51.2 264.535h102.402c4.71 0 8.53-3.824 8.53-8.535V153.602a8.533 8.533 0 0 0-8.53-8.536H51.199a8.533 8.533 0 0 0-8.531 8.536V256c0 4.71 3.82 8.535 8.531 8.535zm8.534-102.402h85.332v85.332H59.734zM307.2 145.066H187.733a8.534 8.534 0 1 0 0 17.067H307.2a8.533 8.533 0 1 0 0-17.067zM187.734 196.266h34.133c4.711 0 8.531-3.82 8.531-8.532a8.533 8.533 0 0 0-8.53-8.535h-34.134a8.534 8.534 0 1 0 0 17.067zM307.2 196.266a8.533 8.533 0 1 0 0-17.067H256a8.536 8.536 0 0 0-8.535 8.535c0 4.711 3.824 8.532 8.535 8.532zM256 221.867a8.534 8.534 0 0 0-8.535-8.535h-59.73a8.534 8.534 0 1 0 0 17.066h59.73a8.533 8.533 0 0 0 8.535-8.53zM221.867 256c0-4.71-3.82-8.535-8.535-8.535h-25.598a8.536 8.536 0 0 0 0 17.07h25.598a8.536 8.536 0 0 0 8.535-8.535zM452.172 303.148a34.312 34.312 0 0 0-29.688-51.464 33.857 33.857 0 0 0-17.152-29.68 34.41 34.41 0 0 0-34.344 0c-6.101-10.625-17.418-17.176-29.668-17.176s-23.566 6.55-29.664 17.176a34.974 34.974 0 0 0-34.312 0 34.173 34.173 0 0 0-17.153 29.68 33.883 33.883 0 0 0-29.664 17.117 34.38 34.38 0 0 0 0 34.347c-10.629 6.094-17.18 17.41-17.18 29.665s6.551 23.57 17.18 29.667a34.314 34.314 0 0 0 29.688 51.465c0 1.524.101 3.051.3 4.563l-26.863 38.172a17.066 17.066 0 0 0 17.227 26.648l25.754-5.265 10.82 23.843A16.923 16.923 0 0 0 302.977 512h.734a17.073 17.073 0 0 0 15.488-11.555l13.918-40.687a33.872 33.872 0 0 0 8.215 1.043 33.515 33.515 0 0 0 8.219-1.059l13.969 40.73A17.067 17.067 0 0 0 378.957 512h.734c6.7.02 12.778-3.922 15.496-10.043l10.82-23.894 25.778 5.292a17.066 17.066 0 0 0 17.297-26.602l-26.953-38.202c.207-1.516.316-3.043.324-4.574a33.894 33.894 0 0 0 29.688-17.176 34.4 34.4 0 0 0 0-34.348 34.205 34.205 0 0 0 0-59.332zM303.027 494.934l-10.804-23.809a16.992 16.992 0 0 0-18.993-9.777l-25.695 5.238 21.164-30.063c10.77 12.344 28.781 15.325 42.957 7.11a34.652 34.652 0 0 0 6.262 7.816zM435.2 466.609l-25.683-5.273a17.071 17.071 0 0 0-19.04 9.703l-10.863 23.895-14.87-43.52a34.396 34.396 0 0 0 6.245-7.781 34.994 34.994 0 0 0 34.313 0 33.466 33.466 0 0 0 8.625-7.153zm1.254-116.742a8.531 8.531 0 0 0-7.61 6.278 8.53 8.53 0 0 0 3.395 9.261c7.332 5.098 9.551 14.957 5.106 22.703-4.442 7.746-14.067 10.813-22.172 7.063a8.531 8.531 0 0 0-11.426 11.363c3.887 8.106.86 17.832-6.937 22.3-7.793 4.372-17.63 2.165-22.801-5.12a8.533 8.533 0 0 0-15.61 4.207c-.789 8.836-8.195 15.605-17.066 15.605-8.871 0-16.273-6.77-17.066-15.605a8.535 8.535 0 0 0-8.532-7.91 8.526 8.526 0 0 0-7.03 3.695c-5.122 7.395-15.06 9.621-22.845 5.117-7.793-4.441-10.816-14.156-6.922-22.238a8.527 8.527 0 0 0-1.625-9.75 8.533 8.533 0 0 0-9.742-1.676c-8.093 3.906-17.832.88-22.289-6.926a16.848 16.848 0 0 1-2.336-8.593 17.218 17.218 0 0 1 7.485-14.22 8.53 8.53 0 0 0 3.418-9.273 8.526 8.526 0 0 0-7.637-6.28c-8.926-.692-15.816-8.138-15.816-17.095 0-8.953 6.89-16.398 15.816-17.09 3.613-.265 6.664-2.78 7.613-6.277s-.414-7.21-3.394-9.261c-7.332-5.102-9.551-14.957-5.11-22.704 4.442-7.75 14.07-10.812 22.176-7.062a8.527 8.527 0 0 0 9.75-1.625 8.533 8.533 0 0 0 1.676-9.742c-3.887-8.102-.86-17.828 6.937-22.297 7.793-4.363 17.621-2.156 22.801 5.12a8.533 8.533 0 0 0 15.606-4.155c.793-8.836 8.195-15.61 17.066-15.61 8.871 0 16.277 6.774 17.066 15.61a8.537 8.537 0 0 0 15.55 4.215c5.126-7.387 15.056-9.614 22.845-5.122 7.789 4.446 10.812 14.16 6.918 22.239a8.538 8.538 0 0 0 1.625 9.754 8.539 8.539 0 0 0 9.742 1.672c8.098-3.895 17.828-.868 22.29 6.93a16.869 16.869 0 0 1 2.339 8.593 17.216 17.216 0 0 1-7.484 14.215 8.538 8.538 0 0 0-3.418 9.285 8.54 8.54 0 0 0 7.648 6.273c8.93.692 15.82 8.137 15.82 17.09 0 8.957-6.89 16.403-15.82 17.094zm0 0" fill="#f5821f" opacity="1" data-original="#000000" class=""></path><path d="M341.332 256c-42.414 0-76.797 34.383-76.797 76.8 0 42.415 34.383 76.802 76.797 76.802 42.418 0 76.8-34.387 76.8-76.801-.046-42.399-34.402-76.754-76.8-76.801zm0 136.535c-32.988 0-59.73-26.746-59.73-59.734 0-32.992 26.742-59.735 59.73-59.735 32.992 0 59.734 26.743 59.734 59.735-.039 32.972-26.757 59.695-59.734 59.734zm0 0" fill="#f5821f" opacity="1" data-original="#000000" class=""></path><path d="M341.332 358.398c-14.137 0-25.598-11.46-25.598-25.597a8.534 8.534 0 1 0-17.066 0c.027 23.55 19.113 42.637 42.664 42.664a8.533 8.533 0 1 0 0-17.067zM51.2 298.668h93.866a8.534 8.534 0 1 0 0-17.066H51.2a8.532 8.532 0 0 0-8.531 8.53 8.533 8.533 0 0 0 8.531 8.536zM196.266 298.668a8.534 8.534 0 1 0 0-17.066h-17.067a8.532 8.532 0 0 0-8.531 8.53 8.533 8.533 0 0 0 8.531 8.536zM51.2 332.8h136.534c4.711 0 8.532-3.82 8.532-8.534 0-4.711-3.82-8.532-8.532-8.532H51.2a8.532 8.532 0 0 0-8.531 8.532 8.533 8.533 0 0 0 8.531 8.535zM51.2 366.934h42.667c4.711 0 8.531-3.82 8.531-8.536 0-4.71-3.82-8.53-8.53-8.53H51.198a8.532 8.532 0 0 0-8.531 8.53 8.533 8.533 0 0 0 8.531 8.536zM187.734 349.867H128c-4.71 0-8.535 3.82-8.535 8.531a8.536 8.536 0 0 0 8.535 8.536h59.734c4.711 0 8.532-3.82 8.532-8.536 0-4.71-3.82-8.53-8.532-8.53zM51.2 401.066h119.468a8.533 8.533 0 0 0 0-17.066H51.199a8.533 8.533 0 0 0-8.531 8.535c0 4.711 3.82 8.531 8.531 8.531zM51.2 435.2h153.6c4.712 0 8.532-3.821 8.532-8.532a8.533 8.533 0 0 0-8.531-8.535H51.199a8.533 8.533 0 0 0-8.531 8.535c0 4.71 3.82 8.531 8.531 8.531zm0 0" fill="#f5821f" opacity="1" data-original="#000000" class=""></path></g></svg>