<svg id="Layer_1" enable-background="new 0 0 64 64" viewBox="0 0 64 64" xmlns="http://www.w3.org/2000/svg"><g><g><path d="m31.09 32.24h-14.5c-.55 0-1-.45-1-1 0-4.55 3.7-8.25 8.25-8.25s8.25 3.7 8.25 8.25c0 .56-.45 1-1 1zm-13.42-2h12.34c-.48-2.97-3.06-5.25-6.17-5.25s-5.69 2.28-6.17 5.25z"/></g><g><path d="m23.84 24.99c-2.85 0-5.18-2.32-5.18-5.18 0-2.85 2.32-5.18 5.18-5.18 2.85 0 5.18 2.32 5.18 5.18-.01 2.86-2.33 5.18-5.18 5.18zm0-8.35c-1.75 0-3.18 1.42-3.18 3.18s1.42 3.18 3.18 3.18c1.75 0 3.18-1.43 3.18-3.18s-1.43-3.18-3.18-3.18z"/></g></g><g><g><path d="m23.88 43.96c-.13 0-.26 0-.39 0-5.33-.1-10.31-2.27-14.01-6.12-3.7-3.84-5.68-8.9-5.58-14.23.1-5.34 2.28-10.31 6.12-14.01 7.93-7.64 20.6-7.39 28.24.54 7.64 7.93 7.39 20.6-.54 28.24-3.75 3.6-8.65 5.58-13.84 5.58zm-.02-37.93c-4.49 0-8.98 1.66-12.46 5.01-3.46 3.33-5.41 7.8-5.5 12.6s1.69 9.35 5.02 12.8c3.33 3.46 7.8 5.41 12.6 5.5 4.83.09 9.35-1.69 12.81-5.02 7.14-6.87 7.36-18.27.48-25.41-3.52-3.64-8.23-5.48-12.95-5.48z"/></g><g><path d="m43.03 47.98h-.01c-.27 0-.52-.11-.71-.31l-7.63-7.92c-.38-.4-.37-1.03.03-1.41s1.03-.37 1.41.03l6.94 7.2 1.65-1.59-6.93-7.2c-.38-.4-.37-1.03.03-1.41s1.03-.37 1.41.03l7.62 7.92c.38.4.37 1.03-.03 1.41l-.13.13c-.02.02-.05.04-.07.06l-2.71 2.62c-.01.01-.03.03-.04.04l-.12.12c-.19.18-.45.28-.71.28z"/></g><g><path d="m54.65 61.41c-.7 0-1.4-.27-1.92-.81l-10.32-10.71c-1.01-1.06-1-2.69.02-3.72.02-.02.03-.04.05-.05l1.69-1.64c.03-.03.07-.06.11-.09l.97-.94c.01-.01.01-.01.02-.02.03-.03.06-.06.09-.08 1.07-.92 2.7-.85 3.67.17l10.32 10.71c.5.51.76 1.19.75 1.9s-.31 1.38-.82 1.88l-2.77 2.67c-.52.49-1.19.73-1.86.73zm-10.79-13.84c-.25.25-.25.67 0 .94l10.32 10.71c.25.26.69.27.96.01l2.77-2.67c.13-.12.2-.29.21-.47 0-.18-.06-.35-.19-.48l-10.34-10.72c-.25-.26-.67-.27-.93-.03-.02.02-.04.04-.06.05l-1.02.99c-.04.03-.07.06-.11.09l-1.58 1.53c-.01.03-.02.04-.03.05z"/></g><g><path d="m23.84 40.52c-4.35 0-8.69-1.7-11.94-5.07-3.07-3.19-4.71-7.38-4.63-11.81s1.89-8.55 5.08-11.62c6.58-6.34 17.09-6.14 23.43.45 3.07 3.19 4.71 7.38 4.63 11.81s-1.89 8.55-5.08 11.62c-3.21 3.08-7.35 4.62-11.49 4.62zm-.01-31.13c-3.64 0-7.28 1.35-10.1 4.07-2.8 2.7-4.39 6.33-4.46 10.22s1.37 7.58 4.07 10.38c5.57 5.79 14.81 5.97 20.6.39 2.8-2.7 4.39-6.33 4.46-10.22s-1.37-7.58-4.07-10.38c-2.85-2.97-6.67-4.46-10.5-4.46z"/></g></g><g><g><path d="m58.52 35.63c-.55 0-1-.45-1-1 0-2.68-2.18-4.87-4.87-4.87s-4.87 2.18-4.87 4.87c0 .55-.45 1-1 1s-1-.45-1-1c0-3.79 3.08-6.87 6.87-6.87s6.87 3.08 6.87 6.87c0 .55-.45 1-1 1z"/></g><g><path d="m52.65 29.76c-2.41 0-4.38-1.96-4.38-4.38s1.97-4.38 4.38-4.38 4.38 1.96 4.38 4.38-1.96 4.38-4.38 4.38zm0-6.76c-1.31 0-2.38 1.07-2.38 2.38s1.07 2.38 2.38 2.38 2.38-1.07 2.38-2.38-1.06-2.38-2.38-2.38z"/></g></g><g><g><path d="m35.99 60.17c-.55 0-1-.45-1-1 0-2.54-2.07-4.61-4.61-4.61s-4.61 2.07-4.61 4.61c0 .55-.45 1-1 1s-1-.45-1-1c0-3.64 2.96-6.61 6.61-6.61s6.61 2.96 6.61 6.61c0 .56-.45 1-1 1z"/></g><g><path d="m30.38 54.57c-2.33 0-4.23-1.9-4.23-4.23s1.9-4.23 4.23-4.23 4.23 1.9 4.23 4.23-1.9 4.23-4.23 4.23zm0-6.46c-1.23 0-2.23 1-2.23 2.23s1 2.23 2.23 2.23 2.23-1 2.23-2.23-1-2.23-2.23-2.23z"/></g></g><g><g><path d="m14.72 54.14c-.55 0-1-.45-1-1 0-2.03-1.65-3.68-3.68-3.68s-3.68 1.65-3.68 3.68c0 .55-.45 1-1 1s-1-.45-1-1c0-3.13 2.55-5.68 5.68-5.68s5.68 2.55 5.68 5.68c0 .55-.45 1-1 1z"/></g><g><path d="m10.04 49.46c-2.04 0-3.69-1.66-3.69-3.69s1.66-3.69 3.69-3.69c2.04 0 3.7 1.66 3.7 3.69s-1.66 3.69-3.7 3.69zm0-5.39c-.93 0-1.69.76-1.69 1.69s.76 1.69 1.69 1.69 1.7-.76 1.7-1.69-.76-1.69-1.7-1.69z"/></g></g><g><g><path d="m53.5 14.5c-.55 0-1-.45-1-1 0-1.99-1.62-3.61-3.61-3.61s-3.61 1.62-3.61 3.61c0 .55-.45 1-1 1s-1-.45-1-1c0-3.09 2.52-5.61 5.61-5.61s5.61 2.52 5.61 5.61c0 .56-.45 1-1 1z"/></g><g><path d="m48.89 9.89c-2.02 0-3.66-1.64-3.66-3.66s1.64-3.66 3.66-3.66 3.66 1.64 3.66 3.66c-.01 2.02-1.65 3.66-3.66 3.66zm0-5.31c-.91 0-1.66.74-1.66 1.66s.74 1.66 1.66 1.66 1.66-.74 1.66-1.66-.75-1.66-1.66-1.66z"/></g></g></svg>