<?xml version="1.0" encoding="UTF-8"?>
<svg version="1.1" xmlns="http://www.w3.org/2000/svg" width="2133" height="2133">
<path d="M0 0 C1.1103525 -0.00352842 2.220705 -0.00705684 3.36470455 -0.01069218 C4.57661695 -0.0094944 5.78852934 -0.00829663 7.03716636 -0.00706255 C8.33607607 -0.00971438 9.63498579 -0.01236621 10.97325641 -0.01509839 C14.58825734 -0.02232471 18.20323749 -0.02332768 21.81824467 -0.02332116 C25.7475449 -0.02439138 29.67683593 -0.03118305 33.60613108 -0.03722787 C41.40365475 -0.04829839 49.20117393 -0.05395083 56.99870408 -0.05793675 C66.33672638 -0.06294726 75.67473996 -0.07367486 85.0127571 -0.08441848 C107.58187051 -0.1100429 130.1509873 -0.12508202 152.72011107 -0.13792895 C160.19389779 -0.14218358 167.66768426 -0.1467493 175.14147067 -0.15151227 C214.87301199 -0.17676907 254.60455372 -0.198819 294.33610129 -0.21124041 C303.54052203 -0.21416177 312.74494276 -0.21712929 321.94936347 -0.22014582 C323.66467263 -0.22070219 323.66467263 -0.22070219 325.41463449 -0.22126979 C362.50554946 -0.23343006 399.59641703 -0.26438298 436.68730973 -0.30606735 C474.81230009 -0.34883583 512.9372654 -0.37547885 551.0622804 -0.38071512 C556.4447032 -0.38145559 561.82712596 -0.38236628 567.20954871 -0.3833729 C568.79853349 -0.38365882 568.79853349 -0.38365882 570.41961897 -0.38395052 C587.47977928 -0.38746651 604.53988026 -0.4077752 621.60001876 -0.43416954 C638.74089122 -0.46028941 655.88169501 -0.46805203 673.02258453 -0.45706825 C683.20970767 -0.45108361 693.39659818 -0.45904428 703.5836862 -0.48689909 C710.38667977 -0.50412653 717.18951437 -0.50322282 723.99251128 -0.4875314 C727.86989579 -0.47910522 731.74683575 -0.47858766 735.62417939 -0.50014286 C739.80180675 -0.52318097 743.97840226 -0.50751261 748.15604758 -0.48808062 C749.35859531 -0.50092984 750.56114305 -0.51377906 751.80013162 -0.52701765 C761.11488679 -0.43146713 768.28919987 1.82435661 774.96594501 8.50667226 C776.11381884 9.80530585 777.24517818 11.11867263 778.3620069 12.44409978 C779.31588399 13.53367685 779.31588399 13.53367685 780.28903133 14.64526558 C781.6719333 16.22714691 783.0480154 17.81501095 784.41793656 19.40814698 C788.24797218 23.85606652 792.13857899 28.2508046 796.01905036 32.65470159 C796.84542318 33.59524109 797.67179599 34.5357806 798.52321041 35.5048213 C815.96087557 55.32368988 833.93312784 74.6687774 852.03578925 93.87995183 C852.53007068 94.40478568 853.02435212 94.92961952 853.53361177 95.47035742 C915.96786292 165.58817164 915.96786292 165.58817164 1001.16871256 194.7529887 C1009.35679098 194.90637378 1017.45765694 194.33901412 1025.59828925 193.50495183 C1026.30981257 193.43314891 1027.02133589 193.36134599 1027.75442052 193.28736722 C1041.426033 191.87003904 1054.8640887 189.71733803 1068.19512439 186.31721818 C1085.31315881 181.96003684 1100.13854758 183.88195282 1116.72328925 189.81745183 C1118.22931708 190.34073064 1118.22931708 190.34073064 1119.76576972 190.87458074 C1152.33147534 202.53998631 1179.21463591 227.4753177 1194.16078925 258.56745183 C1204.45188565 280.72827884 1206.80903162 301.95500126 1206.74609464 326.16718944 C1206.74023546 329.70832043 1206.7518695 333.24940434 1206.76115632 336.7905221 C1206.77501014 342.98339039 1206.77781932 349.17618564 1206.77319694 355.3690666 C1206.76634127 364.57803125 1206.77665208 373.78692243 1206.79015449 382.99587687 C1206.81501828 400.39972781 1206.81958589 417.80354798 1206.81768852 435.20741384 C1206.81631413 448.64373654 1206.82013953 462.0800486 1206.82761359 475.51636922 C1206.82866393 477.44840917 1206.82971155 479.38044912 1206.83075646 481.31248907 C1206.8312758 482.27156623 1206.83179514 483.23064338 1206.83233023 484.21878348 C1206.83311044 485.66005169 1206.83311044 485.66005169 1206.83390641 487.13043642 C1206.8344304 488.09291105 1206.8349544 489.05538569 1206.83549427 490.04702622 C1206.85006922 517.10187389 1206.8583635 544.15671767 1206.85374427 571.21156919 C1206.85357231 572.23071719 1206.85340036 573.24986519 1206.85322319 574.29989646 C1206.85233433 579.46509917 1206.85138952 584.63030186 1206.85042518 589.79550456 C1206.85023415 590.82129645 1206.85004312 591.84708835 1206.8498463 592.90396485 C1206.8494592 594.97835969 1206.84906888 597.05275453 1206.84867532 599.12714937 C1206.84270116 631.42726641 1206.85816549 663.72731187 1206.89028144 696.02741277 C1206.92634756 732.33095737 1206.94569302 768.63445659 1206.94074273 804.93802023 C1206.94027276 808.80748983 1206.9398625 812.67695943 1206.93949103 816.54642904 C1206.93938865 817.49916778 1206.93928626 818.45190653 1206.93918077 819.43351615 C1206.93798565 833.81946911 1206.94995643 848.20537302 1206.96863532 862.59131277 C1206.98985833 878.94439963 1206.99373592 895.29738352 1206.97433573 911.65047495 C1206.96400057 920.80229951 1206.96750254 929.95387295 1206.99086658 939.10567487 C1207.00508925 945.218226 1207.00114479 951.33059115 1206.98242082 957.4431297 C1206.97226278 960.92599178 1206.96995902 964.40836478 1206.9897415 967.89119647 C1207.00684966 971.64544057 1206.99324187 975.39836941 1206.97190833 979.15256345 C1206.98418586 980.23032246 1206.99646338 981.30808146 1207.00911295 982.41849983 C1206.91254959 990.53330249 1204.96065943 997.20344758 1199.37367448 1003.2762804 C1191.94182152 1010.28103004 1185.78728958 1011.66706625 1175.72328925 1011.41120183 C1168.16793011 1010.78158857 1162.3212174 1007.93775113 1157.34828925 1002.12995183 C1153.35162792 995.68572271 1151.22405058 989.76165545 1151.2222814 982.15436608 C1151.21962559 981.16963868 1151.21696978 980.18491129 1151.21423349 979.17034367 C1151.21639955 978.0938887 1151.2185656 977.01743374 1151.2207973 975.90835893 C1151.21833155 974.17968914 1151.21833155 974.17968914 1151.21581599 972.41609672 C1151.2122385 969.2071533 1151.21314399 965.99824649 1151.2158893 962.78930338 C1151.21776254 959.30183629 1151.21381627 955.81437514 1151.21057612 952.32690972 C1151.20567917 946.21101299 1151.20443075 940.09512398 1151.20554137 933.97922552 C1151.2071502 924.88421631 1151.20299147 915.78921627 1151.19746089 906.69420892 C1151.18880471 892.33083271 1151.18344626 877.96745772 1151.18025938 863.60407935 C1151.17511807 840.79548544 1151.15965351 817.98690719 1151.1406829 795.178321 C1151.13666131 790.324577 1151.13274042 785.47083293 1151.12881655 780.61708885 C1151.12803389 779.64947873 1151.12725123 778.68186861 1151.12644486 777.68493697 C1151.12485927 775.7241228 1151.12327445 773.76330863 1151.12169037 771.80249446 C1151.12009909 769.83439229 1151.11850484 767.86629013 1151.11690764 765.89818796 C1151.09807241 742.68206807 1151.08098915 719.46594713 1151.06533027 696.24982488 C1151.06464135 695.23384874 1151.06395243 694.2178726 1151.06324263 693.1711093 C1151.04098866 660.23812759 1151.02914447 627.3051504 1151.02166371 594.37216237 C1151.01389636 560.51246214 1150.99282708 526.65279286 1150.9561211 492.79311116 C1150.95094755 488.00921552 1150.94594018 483.22531971 1150.94104171 478.44142377 C1150.93959127 477.02917774 1150.93959127 477.02917774 1150.93811153 475.58840148 C1150.92297831 460.44577579 1150.92207454 445.30318113 1150.92669884 430.16054995 C1150.93108646 414.933876 1150.92115098 399.70726558 1150.89661177 384.48061027 C1150.88248976 375.43901129 1150.87946091 366.39756812 1150.8924543 357.35596661 C1150.90004763 351.30882931 1150.89306321 345.26181977 1150.87447279 339.21470664 C1150.8643082 335.77399179 1150.86026139 332.33358862 1150.87409803 328.89287945 C1150.9263788 312.06705643 1150.79938724 296.0357302 1142.66078925 280.81745183 C1142.31975165 280.16067449 1141.97871406 279.50389715 1141.62734199 278.82721746 C1132.11988587 261.17143782 1115.50336911 247.99986954 1096.34828925 242.12995183 C1084.9207201 239.37973881 1074.08106289 238.71826376 1062.37953925 238.83698308 C1060.7208925 238.84259759 1059.06224067 238.84685888 1057.4035871 238.84984624 C1053.09641329 238.8611494 1048.78955649 238.89048604 1044.48250556 238.92395818 C1040.06411246 238.95497774 1035.64566675 238.96841879 1031.2271955 238.98346746 C1022.60075002 239.01537412 1013.97455937 239.06638772 1005.34828925 239.12995183 C1006.29336341 240.06170232 1006.29336341 240.06170232 1007.25752997 241.01227605 C1013.21171198 246.88609948 1019.15606718 252.76965718 1025.0897634 258.6641773 C1028.14021968 261.69381524 1031.19425962 264.71964274 1034.25698066 267.73688543 C1037.21603727 270.65227909 1040.16503355 273.57751581 1043.10749793 276.50965154 C1044.22825048 277.62304935 1045.35250092 278.73293823 1046.48037696 279.83911932 C1060.91745169 294.00959375 1060.91745169 294.00959375 1061.47485109 304.5153693 C1061.47559007 305.40970853 1061.47632905 306.30404777 1061.47709042 307.22548819 C1061.48036261 308.26254207 1061.48363481 309.29959596 1061.48700616 310.36807573 C1061.48552253 311.50823357 1061.48403891 312.64839141 1061.48251033 313.82309949 C1061.48486256 315.03865959 1061.48721479 316.25421968 1061.4896383 317.50661492 C1061.49516917 320.89719117 1061.49619922 324.28771575 1061.49536089 327.67829292 C1061.49553021 331.36082268 1061.50143438 335.0433439 1061.50660175 338.72586942 C1061.51593631 346.03716857 1061.51985124 353.34846167 1061.52212072 360.65976604 C1061.52508055 369.41422288 1061.53377664 378.16867165 1061.542535 386.92312426 C1061.56338894 408.0842917 1061.57385051 429.24546055 1061.5826646 450.40663587 C1061.58686957 460.4146255 1061.59209175 470.42261453 1061.59734913 480.43060365 C1061.61523973 514.6798119 1061.63023657 548.92902032 1061.63766932 583.17823255 C1061.63814408 585.32879456 1061.63861997 587.47935656 1061.63909699 589.62991857 C1061.63945155 591.22966721 1061.63945155 591.22966721 1061.63981328 592.86173401 C1061.64101449 598.26526756 1061.64222994 603.6688011 1061.64345527 609.07233465 C1061.64369542 610.14468741 1061.64393557 611.21704017 1061.64418299 612.32188847 C1061.65207771 647.09807578 1061.67551289 681.87422901 1061.70801121 716.65040144 C1061.74229664 753.40595334 1061.76201925 790.1614853 1061.76531357 826.91705346 C1061.76573111 830.95072584 1061.76621068 834.98439821 1061.76673675 839.01807058 C1061.76685994 840.01129554 1061.76698313 841.00452051 1061.76711005 842.0278432 C1061.76944363 858.02251549 1061.78511234 874.01714824 1061.80557859 890.01180643 C1061.82581834 906.08424027 1061.83132265 922.15662652 1061.82180796 938.22907074 C1061.81658586 947.78072419 1061.82250389 957.33221944 1061.84434263 966.88385018 C1061.85782783 973.26333187 1061.85679393 979.64270438 1061.84394067 986.02218711 C1061.83702884 989.65767332 1061.83642599 993.29285658 1061.85350076 996.92831601 C1061.8717524 1000.84627207 1061.8590029 1004.76378256 1061.84327388 1008.68175733 C1061.85860719 1010.3709236 1061.85860719 1010.3709236 1061.87425026 1012.09421444 C1061.80159992 1020.36142017 1059.92476102 1026.76976884 1055.72328925 1033.87995183 C1048.82706784 1040.41321422 1041.53709184 1043.55182493 1032.1334455 1043.39948308 C1023.97701744 1042.61015134 1017.87205567 1039.42344 1012.1021955 1033.71588933 C1006.8328207 1025.94678885 1005.76615855 1018.37919482 1005.85609794 1009.17033994 C1005.85148256 1007.99888878 1005.84686718 1006.82743761 1005.84211195 1005.62048793 C1005.83337535 1002.38145085 1005.84247355 999.14304152 1005.85922448 995.9040546 C1005.87302127 992.37573176 1005.86346675 988.84745778 1005.85691452 985.3191247 C1005.84863551 979.13968871 1005.85516722 972.96040707 1005.87146735 966.78098905 C1005.8956374 957.59249655 1005.8968078 948.40410108 1005.8932994 939.21558258 C1005.88804709 923.75804302 1005.90139691 908.30057191 1005.92536902 892.84305227 C1005.94904164 877.53941163 1005.96443372 862.23579952 1005.96878028 846.93214071 C1005.96905524 845.98040787 1005.9693302 845.02867503 1005.96961349 844.04810179 C1005.97096683 839.21468055 1005.97217236 834.38125928 1005.97332099 829.54783799 C1005.98172139 795.31770289 1006.00866733 761.08760502 1006.04653144 726.8574909 C1006.08327215 693.60456322 1006.11160514 660.35164574 1006.12856269 627.09870183 C1006.12908879 626.07360068 1006.1296149 625.04849954 1006.13015695 623.99233471 C1006.13543105 613.69779524 1006.1405343 603.40325569 1006.14551238 593.10871606 C1006.15565708 572.13777694 1006.16694209 551.16683848 1006.17891669 530.19590032 C1006.17946585 529.23170233 1006.18001501 528.26750434 1006.18058081 527.27408823 C1006.21738 462.89269394 1006.2807604 398.51132032 1006.34828925 334.12995183 C1005.23529236 334.1345608 1004.12229547 334.13916976 1002.97557139 334.1439184 C975.83940886 334.25513112 948.70327603 334.33718235 921.56693339 334.38901269 C908.44375781 334.41474648 895.32073316 334.44980464 882.19765449 334.5071491 C870.75377219 334.55713189 859.30999927 334.58927788 847.86601084 334.60039431 C841.81173852 334.60688787 835.75777897 334.62204865 829.70360732 334.65860212 C823.99330155 334.69279677 818.28343439 334.7029577 812.57303596 334.69549024 C810.48866549 334.69685436 808.40427879 334.7066456 806.31999755 334.72597921 C784.15708469 334.92129978 765.17265619 330.13419727 748.54994941 314.54938543 C735.14820802 301.26548147 726.50612158 282.91886561 726.22524142 263.92649972 C726.22107904 262.33897255 726.22234182 260.75142507 726.22803473 259.16390264 C726.22718031 258.28404146 726.22632589 257.40418028 726.22544557 256.49765664 C726.22380406 253.56199772 726.22929032 250.62639647 726.23476386 247.69074285 C726.23504605 245.58136278 726.23488739 243.47198261 726.23432136 241.36260259 C726.2340346 235.6441826 726.23991167 229.92578361 726.24689531 224.20736849 C726.25314911 218.22827118 726.25373426 212.24917338 726.25492072 206.27007329 C726.25802805 194.95135863 726.2662334 183.63265362 726.27627021 172.31394321 C726.28744989 159.42648202 726.29294648 146.53902037 726.29796565 133.65155554 C726.3084165 107.14434895 726.32600439 80.63715093 726.34828925 54.12995183 C658.18931722 54.19106721 590.03034761 54.25464024 521.87139106 54.3312763 C520.86254204 54.33240992 519.85369302 54.33354354 518.81427282 54.33471152 C496.88902005 54.35936323 474.96376781 54.38445612 453.03851607 54.41000345 C442.28630514 54.42252925 431.5340941 54.43495757 420.781883 54.44733465 C419.17692563 54.44918463 419.17692563 54.44918463 417.53954487 54.45107199 C382.86160854 54.49099854 348.18366963 54.52448843 313.50572353 54.55463874 C277.86824465 54.58565732 242.23077837 54.62317291 206.59331513 54.66885795 C201.55923335 54.67530831 196.52515148 54.68168443 191.49106956 54.68801534 C190.0049071 54.6898878 190.0049071 54.6898878 188.48872115 54.69179808 C172.54299062 54.71169766 156.59726149 54.72475276 140.6515223 54.73524511 C124.61885856 54.74594084 108.58621574 54.76385495 92.55356823 54.78911887 C83.02949126 54.80390785 73.5054463 54.8131806 63.98135775 54.81451867 C57.61499337 54.81595902 51.248665 54.82462886 44.882317 54.83910776 C41.2576117 54.84714647 37.63297708 54.85210773 34.00826328 54.84823065 C30.09499839 54.84411861 26.18186167 54.85549131 22.26861358 54.86823881 C20.59830734 54.86276428 20.59830734 54.86276428 18.89425755 54.85717916 C-0.50903777 54.96577093 -16.59400927 59.01908909 -31.08921075 72.37604558 C-46.87886743 88.61912146 -48.11194725 108.29293189 -48.02923417 129.65899694 C-48.03236837 131.71675054 -48.03681566 133.77450249 -48.04244727 135.83225077 C-48.05409925 141.47589745 -48.04715546 147.11938958 -48.03711341 152.76303367 C-48.02949131 158.90709224 -48.03928782 165.05112744 -48.04684341 171.19518268 C-48.05767367 181.9599011 -48.0574542 192.72456157 -48.04970193 203.48927915 C-48.04143769 215.03536008 -48.03971554 226.58141455 -48.04591393 238.12749708 C-48.04630145 238.85773932 -48.04668897 239.58798156 -48.04708823 240.34035236 C-48.04868811 243.31469142 -48.05033424 246.28903045 -48.05203906 249.26336946 C-48.06789409 276.94469644 -48.0689889 304.6260057 -48.0605967 332.30733526 C-48.06034832 333.12702249 -48.06009993 333.94670972 -48.05984402 334.79123596 C-48.05959523 335.61223907 -48.05934644 336.43324217 -48.05909011 337.27912416 C-48.05151869 362.29783786 -48.04956726 387.31654423 -48.05315804 412.33525884 C-48.05339048 414.01103846 -48.05362195 415.68681808 -48.05385245 417.3625977 C-48.05478387 424.0969692 -48.05573987 430.83134069 -48.05673175 437.56571218 C-48.05948268 456.39072183 -48.06119455 475.2157315 -48.06209016 494.04074132 C-48.0621311 494.89796653 -48.06217203 495.75519174 -48.06221421 496.63839347 C-48.06344193 523.95069759 -48.06006198 551.26299916 -48.05354142 578.57530248 C-48.0532253 579.90395265 -48.0532253 579.90395265 -48.05290279 581.25944423 C-48.04946801 595.64345432 -48.04580959 610.02746435 -48.04213227 624.41147438 C-48.02756342 681.4590794 -48.02823963 738.50666331 -48.04282403 795.55426824 C-48.04648764 809.93104587 -48.05012081 824.3078235 -48.05354142 838.68460119 C-48.05375277 839.56984825 -48.05396411 840.45509531 -48.05418186 841.36716803 C-48.06065102 868.65116648 -48.06339312 895.93516316 -48.06209016 923.21916234 C-48.06202903 924.50405429 -48.06202903 924.50405429 -48.06196666 925.81490365 C-48.0610292 944.619047 -48.05912824 963.42319017 -48.05635865 982.22733333 C-48.05537124 988.95566127 -48.05443199 995.68398922 -48.05350652 1002.41231717 C-48.05327435 1004.0861288 -48.05303816 1005.75994044 -48.05279793 1007.43375208 C-48.04921805 1032.44539372 -48.05226473 1057.4570271 -48.05984402 1082.46866771 C-48.0602166 1083.69819856 -48.0602166 1083.69819856 -48.0605967 1084.95256841 C-48.06096878 1086.17982814 -48.06096878 1086.17982814 -48.06134836 1087.43188099 C-48.06962498 1115.03383169 -48.06657522 1142.63576114 -48.05075447 1170.23770881 C-48.04909743 1173.20260805 -48.04748732 1176.16750731 -48.04591393 1179.13240659 C-48.04552331 1179.86003643 -48.04513269 1180.58766628 -48.04473024 1181.33734551 C-48.03881667 1192.85154738 -48.04292893 1204.36572278 -48.05122095 1215.87992226 C-48.05916339 1227.20595994 -48.05610677 1238.53194202 -48.04217869 1249.85797807 C-48.03503407 1255.91470338 -48.03261958 1261.97132852 -48.04339664 1268.02805072 C-48.05310655 1273.54121197 -48.04894293 1279.05418443 -48.03385466 1284.56733199 C-48.03084061 1286.54619793 -48.03281186 1288.52507959 -48.04047247 1290.50393299 C-48.11421709 1311.01355921 -45.97489708 1329.483172 -30.96421075 1344.95026433 C-16.8374267 1358.26571282 -1.0249903 1362.62016104 18.16678977 1362.50353944 C19.51627634 1362.50625983 20.86576077 1362.51029665 22.21524 1362.51551375 C25.90166988 1362.52601141 29.58785664 1362.51802965 33.2742759 1362.50688418 C37.2930794 1362.49809007 41.31185205 1362.5068464 45.33065462 1362.51335233 C52.36684687 1362.52236914 59.40296822 1362.52037982 66.43915915 1362.51111066 C76.90210999 1362.49740403 87.36500516 1362.50100124 97.82795993 1362.50827512 C115.43241357 1362.52010674 133.0368417 1362.5186109 150.64129615 1362.51007688 C174.67949244 1362.49864524 198.7176504 1362.5078139 222.75584325 1362.52263869 C233.95751976 1362.52953106 245.15919678 1362.53547324 256.36087394 1362.5412153 C257.48216837 1362.54179204 258.6034628 1362.54236878 259.75873585 1362.542963 C286.43767447 1362.5564853 313.11661324 1362.56107349 339.79555488 1362.56378973 C340.96265719 1362.56391287 342.12975951 1362.56403602 343.33222857 1362.5641629 C369.38858511 1362.56687872 395.44494139 1362.56779165 421.50129805 1362.56673924 C432.14170136 1362.56631442 442.78210468 1362.56600692 453.422508 1362.56574285 C454.58959043 1362.56571007 455.75667285 1362.5656773 456.95912141 1362.56564353 C483.60037682 1362.56495794 510.2416251 1362.56756126 536.88287711 1362.58189523 C538.56196135 1362.58279774 538.56196135 1362.58279774 540.27496649 1362.58371848 C551.44942925 1362.5898157 562.62389141 1362.59658264 573.79835316 1362.604304 C597.8118742 1362.62078622 621.82533095 1362.62679062 645.83885407 1362.61146466 C663.33844213 1362.60049409 680.83798131 1362.60336053 698.33756474 1362.62065571 C708.73818624 1362.63046202 719.13866662 1362.62896375 729.53927883 1362.6115132 C736.48307249 1362.60094416 743.42676074 1362.6047898 750.37054462 1362.62041663 C754.32898758 1362.62890124 758.28715416 1362.63101497 762.24558201 1362.61550062 C765.84785893 1362.60149861 769.44962792 1362.60593829 773.05187744 1362.62497651 C774.95518858 1362.63030482 776.85852394 1362.61604226 778.76178265 1362.60094354 C787.49966126 1362.67489391 793.38337872 1364.46126205 800.59828925 1369.31745183 C806.42632181 1375.27793968 809.43088495 1381.95419654 809.66078925 1390.25495183 C809.5429574 1398.29965339 807.18294766 1404.50934054 801.78578925 1410.50495183 C793.82018271 1417.61829972 784.55145353 1418.72285149 774.23439479 1418.62214315 C773.05841303 1418.62675853 771.88243128 1418.6313739 770.67081371 1418.63612914 C767.42373215 1418.64485632 764.17727873 1418.63578138 760.93024741 1418.61901661 C757.39146624 1418.60520602 753.85273332 1418.61477693 750.3139419 1418.62132657 C744.11769401 1418.62960132 737.92160012 1418.62308118 731.72537017 1418.60677373 C722.51189459 1418.58259292 713.29851571 1418.58143428 704.08501418 1418.58494169 C688.58506933 1418.59019269 673.08519277 1418.57684917 657.58526778 1418.55287206 C642.24058737 1418.529196 626.89593541 1418.51380667 611.55123687 1418.50946081 C610.59680007 1418.50918585 609.64236328 1418.50891089 608.65900416 1418.5086276 C603.81181178 1418.50727425 598.96461938 1418.50606872 594.11742695 1418.5049201 C559.79356417 1418.49652065 525.46973853 1418.46957736 491.14589667 1418.43170965 C457.80279972 1418.39496643 424.45971294 1418.36663466 391.1165998 1418.3496784 C390.08864206 1418.34915229 389.06068433 1418.34862619 388.00157636 1418.34808414 C377.6783097 1418.34281002 367.35504297 1418.33770677 357.03177617 1418.3327287 C336.00248893 1418.32258412 314.97320235 1418.31129911 293.94391608 1418.29932439 C292.9770444 1418.29877523 292.01017273 1418.29822607 291.0140019 1418.29766027 C226.4587489 1418.26086373 161.90351652 1418.19748363 97.34828925 1418.12995183 C97.38666149 1425.95497291 97.44647025 1433.77952849 97.53219199 1441.60415781 C97.57137225 1445.23915519 97.60370231 1448.87392101 97.61928535 1452.50910223 C97.63464971 1456.03021296 97.66943244 1459.5506857 97.71659827 1463.07150877 C97.73822762 1465.04011394 97.74074583 1467.00890026 97.7426374 1468.97762334 C97.93464881 1481.05369949 100.40063444 1492.69437263 106.09828925 1503.44245183 C106.44045478 1504.10559392 106.78262031 1504.76873601 107.13515449 1505.45197332 C110.22108595 1511.24523329 113.92223885 1516.27849373 118.34828925 1521.12995183 C119.12366035 1522.04260808 119.12366035 1522.04260808 119.9146955 1522.97370183 C131.23036042 1535.45212932 149.88555097 1544.00215112 166.51923278 1545.29924147 C172.62925376 1545.5776105 178.74273431 1545.52689403 184.85747504 1545.50176275 C186.92738212 1545.50434061 188.9972879 1545.50824459 191.06719029 1545.51335233 C196.72882522 1545.52358772 202.39030338 1545.51534883 208.05193067 1545.5040555 C214.16785988 1545.49517925 220.28376744 1545.503712 226.39969611 1545.51026189 C236.98972129 1545.51940667 247.57969751 1545.51814294 258.16971946 1545.51007688 C273.49297426 1545.49862748 288.8161691 1545.50782945 304.13941853 1545.52263869 C311.28631392 1545.52952998 318.4332101 1545.53547264 325.5801065 1545.5412153 C326.2954426 1545.54179204 327.0107787 1545.54236878 327.74779166 1545.542963 C344.75687514 1545.55647692 361.76595886 1545.56107244 378.77504706 1545.56378973 C379.51884738 1545.56391287 380.2626477 1545.56403602 381.02898742 1545.5641629 C397.63314507 1545.56687844 414.2373023 1545.56779172 430.84146013 1545.56673924 C437.62173129 1545.56631441 444.40200246 1545.56600691 451.18227363 1545.56574285 C452.29782134 1545.56569369 452.29782134 1545.56569369 453.43590537 1545.56564353 C470.42062851 1545.56495761 487.40534047 1545.56757101 504.39005828 1545.58189523 C505.10419227 1545.5824969 505.81832626 1545.58309857 506.55410067 1545.58371848 C513.68413687 1545.58981654 520.81417214 1545.59658385 527.94420677 1545.604304 C543.24959092 1545.62076575 558.55487435 1545.62681461 573.86026174 1545.61146466 C585.01503703 1545.60047603 596.16973683 1545.60368256 607.32451107 1545.62065571 C613.36537273 1545.62935665 619.40605245 1545.63147402 625.4469049 1545.61612928 C630.9786084 1545.60218982 636.50998259 1545.60666034 642.04166822 1545.62565029 C644.04078879 1545.62925818 646.03993551 1545.62612505 648.0390311 1545.61550062 C670.59319857 1545.50372627 670.59319857 1545.50372627 679.78578925 1552.50495183 C685.95767177 1558.82736807 688.61630363 1565.06669938 688.78578925 1573.87995183 C688.64440781 1581.77236287 686.79749514 1587.31995035 681.48110175 1593.19245183 C674.78095711 1599.44939624 668.58936753 1601.58721047 659.60081649 1601.50747526 C658.30980009 1601.51401574 658.30980009 1601.51401574 656.99270254 1601.52068835 C654.10672731 1601.53164249 651.22123005 1601.52122166 648.33525825 1601.51090276 C646.24593156 1601.5143593 644.1566067 1601.51912384 642.06728566 1601.5250845 C636.32387252 1601.53762563 630.58060864 1601.53140978 624.83719492 1601.52212584 C618.64333221 1601.51534804 612.44949546 1601.52581057 606.25563788 1601.5340656 C594.82003197 1601.54664878 583.38449267 1601.54553783 571.94888709 1601.5373312 C561.37846761 1601.52978291 550.80806558 1601.52781513 540.23764396 1601.53139913 C539.53632809 1601.53162829 538.83501222 1601.53185744 538.11244436 1601.53209354 C535.26542539 1601.53302758 532.41840643 1601.53398279 529.57138747 1601.53497283 C502.85578674 1601.54415229 476.14021631 1601.53582738 449.42462025 1601.51968214 C425.7121486 1601.50546065 401.99972531 1601.50670586 378.2872541 1601.52106512 C351.6354427 1601.53715042 324.98365812 1601.54348572 298.33184254 1601.53422832 C295.48692577 1601.53326622 292.64200899 1601.5323277 289.7970922 1601.53139913 C289.09662345 1601.5311619 288.3961547 1601.53092467 287.67445962 1601.53068025 C277.12005643 1601.52727511 266.56567268 1601.53124538 256.01127219 1601.53883779 C243.99647974 1601.54743775 231.98175671 1601.54493778 219.96696635 1601.52899556 C213.84037264 1601.52113335 207.71387675 1601.51798604 201.58728385 1601.52794302 C195.96995501 1601.53693382 190.35281393 1601.53188512 184.73550193 1601.51601036 C182.71187081 1601.51268087 180.68822356 1601.51431492 178.66460295 1601.52163772 C140.10783462 1601.65037045 107.0393799 1588.5740938 79.41078925 1561.62995183 C58.67521267 1540.8871132 43.29460083 1510.47141898 42.22803473 1480.78255498 C42.23025535 1479.62561635 42.23247596 1478.46867773 42.23476386 1477.27668035 C42.23461783 1476.63192251 42.23447181 1475.98716466 42.23432136 1475.3228687 C42.23501108 1473.21816276 42.24275884 1471.11354833 42.250633 1469.00885808 C42.25250053 1467.53912693 42.25392285 1466.06939514 42.25492072 1464.59966314 C42.25871955 1460.75116002 42.26852704 1456.90269527 42.2796247 1453.05420721 C42.28989575 1449.11917424 42.29443049 1445.184135 42.29946113 1441.24909246 C42.31015193 1433.54269485 42.32719633 1425.83632874 42.34828925 1418.12995183 C41.20577704 1418.14566228 40.06326484 1418.16137273 38.88613105 1418.17755926 C34.54912919 1418.23285109 30.21215662 1418.26665329 25.87490058 1418.29474676 C24.01612293 1418.30961186 22.15737888 1418.32990989 20.2987287 1418.35627019 C4.38241043 1418.57595415 -11.76324577 1417.88384879 -26.90171075 1412.44245183 C-27.63148126 1412.18826482 -28.36125176 1411.93407781 -29.11313653 1411.67218816 C-41.56875272 1407.15577687 -52.42886142 1400.54793949 -62.65171075 1392.12995183 C-63.57596856 1391.37069402 -64.50022637 1390.61143621 -65.452492 1389.82917058 C-87.80047288 1370.51571044 -100.86503401 1342.96659265 -103.43962095 1313.68352063 C-103.90914651 1305.81661061 -103.78924212 1297.92990522 -103.7803452 1290.05183256 C-103.78169271 1287.99423192 -103.78347709 1285.93663152 -103.78565744 1283.8790316 C-103.79038403 1278.21718926 -103.78888686 1272.55536301 -103.78637966 1266.89351988 C-103.78474647 1260.73661685 -103.78888752 1254.57971726 -103.79228884 1248.42281532 C-103.79744404 1237.6292874 -103.7988946 1226.8357654 -103.79783273 1216.04223669 C-103.79670784 1204.46222981 -103.79774389 1192.88222614 -103.80140519 1181.30221975 C-103.80163484 1180.57046341 -103.8018645 1179.83870708 -103.80210111 1179.08477631 C-103.80304276 1176.10437174 -103.80399845 1173.12396718 -103.8049723 1170.14356263 C-103.81511411 1139.05961405 -103.81817819 1107.97566728 -103.81876441 1076.89171724 C-103.81882916 1073.54637352 -103.8188971 1070.20102979 -103.81896782 1066.85568607 C-103.81898482 1066.02552291 -103.81900183 1065.19535975 -103.81901935 1064.34004013 C-103.81942788 1045.94030815 -103.82161803 1027.5405765 -103.82412366 1009.1408447 C-103.82515203 1001.56348379 -103.82614206 993.98612288 -103.82713991 986.40876198 C-103.8272505 985.57151771 -103.82736109 984.73427344 -103.82747503 983.87165813 C-103.83379883 935.89553775 -103.83792418 887.9194176 -103.83746648 839.94329679 C-103.8374507 838.14800069 -103.83743496 836.35270458 -103.83741927 834.55740848 C-103.83734589 826.45186698 -103.83725772 818.34632547 -103.83716539 810.24078397 C-103.83712426 806.62634657 -103.83708412 803.01190917 -103.83704407 799.39747177 C-103.83702368 797.5883811 -103.83700266 795.77929044 -103.83698101 793.97019977 C-103.83630078 736.7661236 -103.84361792 679.56205362 -103.8575213 622.35797918 C-103.86102235 607.94540888 -103.86449182 593.53283857 -103.86778569 579.12026823 C-103.86798857 578.23281585 -103.86819144 577.34536347 -103.86840046 576.43101859 C-103.87461601 549.07634801 -103.87838113 521.72167793 -103.87964368 494.36700666 C-103.87968363 493.50810282 -103.87972358 492.64919898 -103.87976474 491.76426775 C-103.88061804 472.90869228 -103.8808792 454.05311684 -103.88059437 435.19754135 C-103.88049788 428.45056507 -103.88044584 421.7035888 -103.88041564 414.95661253 C-103.88040772 413.2781528 -103.88039752 411.59969306 -103.88038501 409.92123333 C-103.88020874 383.18448462 -103.88590459 356.44774121 -103.89453883 329.71099402 C-103.9031917 302.77965972 -103.9053775 275.84833277 -103.89877751 248.91699766 C-103.89786524 245.19336188 -103.89702196 241.4697261 -103.89621949 237.74609029 C-103.8960594 237.01617615 -103.89589932 236.28626201 -103.89573438 235.53422925 C-103.89338384 223.98929752 -103.89773324 212.44437851 -103.90489068 200.89944917 C-103.91179246 189.53976779 -103.91135768 178.18010998 -103.90369854 166.82042724 C-103.89980855 160.74700175 -103.89906588 154.67362127 -103.90715589 148.60019891 C-103.91445845 143.06951568 -103.91247035 137.53891476 -103.90323203 132.00823513 C-103.90151786 130.02524468 -103.90311559 128.04224771 -103.90853323 126.05926392 C-104.00070673 89.88406954 -95.28698756 57.8721906 -69.40171075 31.44245183 C-51.53160208 13.83452199 -25.58600288 0.02582188 0 0 Z M781.34828925 94.12995183 C781.23136618 116.12242666 781.14325707 138.11485007 781.08922839 160.10757291 C781.0634725 170.31972824 781.02837199 180.53169018 780.97109199 190.74372137 C780.92117694 199.64697043 780.88897923 208.5500794 780.87784678 217.45346451 C780.87134173 222.16560094 780.85610773 226.87733667 780.81963897 231.58934438 C780.78555133 236.02992116 780.7752619 240.46993443 780.78275084 244.91062963 C780.78138198 246.53514332 780.77152558 248.15967701 780.75226188 249.78407705 C780.65238148 258.64552177 780.68626582 266.7606996 786.34828925 274.12995183 C792.7840472 279.61736213 799.09764729 280.25645608 807.40978217 280.25020635 C808.44040186 280.25148799 808.44040186 280.25148799 809.49184215 280.25279552 C811.78109501 280.25443521 814.07027367 280.24895382 816.35951972 280.24347723 C818.00570399 280.243195 819.65188838 280.24335378 821.29807258 280.24391973 C825.75832989 280.24420633 830.21856025 280.23833176 834.67881131 280.23134577 C839.34330427 280.2250894 844.00779787 280.22450663 848.67229438 280.22332036 C857.50130116 280.22021379 866.33029554 280.21200947 875.15929687 280.20197088 C885.2124474 280.19078884 895.26559852 280.18529402 905.31875372 280.18027544 C925.99527248 280.1698263 946.67178008 280.15223989 967.34828925 280.12995183 C963.05919344 275.00686252 958.56877756 270.20789875 953.83795905 265.49263799 C952.73489377 264.38723272 952.73489377 264.38723272 951.60954434 263.25949603 C949.159184 260.80516552 946.70528708 258.35440287 944.25136542 255.90363348 C942.48837132 254.13928364 940.72558988 252.37472129 938.96300483 250.60996282 C934.68213428 246.32501248 930.39893617 242.04240187 926.1145735 237.76094414 C922.63462552 234.28325784 919.15565883 230.80459271 915.67738509 227.32523191 C914.93385309 226.58147006 914.93385309 226.58147006 914.17530024 225.82268272 C913.16828995 224.81535269 912.16128189 223.80802042 911.15427605 222.80068593 C901.72604953 213.3696121 892.29476742 203.94159872 882.86242817 194.51463842 C874.76295648 186.4196424 866.66612185 178.32201649 858.57118964 170.22248113 C849.16781845 160.81376525 839.76283622 151.40666467 830.35525471 142.00215846 C829.35353924 141.00076154 828.35182585 139.99936253 827.35011458 138.9979614 C826.85724948 138.50525058 826.36438438 138.01253975 825.85658398 137.5048983 C822.37703117 134.02621035 818.898643 130.54636045 815.42069793 127.06606519 C810.74865455 122.39093402 806.07398315 117.71844239 801.39749503 113.04775655 C799.67643671 111.32802683 797.95624052 109.60743385 796.23694396 107.88594282 C793.90148885 105.54778036 791.56301643 103.21267967 789.22370124 100.87838018 C788.53422705 100.18667527 787.84475287 99.49497037 787.13438553 98.7823047 C786.20165753 97.85348833 786.20165753 97.85348833 785.25008655 96.90590799 C784.70995919 96.36594298 784.16983183 95.82597798 783.61333698 95.2696504 C782.50824998 94.01839523 782.50824998 94.01839523 781.34828925 94.12995183 Z " fill="#21336D" transform="translate(393.6517107486725,24.87004816532135)"/>
<path d="M0 0 C8.16548836 7.63868266 11.72742283 16.97009693 12.125 28.0625 C12.34471732 39.16554844 6.53835925 49.55328975 1.71560669 59.24630737 C0.04457084 62.60564871 -1.60135626 65.97728473 -3.25 69.34765625 C-3.58639999 70.03388565 -3.92279999 70.72011505 -4.26939392 71.42713928 C-7.86478003 78.77915911 -11.31858748 86.19534612 -14.75 93.625 C-15.03471161 94.24084961 -15.31942322 94.85669922 -15.61276245 95.49121094 C-17.18287656 98.88835133 -18.749498 102.28708189 -20.3125 105.6875 C-17.21134632 107.28601162 -14.22025788 108.37187654 -10.875 109.375 C7.91316792 115.64532303 21.4608425 127.33213797 30.6875 144.6875 C38.73758994 162.03376261 40.35667438 180.50749697 34.3984375 198.75 C31.68849959 206.1353253 27.7754747 212.99017975 23.6875 219.6875 C24.20699219 220.45191406 24.72648437 221.21632813 25.26171875 222.00390625 C35.92702591 238.38629118 40.70866373 257.24209285 36.66113281 276.70947266 C33.75648158 288.84013464 28.07465512 299.70520517 20.6875 309.6875 C24.79835919 313.89158917 29.0000545 317.89793945 33.453125 321.73828125 C36.06601376 324.01770694 38.62680021 326.34962353 41.1875 328.6875 C44.30657011 331.53274228 47.43505391 334.3594958 50.625 337.125 C54.0343858 340.0863351 57.3654431 343.12902486 60.6875 346.1875 C64.64612186 349.83164329 68.6392676 353.42663717 72.703125 356.953125 C75.87998074 359.72974694 79.00749249 362.56055087 82.13671875 365.390625 C83.75556328 366.8483288 85.38230592 368.2973464 87.01953125 369.734375 C97.53440471 379.01117878 107.69099389 388.92051443 116.6875 399.6875 C117.85732422 401.02361328 117.85732422 401.02361328 119.05078125 402.38671875 C136.89667552 422.86555966 152.0379734 445.67739282 164.6875 469.6875 C165.20256104 470.65985596 165.20256104 470.65985596 165.72802734 471.65185547 C191.12321244 519.95589726 203.57581318 572.41300824 205.6875 626.6875 C205.73946533 627.93128418 205.73946533 627.93128418 205.79248047 629.20019531 C207.92402694 687.53307583 192.47945274 746.29171122 167.6875 798.6875 C167.29836426 799.5110498 166.90922852 800.33459961 166.50830078 801.18310547 C146.25202959 843.67895338 116.58340279 884.01391082 80.6875 914.6875 C79.75164063 915.50089844 78.81578125 916.31429687 77.8515625 917.15234375 C64.87997979 928.35823626 51.13383032 938.46668738 36.6875 947.6875 C35.59050781 948.39003906 34.49351562 949.09257812 33.36328125 949.81640625 C-10.69357958 977.39101308 -60.83280446 994.23960532 -112.3125 1000.6875 C-112.97793823 1000.77363556 -113.64337646 1000.85977112 -114.32897949 1000.94851685 C-128.42620124 1002.7276653 -142.43803984 1003.02866599 -156.63623047 1003.00317383 C-160.2799314 1003.00002812 -163.92280566 1003.02352193 -167.56640625 1003.04882812 C-189.54895977 1003.10898027 -211.37797659 1001.35607031 -232.9375 996.9375 C-234.22052002 996.68000977 -235.50354004 996.42251953 -236.82543945 996.15722656 C-267.99489154 989.79890921 -297.76043764 979.71894633 -326.3125 965.6875 C-327.14539551 965.28063965 -327.97829102 964.8737793 -328.83642578 964.45458984 C-357.29030036 950.41443319 -383.5364127 931.74598152 -406.703125 910.11328125 C-408.95123023 908.02335109 -411.23400911 905.99907261 -413.5625 904 C-420.38081505 898.07103039 -426.44307759 891.54081403 -432.3125 884.6875 C-433.20630698 883.66863501 -434.10090063 882.65045982 -434.99609375 881.6328125 C-498.33330763 809.25042328 -532.6258042 710.05890309 -526.8125 614.0234375 C-524.46633396 581.99003892 -518.4618143 551.20005657 -508.3125 520.6875 C-508.02213867 519.78467285 -507.73177734 518.8818457 -507.43261719 517.95166016 C-492.86719514 472.88621074 -466.32977271 430.99221628 -434.546875 396.140625 C-433.08651249 394.53728993 -431.6379964 392.92306259 -430.203125 391.296875 C-422.15600306 382.19246697 -413.66870885 373.36761831 -404.40234375 365.4921875 C-401.6511661 363.11640418 -398.98426298 360.65158306 -396.3125 358.1875 C-392.35423643 354.54297502 -388.36072234 350.9483541 -384.296875 347.421875 C-380.25875309 343.89249286 -376.29335319 340.28115774 -372.3125 336.6875 C-369.81562008 334.43953023 -367.31796849 332.19241993 -364.8203125 329.9453125 C-363.12657106 328.42041756 -361.43388831 326.89434598 -359.7421875 325.3671875 C-358.47761719 324.22636719 -358.47761719 324.22636719 -357.1875 323.0625 C-356.37023438 322.32515625 -355.55296875 321.5878125 -354.7109375 320.828125 C-351.81225724 318.24102926 -348.86894105 315.70874302 -345.90625 313.1953125 C-344.07880898 311.57876371 -344.07880898 311.57876371 -342.3125 308.6875 C-342.90417969 307.88828125 -343.49585938 307.0890625 -344.10546875 306.265625 C-356.12389616 289.7078635 -361.63483499 271.609941 -358.80859375 251.015625 C-356.53243751 239.10157289 -351.21139244 229.16766286 -345.3125 218.6875 C-345.75980469 218.04425781 -346.20710938 217.40101563 -346.66796875 216.73828125 C-357.91364362 199.92971391 -362.00545273 181.47551235 -358.125 161.5 C-355.48615531 150.61323144 -351.26279322 141.47052774 -344.3125 132.6875 C-343.66667969 131.85347656 -343.02085937 131.01945312 -342.35546875 130.16015625 C-333.35396816 119.32161473 -318.86037761 109.60309531 -304.62426758 108.1328125 C-303.81613113 108.04789551 -303.00799469 107.96297852 -302.17536926 107.87548828 C-301.56062241 107.81345215 -300.94587555 107.75141602 -300.3125 107.6875 C-301.12086304 105.99560547 -301.12086304 105.99560547 -301.94555664 104.26953125 C-303.9815385 100.00645337 -306.01406536 95.74173536 -308.0456543 91.4765625 C-308.91843896 89.64539777 -309.79210852 87.8146545 -310.66674805 85.984375 C-314.9940252 76.92762969 -319.30330547 67.86443358 -323.37109375 58.6875 C-323.65831802 58.04723877 -323.9455423 57.40697754 -324.24147034 56.74731445 C-328.75338241 46.4303962 -328.47706108 35.93505716 -324.57421875 25.4453125 C-320.59147964 16.74000659 -313.45699091 9.53103457 -304.734375 5.5078125 C-292.47290329 1.35473337 -282.35177846 3.19080737 -270.37646484 6.72583008 C-269.50973145 6.98130615 -268.64299805 7.23678223 -267.75 7.5 C-266.86650879 7.76127686 -265.98301758 8.02255371 -265.07275391 8.29174805 C-257.66058998 10.42724695 -250.19919992 12.04996601 -242.625 13.5 C-241.55113037 13.70665283 -240.47726074 13.91330566 -239.37084961 14.1262207 C-201.94010188 21.06626815 -170.0670148 12.65029264 -135.50415039 -1.19848633 C-97.90136168 -16.20756782 -34.62647482 -28.11005336 0 0 Z M-126.95874023 54.79882812 C-149.86503726 64.16620183 -173.4676441 70.01522743 -198.3125 70.6875 C-199.32570313 70.72746094 -200.33890625 70.76742188 -201.3828125 70.80859375 C-220.00839775 71.19758017 -238.8473135 68.95642488 -257.3125 66.6875 C-256.68004333 71.14759295 -254.9542928 74.86028134 -252.96875 78.8515625 C-252.63959595 79.52545013 -252.31044189 80.19933777 -251.97131348 80.89364624 C-250.92381336 83.03598077 -249.86856074 85.17437429 -248.8125 87.3125 C-247.75781973 89.45841125 -246.70479671 91.60511492 -245.65368652 93.7527771 C-245.00055283 95.0861618 -244.34512093 96.41842381 -243.68713379 97.74942017 C-242.39671683 100.37484025 -241.23910495 102.90768515 -240.3125 105.6875 C-187.8425 105.6875 -135.3725 105.6875 -81.3125 105.6875 C-71.25071302 84.38018641 -61.19502506 63.07743265 -51.3125 41.6875 C-71.8866734 29.63455108 -107.64278165 46.8816791 -126.95874023 54.79882812 Z M-301.75 167.375 C-304.25923855 172.69458572 -305.09770466 177.2856975 -303.25 182.9375 C-300.57679878 186.73172108 -297.51506941 189.58621529 -293.3125 191.6875 C-291.85903073 191.7839654 -290.40122428 191.81846844 -288.944561 191.82172108 C-288.02117927 191.82617892 -287.09779754 191.83063676 -286.14643455 191.83522969 C-285.12525165 191.83504533 -284.10406875 191.83486097 -283.05194092 191.83467102 C-281.97232409 191.83834771 -280.89270726 191.8420244 -279.78037477 191.8458125 C-276.13840919 191.85688474 -272.49647211 191.86069916 -268.85449219 191.86450195 C-266.25312712 191.87076389 -263.65176295 191.87741045 -261.05039978 191.88441467 C-253.22615064 191.90418934 -245.40190019 191.91424672 -237.57763231 191.92314246 C-233.89446896 191.92752387 -230.21130705 191.93289107 -226.52814484 191.93813133 C-214.28676019 191.95514489 -202.04537644 191.96963939 -189.80398178 191.97688007 C-186.62631987 191.97879002 -183.44865797 191.98071034 -180.27099609 191.98266602 C-179.48118804 191.98314976 -178.69138 191.9836335 -177.87763837 191.9841319 C-165.08128504 191.99243341 -152.28502516 192.01777178 -139.48871264 192.05024669 C-126.35561434 192.08330499 -113.22256355 192.10132773 -100.08942342 192.10452431 C-92.71377982 192.1066906 -85.33827246 192.11545637 -77.96266937 192.14098549 C-71.02535475 192.16494184 -64.08828926 192.16852588 -57.15094185 192.15822411 C-54.60238645 192.15772704 -52.05381924 192.16409737 -49.50530052 192.17778015 C-46.03023441 192.19539595 -42.5560594 192.18844287 -39.08099365 192.17524719 C-38.06873364 192.18621644 -37.05647363 192.19718568 -36.01353908 192.20848733 C-30.2597355 192.15561509 -26.84594258 191.59393108 -22.3125 187.6875 C-18.99768957 184.01433168 -17.52064805 181.45675845 -16.9375 176.5 C-17.41451896 171.6503072 -18.86504493 168.17086606 -22.3125 164.6875 C-28.41926642 160.58904195 -33.9249601 160.11442081 -41.12927246 160.17956543 C-42.1962705 160.17332547 -43.26326854 160.1670855 -44.36259985 160.16065645 C-47.926205 160.14474357 -51.48912455 160.15732466 -55.05273438 160.16992188 C-57.61233417 160.16450003 -60.17193084 160.15737703 -62.73152161 160.14868164 C-68.95493602 160.13234496 -75.17809792 160.13472317 -81.4015156 160.1463322 C-86.46086435 160.15537787 -91.52015903 160.15658564 -96.57951355 160.15223694 C-97.30048913 160.15162401 -98.02146471 160.15101107 -98.76428804 160.15037957 C-100.22908693 160.14910062 -101.69388581 160.14780377 -103.15868467 160.1464892 C-116.8835077 160.13509201 -130.60822373 160.14818356 -144.33302921 160.16969067 C-156.10114205 160.1875609 -167.86909704 160.18445655 -179.63720703 160.16601562 C-193.31401558 160.14459366 -206.99073044 160.13619057 -220.66755342 160.14846468 C-222.12686442 160.14973883 -223.58617543 160.15099632 -225.04548645 160.15223694 C-225.76343363 160.15285404 -226.48138081 160.15347114 -227.22108397 160.15410694 C-232.27242751 160.15755588 -237.32371146 160.15174138 -242.37504578 160.14231873 C-249.17788588 160.12990739 -255.98038237 160.13878533 -262.78320885 160.16189575 C-265.2793141 160.1671831 -267.77544444 160.16566869 -270.27153969 160.15684509 C-273.67994042 160.14590773 -277.08738749 160.15963295 -280.49572754 160.17956543 C-281.48250535 160.17064254 -282.46928317 160.16171966 -283.48596334 160.15252638 C-290.9568995 160.23721727 -296.6251889 161.72456725 -301.75 167.375 Z M-301.75 253.375 C-304.25923855 258.69458572 -305.09770466 263.2856975 -303.25 268.9375 C-300.33178756 273.07947895 -297.21817035 276.05227655 -292.3125 277.6875 C-290.82813976 277.77983637 -289.3399755 277.81659456 -287.85274792 277.81892776 C-286.93434193 277.82276891 -286.01593594 277.82661005 -285.06969947 277.8305676 C-283.55396723 277.82926787 -283.55396723 277.82926787 -282.00761414 277.82794189 C-280.39915791 277.83239858 -280.39915791 277.83239858 -278.75820762 277.8369453 C-275.14698413 277.84565181 -271.53579372 277.84714219 -267.92456055 277.84863281 C-265.34275237 277.85325958 -262.76094487 277.85828405 -260.17913818 277.86367798 C-253.1522793 277.87726346 -246.12542611 277.88328633 -239.09855628 277.88768864 C-234.71158016 277.89045064 -230.32460624 277.89468791 -225.93763161 277.89919281 C-213.79314023 277.91138566 -201.64865062 277.92168501 -189.50415325 277.9250679 C-188.72678623 277.92528747 -187.9494192 277.92550703 -187.1484956 277.92573325 C-185.97964421 277.92606067 -185.97964421 277.92606067 -184.78717965 277.9263947 C-183.20813604 277.92683817 -181.62909243 277.92728473 -180.05004883 277.92773438 C-179.26678751 277.9279558 -178.48352619 277.92817723 -177.67652968 277.92840537 C-164.98372258 277.93235374 -152.29097287 277.94980883 -139.59818795 277.9730939 C-126.56901873 277.99680328 -113.53987832 278.00926956 -100.51068717 278.01043582 C-93.19433041 278.0113528 -85.87804844 278.01711096 -78.56171227 278.03525543 C-71.6810469 278.05225923 -64.80052578 278.05391212 -57.91984558 278.04511642 C-55.39225701 278.0443438 -52.86466092 278.04871824 -50.33709145 278.05857468 C-46.89066906 278.07122769 -43.44475521 278.06545317 -39.99833679 278.05499268 C-38.4926428 278.06707728 -38.4926428 278.06707728 -36.95653075 278.07940602 C-30.90879181 278.03637817 -26.33127329 277.44096543 -21.66796875 273.1875 C-17.8219283 268.24810357 -16.79048326 264.95170086 -17.3125 258.6875 C-19.27058529 253.32794083 -22.30142926 250.45958169 -27.3125 247.6875 C-30.12344544 246.75051819 -31.82812396 246.559883 -34.73543072 246.55327892 C-35.64563652 246.54882108 -36.55584232 246.54436324 -37.49363011 246.53977031 C-38.49497213 246.53995467 -39.49631416 246.54013903 -40.52799988 246.54032898 C-41.59072579 246.53665229 -42.65345171 246.5329756 -43.74838144 246.5291875 C-47.32729492 246.51813028 -50.90617939 246.51430336 -54.48510742 246.51049805 C-57.0439666 246.50423495 -59.60282487 246.49758829 -62.16168213 246.49058533 C-69.85352699 246.47134344 -77.54536676 246.46075495 -85.23722956 246.45185754 C-88.85986302 246.447474 -92.48249502 246.44210734 -96.10512733 246.43686867 C-108.14838832 246.41985644 -120.19164839 246.40536251 -132.23491955 246.39811993 C-135.36014495 246.39621005 -138.48537033 246.39428971 -141.6105957 246.39233398 C-142.38735117 246.39185024 -143.16410664 246.3913665 -143.96440015 246.3908681 C-156.54594419 246.38256868 -169.12739313 246.35723324 -181.70889565 246.32475331 C-194.62733293 246.29167559 -207.54572189 246.27367051 -220.46420175 246.27047569 C-227.71693431 246.26831121 -234.96952819 246.25957182 -242.22221947 246.23401451 C-249.04546691 246.21002599 -255.86846105 246.20648633 -262.69174194 246.21677589 C-265.19591921 246.21727223 -267.70010861 246.21092322 -270.20424843 246.19721985 C-273.6238265 246.17955422 -277.0425035 246.18658187 -280.46208191 246.19975281 C-281.45227032 246.18878356 -282.44245874 246.17781432 -283.46265286 246.16651267 C-290.94841746 246.23608746 -296.61476262 247.71307161 -301.75 253.375 Z M-295.3125 342.6875 C-296.59768719 343.86388606 -297.90528433 345.01715071 -299.25 346.125 C-302.6593858 349.0863351 -305.9904431 352.12902486 -309.3125 355.1875 C-313.27112186 358.83164329 -317.2642676 362.42663717 -321.328125 365.953125 C-325.36624691 369.48250714 -329.33164681 373.09384226 -333.3125 376.6875 C-335.80937992 378.93546977 -338.30703151 381.18258007 -340.8046875 383.4296875 C-342.49842894 384.95458244 -344.19111169 386.48065402 -345.8828125 388.0078125 C-349.62814256 391.38662708 -353.37768207 394.75645965 -357.1875 398.0625 C-361.5839534 401.89394734 -365.87300151 405.84040155 -370.16015625 409.79296875 C-372.23777636 411.70695614 -374.32880965 413.60421862 -376.43359375 415.48828125 C-382.81451977 421.2186705 -388.69491301 427.19932449 -394.3125 433.6875 C-395.30731465 434.79802216 -396.30349619 435.90732082 -397.30078125 437.015625 C-450.13534381 496.18070691 -474.74595927 574.02609717 -471.3125 652.6875 C-467.04485926 727.07293693 -436.68326043 797.07499132 -386.3125 851.6875 C-385.47460938 852.62851563 -384.63671875 853.56953125 -383.7734375 854.5390625 C-373.023982 866.57853108 -361.16479469 876.95411331 -348.3125 886.6875 C-347.45132568 887.34999756 -347.45132568 887.34999756 -346.57275391 888.02587891 C-280.93824423 938.453066 -196.38756971 956.24485987 -115.08203125 945.6875 C-79.34082173 940.63750864 -45.14932196 929.70618485 -13.3125 912.6875 C-12.68005371 912.35459961 -12.04760742 912.02169922 -11.39599609 911.67871094 C9.13517727 900.81320409 28.07122511 887.05538301 45.0078125 871.18359375 C47.2786045 869.06838079 49.58279043 867.02028584 51.9375 865 C58.75369938 859.07287011 64.83084817 852.54948527 70.6875 845.6875 C71.48800781 844.77613281 72.28851562 843.86476563 73.11328125 842.92578125 C128.4819502 779.41225642 154.16099747 695.1694265 149.48535156 611.65966797 C143.8903131 532.45292541 104.96828308 459.76948676 46.27099609 407.11376953 C44.13744849 405.19206353 42.0283916 403.24438586 39.91796875 401.29736328 C35.55613131 397.27646693 31.15262849 393.31013216 26.671875 389.421875 C22.63375309 385.89249286 18.66835319 382.28115774 14.6875 378.6875 C13.02109149 377.18721321 11.35442647 375.68721128 9.6875 374.1875 C7.16249507 371.9157871 4.63836696 369.64314586 2.1171875 367.3671875 C-1.64987115 363.96877068 -5.42165586 360.5793339 -9.25 357.25 C-12.47809512 354.43927475 -15.64988443 351.571701 -18.8125 348.6875 C-23.26323232 344.63129243 -27.71950125 340.58282806 -32.3125 336.6875 C-32.97141172 336.00642118 -33.63032345 335.32534237 -34.30920219 334.6236248 C-38.59869366 331.85833433 -42.21097761 332.11344075 -47.21682739 332.13919067 C-48.22197573 332.12871732 -49.22712406 332.11824396 -50.26273143 332.10745323 C-53.63511292 332.07741941 -57.00688841 332.07604226 -60.37939453 332.07470703 C-62.79576138 332.05946599 -65.21211851 332.04261136 -67.62846375 332.02426147 C-74.19688913 331.98033023 -80.76517092 331.96272386 -87.33370829 331.95260859 C-91.43833109 331.94608875 -95.54291651 331.93304009 -99.64751816 331.9186058 C-111.02087507 331.87947551 -122.39419725 331.84666725 -133.76762581 331.84085274 C-134.8589616 331.84029003 -134.8589616 331.84029003 -135.97234457 331.83971595 C-137.44717558 331.83898347 -138.92200659 331.83825607 -140.39683761 331.83753373 C-141.12890854 331.83716811 -141.86097947 331.83680248 -142.61523438 331.83642578 C-143.3482033 331.83606468 -144.08117223 331.83570358 -144.83635233 331.83533154 C-156.70470535 331.82825303 -168.57233149 331.77424019 -180.44043256 331.69943 C-192.63690665 331.62316794 -204.8330206 331.58453708 -217.02973831 331.58393371 C-223.87315659 331.58276652 -230.71570826 331.56591385 -237.55890274 331.50793839 C-243.99917762 331.45362618 -250.43819106 331.45118046 -256.87862587 331.48324966 C-259.23805671 331.48687683 -261.59758631 331.47351252 -263.95680428 331.44161224 C-277.82179843 331.26561723 -286.27013969 331.1975195 -295.3125 342.6875 Z " fill="#21336D" transform="translate(1637.3125,1105.3125)"/>
<path d="M0 0 C1.48577017 -0.00343629 2.97153778 -0.00818495 4.45730007 -0.01412097 C8.54077241 -0.02662593 12.62403573 -0.02048275 16.70750901 -0.01128729 C21.14980995 -0.00457893 25.59207487 -0.01524289 30.03436816 -0.02368313 C37.82037213 -0.03606181 45.60631586 -0.03725728 53.39232635 -0.0311327 C64.97041728 -0.02204951 76.54845239 -0.03006734 88.12653903 -0.04142394 C108.80446913 -0.06110513 129.48237418 -0.06343548 150.16031141 -0.05822874 C168.25701337 -0.05367412 186.3537054 -0.05426754 204.45040703 -0.06006908 C206.8765109 -0.06082595 209.30261477 -0.06158193 211.72871865 -0.06233703 C215.38449891 -0.0634822 219.04027917 -0.06463208 222.69605943 -0.06579627 C256.69089789 -0.07650367 290.68573304 -0.08122406 324.68057251 -0.07332611 C326.60337496 -0.07288035 326.60337496 -0.07288035 328.5650219 -0.07242559 C338.97514519 -0.06997657 349.38526845 -0.06736502 359.7953917 -0.06474145 C400.40535122 -0.0546383 441.0152694 -0.06299476 481.62522316 -0.086236 C527.2376622 -0.11229787 572.85007634 -0.12515942 618.4625231 -0.11804825 C623.32435965 -0.11733217 628.1861962 -0.11665779 633.04803276 -0.1160078 C634.24516407 -0.115838 635.44229538 -0.11566819 636.6757034 -0.11549323 C654.76055411 -0.11318857 672.84538174 -0.12117522 690.93022728 -0.13429928 C711.49328606 -0.14919504 732.05629067 -0.15007446 752.61934827 -0.13222837 C764.13041597 -0.12264996 775.64135741 -0.12413167 787.15241674 -0.14146306 C794.83909763 -0.1519298 802.52568206 -0.14788423 810.21235341 -0.13198302 C814.59352123 -0.12332739 818.97444112 -0.12098464 823.35559647 -0.13625234 C827.34382956 -0.15001974 831.33160222 -0.14527493 835.31980842 -0.12596715 C836.75112014 -0.12224135 838.18246921 -0.12516345 839.61374713 -0.13568023 C849.48082467 -0.20316708 857.57682606 1.02561786 866.19553566 6.00531673 C872.96331713 13.35319376 875.76938937 20.59076302 875.66428566 30.43109798 C874.96181084 37.797327 871.71915257 44.28136058 866.38303566 49.38031673 C860.45852504 53.22550176 855.57562795 55.50425097 848.44348139 55.5091179 C846.5666025 55.51402619 846.5666025 55.51402619 844.65180686 55.51903364 C843.25277544 55.51762343 841.85374411 55.51612141 840.45471287 55.51453781 C838.97051965 55.51648984 837.48632695 55.51887833 836.00213507 55.52166578 C831.89513173 55.52808762 827.78814789 55.52822567 823.68114049 55.52738837 C819.22371788 55.52755744 814.76630235 55.53345875 810.30888325 55.53862923 C801.45526214 55.54797171 792.60164603 55.55188005 783.7480206 55.5541482 C773.14839534 55.55710599 762.54877674 55.56580089 751.94915496 55.57456248 C726.32626451 55.59542514 700.70337289 55.60587948 675.08047592 55.61469209 C662.96394314 55.61889594 650.84741086 55.62411827 638.7308785 55.62937662 C597.27159369 55.64726824 555.81230875 55.66226527 514.35302067 55.66969681 C511.74928248 55.67017157 509.14554429 55.67064746 506.54180611 55.67112447 C504.60493506 55.67147903 504.60493506 55.67147903 502.62893531 55.67184076 C496.08660092 55.67304199 489.54426653 55.67425743 483.00193214 55.67548275 C481.70357525 55.6757229 480.40521836 55.67596305 479.06751732 55.67621048 C436.96087657 55.68410541 394.85426397 55.70754052 352.74763552 55.74003869 C308.25194953 55.77431819 263.75628002 55.7940462 219.2605806 55.79734105 C214.37816655 55.7977586 209.49575251 55.79823817 204.61333847 55.79876423 C203.41111128 55.79888742 202.2088841 55.79901061 200.97022578 55.79913754 C181.60299689 55.80147191 162.23580062 55.81714508 142.86858337 55.83760608 C123.4096425 55.85783818 103.95074092 55.86335378 84.49179148 55.85383544 C72.92499471 55.8486103 61.35832854 55.85454574 49.79155051 55.87637011 C42.06879468 55.88984284 34.34612909 55.88883249 26.62337244 55.87596816 C22.22066714 55.869048 17.81821213 55.86848197 13.41552883 55.88552824 C9.40886047 55.90091506 5.40264395 55.89782937 1.39598908 55.88011796 C-0.04313705 55.87697254 -1.48229759 55.88050601 -2.92138432 55.89160971 C-13.08007946 55.96487549 -21.71762004 55.17166244 -29.49196434 48.13031673 C-35.30010602 41.67834803 -37.72510046 35.07175706 -37.61696434 26.38031673 C-36.85600696 18.18643637 -33.33020882 11.68516537 -27.36696434 6.06781673 C-19.13369625 -0.26807609 -10.00825153 -0.05128932 0 0 Z " fill="#21336D" transform="translate(453.61696434020996,460.61968326568604)"/>
<path d="M0 0 C5.86183419 5.26571546 8.74062734 11.39645525 9.41113281 19.24755859 C9.53337346 23.38644955 9.44450084 27.51786159 9.34375 31.65625 C9.32364039 33.10414177 9.30539755 34.55206073 9.2890625 36 C9.24545153 39.51099127 9.1766757 43.0209412 9.09375 46.53125 C9.66657715 46.64662109 10.2394043 46.76199219 10.82958984 46.88085938 C35.48121797 52.06420607 56.64880326 69.21021612 70.3671875 89.92578125 C80.38062066 105.54657071 86.04876827 122.94324161 87.09375 141.53125 C87.17302734 142.65080078 87.17302734 142.65080078 87.25390625 143.79296875 C87.60117685 152.44453619 85.60417169 159.2010209 80.03125 165.90625 C73.80160441 172.29666064 67.8378117 174.66753658 58.96875 174.96875 C50.03281858 174.59213986 44.55576987 171.93702978 38.07421875 165.734375 C32.08684716 159.07386696 31.67086615 151.83000672 30.87011719 143.26391602 C29.50340791 129.48102463 23.36089734 117.25706325 12.62109375 108.31640625 C1.23661501 100.27512838 -11.42861831 96.39981584 -25.28125 98.15625 C-39.03906894 100.61358076 -49.76160014 106.77726089 -58.28125 117.90625 C-66.53048876 129.98074061 -69.30590656 143.09802156 -66.90625 157.53125 C-63.89722646 169.60005093 -57.10678203 180.33735627 -46.90625 187.53125 C-36.79896172 193.37941036 -27.57065155 196.26074171 -15.921875 196.671875 C11.54932195 197.64583725 35.25362776 207.26571393 55.09375 226.53125 C55.84011719 227.20414063 56.58648438 227.87703125 57.35546875 228.5703125 C76.90939612 246.79334429 85.59303394 273.36394584 87.28125 299.42578125 C87.97292844 328.26012607 76.79585784 354.23828848 57.359375 375.1953125 C47.56745227 385.29112249 36.4776353 392.83202528 23.65625 398.53125 C22.6815979 398.96739624 22.6815979 398.96739624 21.68725586 399.41235352 C17.490715 401.19148 13.59337103 401.95598667 9.09375 402.53125 C9.11469727 403.42320068 9.13564453 404.31515137 9.15722656 405.23413086 C9.22591086 408.58335968 9.27579327 411.93182668 9.31347656 415.28149414 C9.33343751 416.72367252 9.36061663 418.1657716 9.39550781 419.60766602 C9.66018873 430.83714331 8.60642922 439.44209875 0.73828125 448.02734375 C-5.97293695 454.16468106 -12.89871891 454.8458677 -21.65234375 454.73828125 C-29.81524818 454.21891278 -35.48352068 450.5912402 -40.90625 444.53125 C-44.9142108 438.34027886 -46.03499969 432.91617741 -46.00390625 425.578125 C-46.0024913 424.91790344 -46.00107635 424.25768188 -45.99961853 423.57745361 C-45.99404245 421.47867206 -45.98149447 419.37999905 -45.96875 417.28125 C-45.9637319 415.85416821 -45.95916954 414.42708475 -45.95507812 413 C-45.94408088 409.51038168 -45.9268328 406.02082644 -45.90625 402.53125 C-46.98583984 402.39259521 -48.06542969 402.25394043 -49.17773438 402.11108398 C-70.03556767 398.86741229 -90.70933354 381.48830482 -103.07421875 365.140625 C-115.2689701 347.77155485 -122.41616215 329.15289115 -123.78125 307.96875 C-123.83063721 307.24324951 -123.88002441 306.51774902 -123.9309082 305.77026367 C-124.2663201 298.09295978 -122.65509245 290.75532457 -117.90625 284.53125 C-111.45329279 277.60507593 -105.41633211 274.4769219 -95.96875 274.09375 C-87.18846746 274.35881513 -81.37272403 277.76131868 -74.73046875 283.26171875 C-69.5703754 289.68144945 -68.29257821 296.85517936 -67.46875 304.84375 C-65.68517631 319.04903942 -61.37536039 330.20318742 -50.296875 339.7890625 C-37.37435273 349.68172785 -24.76939552 351.72632704 -8.90625 350.53125 C3.5738577 348.23954881 14.83431999 340.8996764 22.09375 330.53125 C29.68898115 317.84751419 32.40866111 306.3331634 30.09375 291.53125 C26.65758105 277.92900606 19.20074808 267.091672 7.28125 259.78125 C-2.47126567 254.35101031 -12.1019097 252.62094742 -23.14501953 252.29248047 C-49.60416365 251.40522069 -72.93829379 240.94987869 -91.90625 222.53125 C-92.65261719 221.85835937 -93.39898438 221.18546875 -94.16796875 220.4921875 C-112.84427406 203.08704433 -122.79737296 176.69055586 -123.90625 151.53125 C-124.43529997 121.9163407 -114.22092415 95.18099154 -93.90625 73.53125 C-80.76644574 60.02823163 -64.41565981 50.25916489 -45.90625 46.53125 C-45.92196045 45.66959229 -45.9376709 44.80793457 -45.95385742 43.92016602 C-46.00538779 40.68288448 -46.04279394 37.44581399 -46.07104492 34.20825195 C-46.08600938 32.81462672 -46.10638851 31.42104756 -46.13256836 30.02758789 C-46.35295006 17.98437638 -45.62305548 9.45208402 -37.08984375 0.48046875 C-26.46304541 -9.00570723 -11.0271742 -8.49634734 0 0 Z " fill="#21336D" transform="translate(1494.90625,1521.46875)"/>
<path d="M0 0 C1.04249574 -0.00226556 2.08499148 -0.00453111 3.159078 -0.00686532 C6.63392599 -0.01316869 10.1087346 -0.01237831 13.58358765 -0.0115509 C16.08271332 -0.01454472 18.58183853 -0.01794776 21.08096313 -0.02172852 C27.15477673 -0.02963542 33.228575 -0.03278224 39.30239232 -0.03334089 C44.24436539 -0.03381733 49.18633528 -0.03587842 54.12830734 -0.03904152 C68.16555795 -0.04784202 82.20280094 -0.05246195 96.24005432 -0.05171105 C97.3735164 -0.05165111 97.3735164 -0.05165111 98.52987671 -0.05158997 C99.28644992 -0.05154909 100.04302313 -0.0515082 100.8225228 -0.05146609 C113.07236454 -0.05105999 125.32217549 -0.06062179 137.57200833 -0.07472833 C150.17539617 -0.08912648 162.77876904 -0.0959966 175.38216531 -0.09513456 C182.44774895 -0.09480373 189.51330031 -0.09750041 196.5788765 -0.10831261 C203.22898453 -0.11842442 209.87903638 -0.11804725 216.52915192 -0.11079597 C218.9610466 -0.1097547 221.39294559 -0.11208567 223.82483292 -0.11815643 C250.74565433 -0.18097191 273.77282058 2.26994444 295.29989624 20.13371277 C295.88126343 20.56941589 296.46263062 21.00511902 297.06161499 21.45402527 C311.86248715 32.97731501 320.77378181 52.26367746 323.85067749 70.37590027 C326.63802282 93.69264989 321.81072229 116.39056245 307.29989624 135.13371277 C292.56098877 153.37311076 272.68858272 164.40391646 249.29989624 167.13371277 C245.71184518 167.27692887 242.12715782 167.27727648 238.53659058 167.27415466 C237.46313527 167.27712579 236.38967996 167.28009691 235.2836957 167.28315806 C231.69208273 167.29181916 228.10050319 167.29335114 224.50888062 167.29484558 C221.931233 167.29947565 219.35358608 167.30450056 216.77593994 167.30989075 C209.77557228 167.32344297 202.77521037 167.3294942 195.77483177 167.33390141 C191.39781448 167.33666964 187.02079938 167.34090809 182.64378357 167.34540558 C170.50858448 167.35759521 158.37338714 167.36789446 146.23818207 167.37128067 C145.46225198 167.37150024 144.68632188 167.3717198 143.88687876 167.37194602 C143.10916108 167.3721643 142.3314434 167.37238258 141.53015852 167.37260747 C139.95438099 167.37305092 138.37860346 167.37349749 136.80282593 167.37394714 C136.0211968 167.37416857 135.23956766 167.37439 134.4342528 167.37461814 C121.78334582 167.37856192 109.1324966 167.39600446 96.48161191 167.41930667 C83.47148281 167.4430757 70.46138262 167.45548508 57.45123148 167.45664859 C50.15532693 167.45756234 42.8594976 167.46323859 35.56361389 167.4814682 C28.69517913 167.49857007 21.82688877 167.50008049 14.95843887 167.49132919 C12.44591515 167.49056141 9.93338362 167.49486721 7.42087936 167.50478745 C-19.53154417 167.60491205 -42.99899405 163.80768694 -63.43057251 144.39933777 C-64.17951782 143.65168152 -64.92846313 142.90402527 -65.70010376 142.13371277 C-66.39748657 141.44793152 -67.09486938 140.76215027 -67.81338501 140.05558777 C-84.35010365 122.71611579 -89.40032771 100.59143749 -89.00479126 77.34855652 C-88.24617518 56.58065755 -78.00668495 36.39369641 -63.01260376 22.10246277 C-44.74906059 6.55377061 -23.76218018 -0.03834598 0 0 Z M-26.70010376 64.13371277 C-32.99590388 72.54510565 -34.56041146 79.71308434 -33.70010376 90.13371277 C-31.83347535 97.25890009 -27.57923954 103.52963205 -21.45401001 107.64152527 C-16.35294681 110.57317079 -12.16507616 112.25417566 -6.240592 112.26793385 C-5.34766223 112.27239169 -4.45473246 112.27684953 -3.5347442 112.28144246 C-2.55781612 112.2812581 -1.58088804 112.28107374 -0.57435608 112.28088379 C0.98721274 112.28639882 0.98721274 112.28639882 2.5803284 112.29202527 C6.08003631 112.30306678 9.57971453 112.30690677 13.07943726 112.31071472 C15.58431594 112.31697906 18.0891937 112.32362583 20.59407043 112.33062744 C28.11940159 112.34985763 35.64472754 112.36045657 43.170077 112.36935523 C46.71661062 112.37374124 50.26314276 112.37910729 53.80967522 112.3843441 C65.60419816 112.40135569 77.39872019 112.41584853 89.19325352 112.42309284 C92.25297103 112.42500264 95.31268853 112.42692299 98.37240601 112.42887878 C99.13285597 112.42936252 99.89330593 112.42984626 100.67679983 112.43034466 C112.9878938 112.43864001 125.29889046 112.46396882 137.60994197 112.49645946 C150.25835246 112.52956739 162.90671357 112.54754502 175.55516762 112.55073708 C182.65316328 112.55289886 189.75101707 112.56159849 196.84897041 112.58719826 C203.52943526 112.61123702 210.20960121 112.61470757 216.89011574 112.60443687 C219.33820697 112.60394166 221.7863108 112.61025763 224.23436356 112.62399292 C227.58496711 112.64173586 230.93465807 112.63459293 234.28526306 112.62145996 C235.24657609 112.63242921 236.20788912 112.64339845 237.19833285 112.6547001 C245.16199765 112.57970388 253.20596952 110.78484052 259.67489624 105.88371277 C265.57532147 99.70231491 269.29259526 92.96916429 269.61239624 84.32121277 C269.33158263 74.92799737 266.26168687 69.10768372 259.77645874 62.30558777 C251.99128283 55.47820952 243.13046628 54.98396162 233.23025513 55 C232.20736145 54.99773444 231.18446778 54.99546889 230.13057733 54.99313468 C226.69839876 54.98679778 223.26625971 54.98762385 219.83407593 54.9884491 C217.3750656 54.98545739 214.91605574 54.98205484 212.45704651 54.97827148 C206.46758328 54.97034681 200.47813562 54.96721684 194.48866859 54.96665911 C189.61853531 54.96618366 184.74840527 54.96412746 179.87827301 54.96095848 C166.06368344 54.95215264 152.24910164 54.94753891 138.43450925 54.94828895 C137.68996488 54.94832891 136.94542052 54.94836887 136.17831421 54.94841003 C135.4328582 54.94845091 134.6874022 54.9484918 133.91935661 54.94853391 C121.84303648 54.94894021 109.76674756 54.93937467 97.69043645 54.92527167 C85.28382633 54.91089755 72.87723142 54.90400208 60.47061276 54.90486544 C53.5080008 54.90519709 46.54542153 54.90246431 39.58281708 54.89168739 C33.0329151 54.88161412 26.48307032 54.88192836 19.93316078 54.88920403 C17.53100038 54.89024971 15.12883568 54.88788795 12.72668266 54.88184357 C9.44353136 54.87411841 6.16061815 54.87877213 2.87747192 54.88647461 C1.93047007 54.88133105 0.98346822 54.87618748 0.00776935 54.87088805 C-10.56563462 54.92557391 -18.77162936 56.76963824 -26.70010376 64.13371277 Z " fill="#21336D" transform="translate(491.7001037597656,151.8662872314453)"/>
<path d="M0 0 C0.99784467 -0.00495952 1.99568934 -0.00991903 3.02377173 -0.01502883 C6.37625295 -0.02800939 9.72833748 -0.01959222 13.08082867 -0.01129913 C15.50512862 -0.01618686 17.92942624 -0.0223761 20.35371989 -0.02975702 C25.62924448 -0.04275997 30.90465275 -0.04640343 36.18018246 -0.04179764 C44.02519695 -0.03496633 51.8701246 -0.04522214 59.71512703 -0.0587552 C74.54152026 -0.08367375 89.36787749 -0.08818379 104.19428829 -0.08628923 C115.64331714 -0.08491649 127.0923335 -0.08873219 138.5413599 -0.09621429 C140.18588187 -0.09726463 141.83040384 -0.09831224 143.47492581 -0.09935716 C144.699417 -0.10013617 144.699417 -0.10013617 145.94864538 -0.10093093 C146.7664622 -0.10145107 147.58427901 -0.10197121 148.42687815 -0.10250711 C149.24605829 -0.10303111 150.06523843 -0.1035551 150.90924221 -0.10409497 C173.9519689 -0.11867995 196.99469098 -0.12696002 220.03742218 -0.12234497 C220.90622972 -0.12217302 221.77503725 -0.12200106 222.67017229 -0.1218239 C227.07368786 -0.120935 231.47720343 -0.11999019 235.88071898 -0.11902589 C236.75527916 -0.11883485 237.62983933 -0.11864382 238.53090132 -0.118447 C240.29947494 -0.11805991 242.06804855 -0.11766958 243.83662217 -0.11727602 C271.35545188 -0.11130603 298.87419749 -0.12674352 326.39300823 -0.15888214 C357.30735386 -0.19495567 388.22164616 -0.21429223 419.13601416 -0.20934343 C422.43212997 -0.20887345 425.72824579 -0.2084632 429.02436161 -0.20809174 C429.83595436 -0.20798935 430.64754711 -0.20788696 431.48373358 -0.20778148 C443.7375261 -0.20658645 455.99126103 -0.21855641 468.24503803 -0.23723602 C482.18106393 -0.25846971 496.11696897 -0.26232632 510.05300025 -0.24293643 C517.85172754 -0.23260718 525.65016009 -0.23608782 533.44886076 -0.25946729 C539.27173519 -0.27537585 545.09437308 -0.26515382 550.91723999 -0.24474627 C553.27318294 -0.24054649 555.62915918 -0.24480647 557.98506699 -0.25834221 C561.18712413 -0.27548769 564.38764606 -0.26181302 567.58964539 -0.24050903 C568.96227146 -0.25892532 568.96227146 -0.25892532 570.36262736 -0.27771366 C578.26086987 -0.16790894 584.6427841 2.51395214 590.6398344 7.66436005 C591.2482719 8.39654755 591.8567094 9.12873505 592.4835844 9.88311005 C593.1126469 10.61529755 593.7417094 11.34748505 594.3898344 12.10186005 C598.85509257 18.49330802 599.58608774 25.81647225 598.4210844 33.38311005 C596.71057318 40.80303033 592.39019811 47.21881114 585.9835844 51.38311005 C579.03070051 55.29410724 573.08115655 55.52990225 565.29135132 55.51733112 C564.3042562 55.51968335 563.31716109 55.52203558 562.300154 55.52445909 C558.97231454 55.53114841 555.64451413 55.53069089 552.31666851 55.53028107 C549.91472094 55.53357972 547.51277393 55.53730529 545.11082762 55.54142255 C539.18881293 55.55039771 533.26680528 55.55467013 527.34478523 55.55694151 C520.25232931 55.55990425 513.1598833 55.56860203 506.06743259 55.57735579 C488.92521438 55.59819726 471.78299446 55.60866915 454.64076653 55.6174854 C446.53203667 55.62169196 438.42330755 55.62691391 430.31457831 55.63216993 C402.55964276 55.65005902 374.804707 55.66505562 347.04976654 55.67249012 C345.30741691 55.67296488 343.56506728 55.67344077 341.82271765 55.67391778 C340.9586679 55.67415416 340.09461816 55.67439053 339.20438509 55.67463407 C334.82666702 55.67583527 330.44894895 55.67705072 326.07123089 55.67827606 C325.20245962 55.67851621 324.33368835 55.67875636 323.43859068 55.67900379 C295.26532867 55.68689828 267.09210874 55.71033377 238.91886511 55.74283201 C209.13501873 55.77712541 179.35119698 55.79684075 149.56733054 55.80013436 C146.29814509 55.8005519 143.02895965 55.80103147 139.75977421 55.80155754 C138.55231921 55.80174233 138.55231921 55.80174233 137.32047118 55.80193085 C124.36361447 55.80426336 111.40680663 55.81992599 98.44996734 55.84039939 C85.42797757 55.86064941 72.40604652 55.86613857 59.38404391 55.85662875 C51.64756944 55.85141076 43.91129042 55.85730528 36.17484406 55.87916342 C30.39822556 55.89425117 24.62177879 55.8884382 18.84516438 55.87449291 C16.50800135 55.8721059 14.1708196 55.87649664 11.83368526 55.88832156 C8.65712944 55.90339909 5.48155478 55.89379576 2.30502319 55.87809467 C1.39738917 55.88831688 0.48975516 55.89853909 -0.44538292 55.90907106 C-9.66737807 55.80956866 -17.62066721 52.72541155 -24.32500935 46.35967255 C-29.43703518 40.38580402 -31.12922751 33.12952821 -31.0164156 25.38311005 C-29.99267068 16.65765342 -25.74698356 10.64225044 -19.30938435 4.96123505 C-12.92106189 0.56450205 -7.56836554 -0.05295435 0 0 Z " fill="#21336D" transform="translate(447.0164155960083,1179.6168899536133)"/>
<path d="M0 0 C0.97328853 -0.00235223 1.94657706 -0.00470446 2.94935918 -0.00712797 C6.23024225 -0.01381662 9.5110857 -0.01335979 12.79197502 -0.01294994 C15.1602115 -0.01624864 17.52844742 -0.01997422 19.89668262 -0.02409142 C25.73534748 -0.03306621 31.5740052 -0.03733894 37.41267548 -0.03961039 C44.40541977 -0.04257326 51.39815401 -0.05127114 58.39089302 -0.06002467 C75.29250477 -0.08086606 92.19411827 -0.09133818 109.09573988 -0.10015428 C117.0911889 -0.10436101 125.08663718 -0.10958295 133.08208557 -0.11483881 C160.4508198 -0.13272827 187.81955425 -0.14772456 215.18829346 -0.155159 C216.90640829 -0.15563375 218.62452312 -0.15610964 220.34263795 -0.15658666 C221.6206826 -0.15694122 221.6206826 -0.15694122 222.92454634 -0.15730295 C227.24134833 -0.15850415 231.55815033 -0.1597196 235.87495232 -0.16094494 C237.15997497 -0.16130516 237.15997497 -0.16130516 238.47095767 -0.16167267 C266.24921572 -0.16956632 294.02743108 -0.19299991 321.80567048 -0.22550088 C351.17375793 -0.25979929 380.54182039 -0.27951011 409.9099282 -0.28280324 C413.13391488 -0.28322078 416.35790154 -0.28370034 419.5818882 -0.28422642 C420.37572557 -0.28434961 421.16956294 -0.2844728 421.98745599 -0.28459973 C434.76186824 -0.28693166 447.5362309 -0.30259115 460.31062547 -0.32306826 C473.15115915 -0.34332484 485.99163328 -0.34880435 498.83217998 -0.33929763 C506.45957781 -0.33408212 514.08677733 -0.33996242 521.71414662 -0.3618323 C527.41134468 -0.37693259 533.10836878 -0.37109847 538.80556272 -0.35716178 C541.10909644 -0.35477684 543.4126492 -0.35915497 545.71615376 -0.37099043 C571.43348845 -0.49493934 571.43348845 -0.49493934 580.87299919 7.75922108 C586.85266076 14.4019252 589.14834932 21.58739006 588.74799919 30.47015858 C587.77420042 38.77179313 584.63815191 44.50470875 578.43549919 50.13422108 C573.6502081 53.59081965 569.10331399 55.2570035 563.23008424 55.26302224 C562.39201912 55.26629444 561.55395399 55.26956663 560.69049296 55.27293798 C559.31433345 55.27071255 559.31433345 55.27071255 557.91037273 55.26844215 C556.43860912 55.2719705 556.43860912 55.2719705 554.9371129 55.27557012 C551.62339772 55.28226881 548.30972168 55.28180164 544.99600029 55.2813921 C542.60657748 55.28469017 540.21715523 55.28841562 537.8277337 55.29253358 C531.93284959 55.3015143 526.03797256 55.30578222 520.14308307 55.30805254 C513.08395291 55.31101366 506.02483273 55.3197105 498.9657078 55.32846682 C481.90311951 55.34931529 464.84052949 55.3597814 447.77793143 55.36859643 C439.70763783 55.37280211 431.63734497 55.37802419 423.567052 55.38328096 C395.94652132 55.40117093 368.32599043 55.41616764 340.70545483 55.42360115 C338.97130333 55.42407591 337.23715183 55.4245518 335.50300033 55.42502881 C334.21301578 55.42538338 334.21301578 55.42538338 332.89697094 55.4257451 C328.53977788 55.42694631 324.18258482 55.42816176 319.82539177 55.42938709 C318.96069138 55.42962724 318.095991 55.42986739 317.20508757 55.43011482 C289.16365807 55.43800936 261.12227084 55.46144449 233.0808598 55.49394304 C203.44014777 55.52823243 173.79946049 55.54795143 144.1587283 55.55124539 C140.90555361 55.55166294 137.65237893 55.5521425 134.39920425 55.55266857 C133.59816978 55.55279176 132.79713531 55.55291495 131.97182707 55.55304188 C119.07515697 55.55537493 106.17853594 55.57104068 93.28188333 55.59151042 C80.32140015 55.61175529 67.36097596 55.61725205 54.40047989 55.60773978 C46.69934852 55.60251971 38.99841344 55.60842608 31.29731028 55.63027446 C25.54873594 55.64535187 19.80033434 55.63955633 14.05176415 55.62560394 C11.72468315 55.62321521 9.39758339 55.62761641 7.07053117 55.63943259 C3.90996005 55.6544892 0.75037775 55.64492133 -2.41016865 55.6292057 C-3.31590249 55.63942791 -4.22163633 55.64965012 -5.15481666 55.66018209 C-12.83192214 55.57673589 -18.48805456 53.20490605 -24.81450081 48.94672108 C-30.64253337 42.98623323 -33.64709651 36.30997637 -33.87700081 28.00922108 C-33.77405762 20.28848207 -31.61191775 13.95667179 -26.31450081 8.25922108 C-18.40831249 1.06560768 -10.30987181 -0.01687888 0 0 Z " fill="#21336D" transform="translate(740.5645008087158,629.8657789230347)"/>
<path d="M0 0 C0.98540674 -0.00380567 1.97081348 -0.00761134 2.98608103 -0.01153234 C6.30821873 -0.02188877 9.63018685 -0.01793445 12.95233631 -0.01409245 C15.35016018 -0.01854265 17.74798257 -0.02385597 20.1458028 -0.02996117 C25.36964876 -0.04120474 30.59346247 -0.04617368 35.81731892 -0.04563999 C43.58555024 -0.04484725 51.3537374 -0.05539157 59.12195692 -0.06805556 C74.61207389 -0.09280575 90.10218017 -0.10157945 105.59231419 -0.10659205 C106.39469464 -0.10685322 107.19707509 -0.1071144 108.02377009 -0.10738349 C108.82774846 -0.10764376 109.63172683 -0.10790404 110.46006819 -0.1081722 C119.36615155 -0.11125346 128.27223195 -0.11775785 137.17831326 -0.12438488 C164.07422427 -0.14403398 190.97013207 -0.16043762 217.86605072 -0.16326141 C218.72649313 -0.16335547 219.58693553 -0.16344954 220.47345195 -0.16354645 C223.96050757 -0.16392493 227.44756319 -0.16428893 230.93461881 -0.16464943 C233.55924311 -0.16492115 236.18386741 -0.16519782 238.80849171 -0.16547489 C239.67576813 -0.16556291 240.54304456 -0.16565094 241.43660209 -0.16574163 C268.68657376 -0.16864703 295.9364745 -0.19074183 323.18642139 -0.22699833 C353.79384455 -0.26772086 384.40121937 -0.29141995 415.0086711 -0.29172093 C418.27223957 -0.29181775 421.53580803 -0.29198447 424.79937649 -0.29220104 C426.00475676 -0.29226721 426.00475676 -0.29226721 427.23448815 -0.29233472 C440.16903807 -0.2934548 453.10351696 -0.31086694 466.038044 -0.33402036 C479.0376421 -0.35685859 492.03714419 -0.36109092 505.03675499 -0.34647106 C512.75993722 -0.33831725 520.48281711 -0.34401861 528.2059627 -0.36965191 C533.97269552 -0.38724757 539.7391537 -0.3787133 545.50587211 -0.36000682 C547.8389974 -0.35650205 550.17215384 -0.36146338 552.50523826 -0.37571125 C555.67654253 -0.39383098 558.84630526 -0.38110848 562.01756287 -0.36076355 C563.37660738 -0.37960861 563.37660738 -0.37960861 564.76310733 -0.39883438 C572.34987434 -0.2946351 578.75979737 2.09374297 584.4762424 7.17292032 C590.2827074 13.15019802 592.39396296 19.5387312 592.76088428 27.76006222 C592.47812758 36.20741889 588.93228461 42.42445095 583.24916553 48.53349972 C575.82254315 55.19185082 567.18727231 55.41043008 557.67430782 55.38869667 C556.70403178 55.39044971 555.73375574 55.39220275 554.73407739 55.3940089 C551.46949014 55.39867599 548.20494729 55.39620157 544.94035816 55.39377499 C542.58149519 55.3956426 540.22263253 55.3979431 537.86377037 55.40064031 C532.05226712 55.40612761 526.24077622 55.40693941 520.4292708 55.40577945 C513.46837986 55.40464342 506.50749578 55.4092833 499.54660681 55.41405882 C485.114199 55.42373347 470.68179473 55.4265431 456.24938406 55.42711588 C445.10542912 55.42757526 433.96147558 55.42963277 422.8175211 55.43281651 C419.61080261 55.43371403 416.40408413 55.43460385 413.19736564 55.43549138 C412.40018933 55.43571243 411.60301301 55.43593348 410.78167984 55.43616123 C388.35661216 55.44231599 365.93154496 55.44626173 343.5064764 55.44581795 C342.66087818 55.44580237 341.81527995 55.44578679 340.94405754 55.44577074 C336.65812001 55.44568763 332.37218248 55.44558859 328.08624496 55.44548603 C327.23502708 55.44546609 326.38380921 55.44544614 325.50679686 55.44542559 C323.78542714 55.44538515 322.06405742 55.44534336 320.3426877 55.4453002 C293.55581161 55.44468733 266.76894817 55.45219598 239.98207569 55.46587276 C209.89435594 55.48122852 179.80664451 55.48983931 149.71892059 55.48890954 C146.51157339 55.48883491 143.3042262 55.4887862 140.09687901 55.48875523 C139.30713532 55.48874357 138.51739163 55.48873192 137.70371631 55.48871991 C124.98736371 55.48868912 112.27102207 55.49507856 99.55467273 55.50368749 C86.77817539 55.51215834 74.00169413 55.51315836 61.22519554 55.50657817 C54.30178837 55.50320482 47.37841752 55.50302489 40.45501423 55.51193142 C34.12019612 55.5197602 27.78544968 55.51840222 21.45063339 55.50964729 C19.15593425 55.50810429 16.86122986 55.50995834 14.56653692 55.51550736 C11.45231829 55.52254085 8.33835292 55.51729457 5.22414303 55.50895119 C4.32918863 55.51391937 3.43423423 55.51888755 2.51216 55.52400628 C-6.50938111 55.47276056 -14.71210012 53.7928808 -21.56333447 47.53740597 C-27.29348278 41.49492253 -29.73375412 35.50010709 -30.05161572 27.19756222 C-29.80445319 19.95120623 -27.21504489 13.90243363 -22.67661572 8.26006222 C-15.35004414 1.82622415 -9.6297338 -0.04013325 0 0 Z " fill="#21336D" transform="translate(736.6766157150269,996.7399377822876)"/>
<path d="M0 0 C0.96828807 -0.00175304 1.93657614 -0.00350607 2.93420628 -0.00531223 C6.19204084 -0.00997924 9.44983091 -0.00750492 12.70766735 -0.00507832 C15.06169283 -0.00694593 17.41571799 -0.00924644 19.76974267 -0.01194364 C25.56931347 -0.01743092 31.36887189 -0.01824274 37.16844487 -0.01708278 C44.11510218 -0.01594674 51.06175261 -0.02058666 58.00840795 -0.02536215 C72.41161525 -0.03503692 86.81481901 -0.03784644 101.21802918 -0.03841921 C112.3400457 -0.03887861 123.46206082 -0.0409362 134.58407688 -0.04411983 C137.78460111 -0.04501737 140.98512534 -0.04590718 144.18564957 -0.04679471 C144.98129052 -0.04701576 145.77693147 -0.04723681 146.59668276 -0.04746456 C168.97888121 -0.0536194 191.36107917 -0.05756505 213.7432785 -0.05712128 C214.58726865 -0.0571057 215.4312588 -0.05709012 216.3008244 -0.05707407 C220.57859742 -0.05699096 224.85637043 -0.05689192 229.13414345 -0.05678936 C229.98373718 -0.05676942 230.83333092 -0.05674947 231.70866992 -0.05672892 C233.42675561 -0.05668848 235.14484131 -0.05664669 236.862927 -0.05660353 C263.59610659 -0.05599072 290.3292735 -0.06349819 317.06244946 -0.07717609 C347.09121515 -0.09253381 377.11997251 -0.10114251 407.14874238 -0.10021287 C410.35020967 -0.10013824 413.55167697 -0.10008953 416.75314426 -0.10005856 C417.54143738 -0.1000469 418.32973049 -0.10003525 419.14191128 -0.10002324 C431.83203108 -0.09999246 444.52213987 -0.10638051 457.2122564 -0.11499082 C469.96412648 -0.12346414 482.71598045 -0.12445976 495.4678518 -0.1178815 C502.37720603 -0.11450943 509.28652387 -0.11432354 516.19587421 -0.12323475 C522.51902534 -0.13106891 528.84210471 -0.12969995 535.16525402 -0.12095062 C537.4545874 -0.11940882 539.74392606 -0.12125723 542.03325323 -0.12681069 C545.14263766 -0.13385478 548.25176923 -0.12858952 551.36114502 -0.12025452 C552.25186806 -0.1252227 553.1425911 -0.13019088 554.06030574 -0.13530961 C563.90592456 -0.07943719 571.74053961 1.65526893 579.36933422 8.12863445 C585.71366277 14.99779797 586.91012115 22.42737972 586.73652172 31.58957195 C585.81981982 40.42501796 581.26513119 45.84572046 574.74824047 51.53488445 C568.96952548 55.40633883 563.26921549 55.41600378 556.56408405 55.38590336 C555.57692427 55.38940943 554.5897645 55.39291551 553.57269078 55.39652783 C550.25062797 55.40586351 546.92873963 55.40091286 543.60666943 55.39605999 C541.20655737 55.39979514 538.80644652 55.40439612 536.40633762 55.40979064 C531.18064195 55.41948938 525.95498029 55.42293338 520.72927761 55.42087841 C512.95842373 55.41783002 505.18761088 55.42614875 497.41676498 55.43662766 C482.7311419 55.4559776 468.04553278 55.46159624 453.35989846 55.46274178 C442.02048021 55.46366052 430.68106744 55.46777543 419.34165096 55.47414303 C416.07876266 55.47593808 412.81587434 55.47771771 409.55298603 55.47949278 C408.33627838 55.48015593 408.33627838 55.48015593 407.09499078 55.48083247 C384.27696506 55.49314211 361.45894124 55.50103346 338.64091206 55.50014591 C337.78048523 55.50011475 336.9200584 55.5000836 336.03355803 55.5000515 C331.67245501 55.49988528 327.31135199 55.4996872 322.95024897 55.49948208 C322.0841017 55.49944219 321.21795444 55.4994023 320.32556028 55.4993612 C318.57399967 55.49928033 316.82243905 55.49919673 315.07087844 55.49911042 C287.81405982 55.49788467 260.55729095 55.51290202 233.30048656 55.54025555 C202.68538563 55.57096654 172.07031739 55.58818866 141.45520008 55.5863291 C138.19168305 55.58617984 134.92816603 55.58608243 131.66464901 55.58602047 C130.86107382 55.58599716 130.05749862 55.58597385 129.22957267 55.58594984 C116.2900462 55.58588826 103.35056287 55.59866757 90.41104923 55.615885 C77.41049591 55.63282608 64.41000581 55.63482727 51.40944757 55.62166636 C43.68366017 55.61426723 35.95806463 55.61796378 28.23229751 55.63755104 C22.46722166 55.65093382 16.70232448 55.6434665 10.93726133 55.62780459 C8.60218469 55.62471827 6.26708741 55.62842797 3.9320351 55.63952474 C0.76310222 55.65358998 -2.40483482 55.64310263 -5.57373333 55.62641239 C-6.94023011 55.64131693 -6.94023011 55.64131693 -8.33433288 55.65652257 C-16.3676947 55.56679541 -22.8331517 52.76945896 -28.63066578 47.12863445 C-33.8512151 40.46636366 -36.00440081 33.63823106 -35.56816578 25.19113445 C-34.47865827 17.13879737 -30.92817508 10.27913509 -24.45488453 5.30832195 C-16.69512641 0.29023426 -8.91215985 -0.02040367 0 0 Z " fill="#21336D" transform="translate(451.63066577911377,812.8713655471802)"/>
<path d="M0 0 C0.73054704 -0.00438225 1.46109408 -0.00876451 2.21377891 -0.01327956 C4.66863984 -0.02666392 7.12346487 -0.03284567 9.57835388 -0.03897095 C11.33594932 -0.04687238 13.09354314 -0.05514135 14.85113525 -0.06375122 C20.6305537 -0.08997272 26.40997938 -0.10528178 32.18943787 -0.11953735 C34.17997174 -0.12489751 36.17050557 -0.13027502 38.16103935 -0.13566971 C46.44354023 -0.1573011 54.72603916 -0.17603622 63.00856113 -0.1872921 C74.87116984 -0.20351984 86.7334504 -0.23666619 98.5959354 -0.29369295 C106.9400322 -0.33243462 115.28404139 -0.35192996 123.62822574 -0.35721266 C128.60968658 -0.36086111 133.59079743 -0.37282809 138.57216072 -0.4053154 C143.26312687 -0.43546937 147.95353263 -0.44168179 152.64457512 -0.42993164 C154.36099719 -0.4297115 156.07744581 -0.43796713 157.79377747 -0.45558548 C167.90755081 -0.55370469 176.95930571 -0.39720414 184.76249027 6.92749977 C190.95811126 13.58681551 193.25407666 20.80796642 193.07615662 29.76327515 C192.33842839 38.44576888 188.30368455 44.4134783 181.87303162 50.15390015 C175.26656887 54.63641599 168.60385107 55.27548396 160.72697449 55.29434204 C160.03061614 55.29731316 159.3342578 55.30028429 158.61679769 55.30334544 C156.2956211 55.31198066 153.9744964 55.31353627 151.65330505 55.31503296 C149.98393647 55.31966478 148.31456895 55.32468994 146.64520264 55.33007812 C142.11817176 55.34316858 137.59115569 55.34964047 133.06410885 55.35408878 C130.2327473 55.35702479 127.40138974 55.36113058 124.57003021 55.36559296 C115.70242163 55.37925875 106.83482224 55.38893003 97.96720386 55.39279485 C87.74729419 55.39727416 77.52751836 55.41482004 67.30764937 55.44379544 C59.39660678 55.46544273 51.48560177 55.47550075 43.57452989 55.47683597 C38.85478197 55.47788176 34.13516003 55.48374159 29.41544342 55.50165558 C24.97322725 55.51818915 20.53123104 55.52026622 16.08899498 55.51151657 C14.46450141 55.51074903 12.83999575 55.51505131 11.2155323 55.52497482 C-0.92103788 55.59472908 -11.99812325 55.14042475 -21.12696838 46.15390015 C-26.52654416 39.6414347 -28.5155376 32.47541766 -28.00196838 24.09140015 C-27.09710056 17.23569566 -24.024188 11.05111977 -19.12696838 6.15390015 C-12.68073861 2.01659268 -7.72629454 0.03282426 0 0 Z " fill="#21336D" transform="translate(444.12696838378906,996.8460998535156)"/>
<path d="M0 0 C1.05806981 -0.00573832 1.05806981 -0.00573832 2.13751477 -0.01159257 C4.48328943 -0.02184892 6.82881594 -0.01794455 9.17460632 -0.01396179 C10.86382777 -0.01831241 12.55304724 -0.02349672 14.24226379 -0.02944946 C18.81884337 -0.04281452 23.39534023 -0.04342081 27.97193551 -0.04088616 C31.79875639 -0.03981455 35.62556066 -0.04470479 39.45237797 -0.04949158 C48.48496288 -0.0605786 57.51750619 -0.061029 66.5500946 -0.05497742 C75.85284649 -0.0489404 85.15544703 -0.06124359 94.4581731 -0.08254749 C102.4584141 -0.10019158 110.45860705 -0.10616033 118.45886678 -0.10290974 C123.23112714 -0.10110089 128.00327957 -0.10369304 132.77552223 -0.11762428 C137.2661902 -0.13024342 141.75662319 -0.12822004 146.24728775 -0.11521339 C147.88951511 -0.11285677 149.53175922 -0.11554931 151.17396736 -0.12383652 C163.40106047 -0.18105919 173.52128495 0.22163936 182.74369812 9.06929016 C188.05397837 15.14901918 189.99914349 21.87384128 189.86869812 29.83100891 C189.20247706 37.50488849 185.8626263 43.67591353 180.65776062 49.26069641 C174.52966238 54.11210752 168.94287233 55.50721264 161.20799255 55.53485107 C160.47896579 55.54008775 159.74993903 55.54532443 158.99882054 55.5507198 C156.56704382 55.56566701 154.13547849 55.56642378 151.70365906 55.5670929 C149.95547127 55.57471798 148.20728682 55.58314608 146.45910645 55.59231567 C141.71719949 55.61423409 136.975357 55.62305609 132.23340511 55.62814212 C129.26803006 55.63178906 126.3026718 55.63803091 123.33730316 55.64514351 C112.98399109 55.66962951 102.63072906 55.68268791 92.27738953 55.68623352 C82.64000492 55.68986734 73.00293906 55.71975392 63.36565185 55.7616381 C55.08093103 55.79637646 46.79631566 55.81178258 38.51152253 55.81247956 C33.56812819 55.81327121 28.62505863 55.82195834 23.68173981 55.85047722 C19.02928764 55.87671841 14.37742814 55.87882942 9.72493553 55.86282158 C8.02303204 55.86101185 6.32109398 55.86765462 4.6192646 55.88364029 C-6.10738513 55.97820829 -14.53337758 55.2494836 -22.99848938 47.97944641 C-23.60692688 47.24725891 -24.21536438 46.51507141 -24.84223938 45.76069641 C-25.47130188 45.02850891 -26.10036438 44.29632141 -26.74848938 43.54194641 C-31.04643782 37.389981 -32.04578162 29.95097799 -30.94380188 22.60444641 C-28.67827138 13.9687772 -24.17483862 7.88940848 -16.56489563 3.26850891 C-11.0961734 0.78884224 -5.96535387 0.00974759 0 0 Z " fill="#21336D" transform="translate(447.3422393798828,629.7393035888672)"/>
<path d="M0 0 C1.65996021 -0.00435301 3.31991841 -0.00953812 4.97987366 -0.01548767 C9.46749517 -0.0288246 13.95503218 -0.02946234 18.44266963 -0.02692437 C22.19751645 -0.02585119 25.95234642 -0.03074682 29.70718962 -0.03552979 C38.56912894 -0.04660633 47.43102586 -0.04707263 56.29296875 -0.04101562 C65.41739978 -0.03497488 74.54167664 -0.04729367 83.66608137 -0.06858569 C91.51774415 -0.08623007 99.36935797 -0.09219864 107.22103983 -0.08894795 C111.90272726 -0.0871397 116.58430467 -0.08972559 121.26597404 -0.10366249 C125.66966784 -0.11628271 130.07312204 -0.11425726 134.47681236 -0.1012516 C136.08679029 -0.0988955 137.69678531 -0.10158564 139.30674362 -0.10987473 C151.13151333 -0.16633581 162.14746479 0.16276752 171.12133789 8.8059082 C177.40586081 15.56676415 179.15211438 22.14630036 178.87524414 31.31762695 C177.96387247 39.15749458 173.67854305 46.33374282 167.53149414 51.2746582 C159.4608344 56.56594325 150.37569668 55.8401606 141.12915039 55.79223633 C139.3690432 55.79766295 137.60894055 55.80478864 135.84884644 55.81347656 C131.08848215 55.83164858 126.32846622 55.82466776 121.56809616 55.81196022 C116.57549889 55.80180076 111.58293053 55.81123407 106.59033203 55.81750488 C98.20770946 55.82477272 89.82522807 55.81521627 81.44262695 55.79614258 C71.76485282 55.77437552 62.08741582 55.7814275 52.40964985 55.8034482 C44.08580048 55.82162683 35.76205232 55.82414848 27.43818951 55.81369352 C22.4731513 55.80747213 17.50827132 55.80658562 12.54324341 55.81983948 C7.87436341 55.83143323 3.20591615 55.82330807 -1.46291733 55.80026245 C-3.17167316 55.79499415 -4.88046569 55.79645681 -6.5892067 55.80531311 C-16.43367681 55.85161442 -24.44739555 55.53399785 -32.73803711 49.66918945 C-39.04802267 43.19945742 -41.66481749 37.37551277 -41.96850586 28.2746582 C-41.71948416 20.03026118 -39.3827333 13.18888565 -33.46850586 7.2746582 C-23.45981188 -0.54534643 -12.13457168 -0.02107603 0 0 Z " fill="#21336D" transform="translate(1150.468505859375,812.725341796875)"/>
</svg>
