<svg xmlns="http://www.w3.org/2000/svg" version="1.1" xmlns:xlink="http://www.w3.org/1999/xlink" width="512" height="512" x="0" y="0" viewBox="0 0 64 64" style="enable-background:new 0 0 512 512" xml:space="preserve" class=""><g><path d="M47 20.816V23h2v-2h2v-3c0-1.654-1.346-3-3-3-.551 0-1-.448-1-1v-1h1c.551 0 1 .448 1 1v1h2v-1a2.996 2.996 0 0 0-2-2.816V9h-2v2h-2v3c0 1.654 1.346 3 3 3 .551 0 1 .448 1 1v1h-1c-.551 0-1-.448-1-1v-1h-2v1c0 1.302.839 2.402 2 2.816z" fill="#f5821f" opacity="1" data-original="#000000"></path><path d="M48 27c6.065 0 11-4.935 11-11S54.065 5 48 5 37 9.935 37 16s4.935 11 11 11zm0-20c4.962 0 9 4.037 9 9s-4.038 9-9 9-9-4.037-9-9 4.038-9 9-9z" fill="#f5821f" opacity="1" data-original="#000000"></path><path d="M63 16c0-8.271-6.729-15-15-15S33 7.729 33 16c0 .338.029.668.051 1H6c-1.654 0-3 1.346-3 3v33c-1.103 0-2 .897-2 2v2c0 3.309 2.691 6 6 6h38c3.309 0 6-2.691 6-6v-3.026c1.207-.914 2-2.348 2-3.974V35c0-1.103-.897-2-2-2v-2.302C57.838 29.304 63 23.244 63 16zM48 3c7.168 0 13 5.832 13 13s-5.832 13-13 13-13-5.832-13-13S40.832 3 48 3zm-5 32v15c0 1.13.391 2.162 1.026 3H33v-.929c0-4.296-3.044-8.024-7.186-8.939l-.22-.879a4.998 4.998 0 0 0 2.117-2.644l.593-.565a8.721 8.721 0 0 0 2.25-3.544A8.676 8.676 0 0 0 31 32.752V32a7.04 7.04 0 0 0-1.4-4.199A7.03 7.03 0 0 0 24 25h-4a7.032 7.032 0 0 0-5.6 2.8A7.045 7.045 0 0 0 13 32v.752c0 .936.15 1.859.446 2.748a8.733 8.733 0 0 0 2.251 3.545l.592.564a4.994 4.994 0 0 0 2.117 2.644l-.22.879C14.044 44.047 11 47.775 11 52.071V53H9V23h25.744c2.069 3.902 5.804 6.79 10.256 7.698V33c-1.103 0-2 .897-2 2zm-27 .141v1.119a6.693 6.693 0 0 1-.657-1.393A6.697 6.697 0 0 1 15 32.752V32c0-1.075.355-2.141 1-3a5.022 5.022 0 0 1 4-2h4c1.566 0 3.061.748 4 2.001.645.858 1 1.924 1 2.999v.752c0 .72-.116 1.432-.343 2.115-.167.5-.396.978-.674 1.425a2.823 2.823 0 0 0-2.25-2.565 7.656 7.656 0 0 1-4.9-3.281l-.555-.832-2.051 1.367A4.99 4.99 0 0 0 16 35.141zm2 0c0-1.005.5-1.938 1.336-2.496l.429-.286a9.628 9.628 0 0 0 5.576 3.329c.382.077.66.415.66.805V38c0 1.654-1.346 3-3 3h-2c-1.654 0-3-1.346-3-3v-2.859zM31 53h-6.219l-.721-2.883.214-.428.925.925 2.668-4.447C29.766 47.468 31 49.654 31 52.071zm-9-5.586.783.783-.401.803h-.764l-.401-.803zM21.781 51h.438l.5 2h-1.438zm3.02-3.613-1.232-1.231 1.646-1.097c.291.057.576.127.853.218zM21 43h2c.24 0 .47-.038.701-.071l.157.63L22 44.798l-1.859-1.239.157-.63c.232.033.462.071.702.071zm-2.215 2.058 1.646 1.097-1.232 1.232-1.267-2.112c.276-.09.562-.16.853-.217zm-2.652 1.108 2.668 4.446.924-.924.214.429-.72 2.883H13v-.929c0-2.417 1.234-4.603 3.133-5.905zM21 55h10v2H21zM5 20c0-.552.449-1 1-1h27.302c.14.687.342 1.35.573 2H7v32H5zm44 35v2c0 2.206-1.794 4-4 4H7c-2.206 0-4-1.794-4-4l-.001-2H19v2c0 1.103.897 2 2 2h10c1.103 0 2-.897 2-2v-2zm2-5c0 1.654-1.346 3-3 3s-3-1.346-3-3l-.001-15H51zm-2-17h-2v-2.051c.332.022.662.051 1 .051s.668-.029 1-.051zM5 5h2v2H5zM9 5h2v2H9zM13 5h2v2h-2z" fill="#f5821f" opacity="1" data-original="#000000"></path><path d="M3 11h4.586l3.293 3.294c.45.448 1.072.706 1.707.706A2.417 2.417 0 0 0 15 12.586V11h2c1.103 0 2-.897 2-2V3c0-1.103-.897-2-2-2H3c-1.103 0-2 .897-2 2v6c0 1.103.897 2 2 2zm0-8h14l.001 6H13v3.586c0 .337-.468.531-.707.293L8.414 9H3zM35 57h2v2h-2zM39 57h2v2h-2zM43 57h2v2h-2zM35 49h2v2h-2zM39 49h2v2h-2zM33 45h8v2h-8zM33 41h8v2h-8zM33 37h8v2h-8zM33 33h8v2h-8z" fill="#f5821f" opacity="1" data-original="#000000"></path></g></svg>