<svg xmlns="http://www.w3.org/2000/svg" version="1.1" xmlns:xlink="http://www.w3.org/1999/xlink" width="512" height="512" x="0" y="0" viewBox="0 0 64 64" style="enable-background:new 0 0 512 512" xml:space="preserve" class=""><g><path d="M6.49 63.5a4.29 4.29 0 0 1-4.29-4.29V4.79A4.29 4.29 0 0 1 6.49.5h30.38l.1.01c.04 0 .09.01.13.03.11.05.16.08.2.12l9.57 10.43c.03.04.06.08.09.15.02.08.03.12.03.17v.05l.02.07L47 25.92l.08.13c2.92 4.34 3.16 9.88.63 14.47l-.18.33 2.98 2.98.52-.52c.09-.09.22-.15.35-.15s.26.05.35.15l8.67 8.67c.89.89 1.39 2.08 1.39 3.35s-.49 2.45-1.39 3.35-2.08 1.39-3.35 1.39-2.45-.49-3.35-1.39L47 51.95v7.26a4.29 4.29 0 0 1-4.29 4.29zm0-62C4.67 1.5 3.2 2.98 3.2 4.79v54.42c0 1.81 1.48 3.29 3.29 3.29h36.22c1.81 0 3.29-1.48 3.29-3.29v-8.26l-.96-.95c-.09-.09-.15-.22-.15-.35s.05-.26.15-.35l.52-.52-2.98-2.98-.33.18a14.051 14.051 0 0 1-6.73 1.71c-3.72 0-7.21-1.44-9.82-4.04-2.63-2.63-4.08-6.12-4.08-9.84s1.45-7.21 4.08-9.84c2.62-2.62 6.12-4.07 9.84-4.07 3.6 0 7.02 1.37 9.61 3.84l.85.8V11.93h-9.07c-.28 0-.5-.22-.5-.5V1.5zM47 48.75v1.79l7.43 7.42c.68.68 1.64 1.06 2.64 1.06s1.96-.39 2.64-1.06c.71-.71 1.09-1.64 1.09-2.64s-.39-1.93-1.09-2.64l-8.32-8.32zm-1.47-5.27-.28.29-1.64 1.64 2.66 2.66 3.54-3.54-2.66-2.66zm-9.99-22.59c-3.45 0-6.7 1.34-9.13 3.78-5.03 5.04-5.03 13.23 0 18.26 2.43 2.43 5.67 3.76 9.13 3.76 3.37 0 6.55-1.28 8.96-3.59l.33-.33c.46-.48.88-.99 1.26-1.52l.09-.13a12.91 12.91 0 0 0 0-14.63l-.09-.13c-.43-.61-.91-1.18-1.42-1.68-2.43-2.45-5.67-3.79-9.13-3.79zm1.89-9.96h7.93l-7.93-8.64z" fill="#f5821f" opacity="1" data-original="#000000" class=""></path><path d="m36.93 1 .11.12-.11-.12v10.43h9.56-9.56V2zM2.7 4.79v54.42C2.7 61.3 4.4 63 6.49 63h36.22H6.49C4.4 63 2.7 61.3 2.7 59.21zm27.44 16.72c-1.25.55-2.42 1.29-3.46 2.22a13.34 13.34 0 0 1 3.46-2.22m14.62 2.54c.02.01.03.03.05.04l1.69 1.62v.35c-.45-.63-.94-1.22-1.47-1.75-.09-.09-.18-.18-.27-.26m-19.12.69c-4.67 5.11-4.68 12.98-.01 18.09-2.26-2.48-3.5-5.66-3.5-9.04s1.24-6.57 3.51-9.05m23.26 7.82c.08.81.08 1.62 0 2.43.08-.81.07-1.62 0-2.43m-1.87 8.16-.11.21.23.23-.71.71-1.27 1.27-.06.06-.19.19-.04.03.31-.31c.47-.49.91-1.02 1.3-1.58.2-.26.37-.53.54-.81m-2.18 2.73-1.24 1.24-.71.71-.23-.23-.13.07c.83-.51 1.6-1.1 2.31-1.79m1.65 5.09v2.19l-.29-.29-.81-.81.17-.17.71-.71zM59.99 58.39c-.79.76-1.82 1.17-2.92 1.17-1.09 0-2.12-.41-2.91-1.16.76.72 1.82 1.13 2.91 1.13 1.09-.01 2.15-.42 2.92-1.14M36.93 0H6.49C3.85 0 1.7 2.15 1.7 4.79v54.42C1.7 61.85 3.85 64 6.49 64h36.22c2.64 0 4.79-2.15 4.79-4.79v-6.05l5.87 5.86c.99.99 2.3 1.53 3.7 1.53s2.71-.54 3.7-1.53 1.53-2.3 1.53-3.7-.54-2.71-1.53-3.7l-8.67-8.67c-.19-.19-.44-.29-.71-.29s-.52.11-.71.29l-.17.17-2.36-2.36a14.4 14.4 0 0 0-.66-14.99V11.43c0-.02-.01-.03-.01-.05 0-.09-.02-.18-.05-.27-.01-.02-.01-.04-.02-.06a.923.923 0 0 0-.18-.3L37.67.32c-.09-.09-.19-.16-.3-.22-.03-.01-.06-.02-.09-.04C37.19.03 37.09.01 37 0c-.03.01-.05 0-.07 0zM6.49 62c-1.54 0-2.79-1.25-2.79-2.79V4.79C3.7 3.25 4.95 2 6.49 2h29.44v9.43c0 .55.45 1 1 1h8.57v10.95c-2.78-2.66-6.37-3.98-9.96-3.98-3.69 0-7.38 1.4-10.19 4.21-2.72 2.72-4.22 6.34-4.22 10.19s1.5 7.47 4.22 10.19c2.79 2.79 6.48 4.19 10.17 4.19 2.4 0 4.81-.59 6.97-1.78l2.37 2.37-.17.17c-.19.19-.29.44-.29.71s.11.52.29.71l.81.81v8.05c0 1.54-1.25 2.79-2.79 2.79H6.49zm31.44-51.57V3.57l6.29 6.86zm-2.39 35.76c-3.19 0-6.37-1.21-8.78-3.62-4.84-4.84-4.84-12.72 0-17.56 2.42-2.42 5.6-3.63 8.78-3.63a12.378 12.378 0 0 1 10.14 5.25 12.4 12.4 0 0 1-1.21 15.77l-.32.32c-2.39 2.32-5.5 3.47-8.61 3.47zm10.73 1.16-1.96-1.96 1.24-1.24c.02-.02.03-.03.05-.04l.24-.24c.01-.02.03-.03.04-.05l1.26-1.26 1.96 1.96zm10.8 11.17c-.84 0-1.68-.31-2.29-.92l-7.28-7.28v-1.37l3.72-3.72.17-.17 7.96 7.97c.61.61.95 1.42.95 2.29s-.34 1.68-.95 2.29-1.45.91-2.28.91z" fill="#f5821f" opacity="1" data-original="#000000" class=""></path><path d="M8.42 23.54c-.28 0-.5-.22-.5-.5s.22-.5.5-.5h14.24c.28 0 .5.22.5.5s-.22.5-.5.5z" fill="#f5821f" opacity="1" data-original="#000000" class=""></path><path d="M22.66 22.04H8.42c-.55 0-1 .45-1 1s.45 1 1 1h14.24c.55 0 1-.45 1-1s-.45-1-1-1zM8.42 29.35c-.28 0-.5-.22-.5-.5s.22-.5.5-.5h11.05c.28 0 .5.22.5.5s-.22.5-.5.5z" fill="#f5821f" opacity="1" data-original="#000000" class=""></path><path d="M19.47 27.85H8.42c-.55 0-1 .45-1 1s.45 1 1 1h11.05c.55 0 1-.45 1-1s-.45-1-1-1zM8.42 35.17c-.28 0-.5-.22-.5-.5s.22-.5.5-.5h3.06c.28 0 .5.22.5.5s-.22.5-.5.5z" fill="#f5821f" opacity="1" data-original="#000000" class=""></path><path d="M11.48 33.67H8.42c-.55 0-1 .45-1 1s.45 1 1 1h3.06c.55 0 1-.45 1-1s-.45-1-1-1zM8.42 40.97c-.28 0-.5-.22-.5-.5s.22-.5.5-.5h11.05c.28 0 .5.22.5.5s-.22.5-.5.5z" fill="#f5821f" opacity="1" data-original="#000000" class=""></path><path d="M19.47 39.47H8.42c-.55 0-1 .45-1 1s.45 1 1 1h11.05c.55 0 1-.45 1-1s-.45-1-1-1zM8.42 46.78c-.28 0-.5-.22-.5-.5s.22-.5.5-.5h14.24c.28 0 .5.22.5.5s-.22.5-.5.5z" fill="#f5821f" opacity="1" data-original="#000000" class=""></path><path d="M22.66 45.28H8.42c-.55 0-1 .45-1 1s.45 1 1 1h14.24c.55 0 1-.45 1-1s-.45-1-1-1zM8.42 52.59c-.28 0-.5-.22-.5-.5s.22-.5.5-.5h21.53c.28 0 .5.22.5.5s-.22.5-.5.5z" fill="#f5821f" opacity="1" data-original="#000000" class=""></path><path d="M29.95 51.09H8.42c-.55 0-1 .45-1 1s.45 1 1 1h21.53c.55 0 1-.45 1-1s-.45-1-1-1zM15.54 35.17c-.28 0-.5-.22-.5-.5s.22-.5.5-.5h3.65c.28 0 .5.22.5.5s-.22.5-.5.5z" fill="#f5821f" opacity="1" data-original="#000000" class=""></path><path d="M19.19 33.67h-3.65c-.55 0-1 .45-1 1s.45 1 1 1h3.65c.55 0 1-.45 1-1s-.45-1-1-1zM33.25 52.59c-.28 0-.5-.22-.5-.5s.22-.5.5-.5h7.53c.28 0 .5.22.5.5s-.22.5-.5.5z" fill="#f5821f" opacity="1" data-original="#000000" class=""></path><path d="M40.78 51.09h-7.53c-.55 0-1 .45-1 1s.45 1 1 1h7.53c.55 0 1-.45 1-1s-.45-1-1-1zM8.42 58.4c-.28 0-.5-.22-.5-.5s.22-.5.5-.5h32.35c.28 0 .5.22.5.5s-.22.5-.5.5z" fill="#f5821f" opacity="1" data-original="#000000" class=""></path><path d="M40.78 56.9H8.42c-.55 0-1 .45-1 1s.45 1 1 1h32.35c.55 0 1-.45 1-1s-.44-1-.99-1zM12.76 16.93c-.08-.24-.21-.68-.41-1.5-.25-1.17-.77-1.66-1.79-1.68H9.51v3.18H8.7V9.89c.57-.07 1.26-.1 1.93-.1 1.13 0 1.84.16 2.3.53.37.3.55.72.55 1.3 0 .78-.55 1.32-1.1 1.52l-.33.12v.69l.31.16c.36.14.6.51.78 1.18l.2.76c.09.35.17.64.24.89h-.82zm-1.93-6.79c-.36 0-.66.02-.92.07l-.41.07v3.15h1.22c1.17 0 1.95-.67 1.95-1.66.01-1.01-.68-1.61-1.84-1.63z" fill="#f5821f" opacity="1" data-original="#000000" class=""></path><path d="M10.63 9.28c-.97 0-1.85.07-2.43.17v7.98h1.81v-3.18h.55c.74.01 1.09.29 1.31 1.3.24 1 .43 1.66.56 1.88h1.87c-.16-.31-.41-1.37-.66-2.28-.2-.74-.52-1.28-1.08-1.51v-.04c.7-.25 1.43-.96 1.43-1.99 0-.74-.26-1.31-.74-1.69-.58-.46-1.42-.64-2.62-.64zm-.62 3.65V10.7c.13-.02.38-.06.83-.06.84.01 1.34.38 1.34 1.13 0 .71-.54 1.16-1.45 1.16zM15.81 9.84h.83v7.08h-.83z" fill="#f5821f" opacity="1" data-original="#000000" class=""></path><path d="M17.15 9.34h-1.84v8.09h1.84zM20.71 17.05c-.64 0-1.27-.13-1.71-.28l.13-.53c.43.16 1.02.31 1.68.31 1.32 0 1.78-.74 1.78-1.38 0-.93-.83-1.3-1.69-1.61-1.89-.66-1.89-1.6-1.89-1.92 0-1.16 1.03-1.93 2.56-1.93.53 0 1.02.07 1.46.21l-.14.5c-.43-.14-.89-.21-1.36-.21-1.16 0-1.68.64-1.68 1.28 0 .92.88 1.25 1.82 1.61 1.57.58 1.78 1.31 1.78 1.94.02 1.24-1.03 2.01-2.74 2.01z" fill="#f5821f" opacity="1" data-original="#000000" class=""></path><path d="M21.59 9.21c-1.91 0-3.06 1.06-3.06 2.43 0 1.18.88 1.92 2.22 2.39.97.35 1.36.64 1.36 1.14 0 .53-.44.88-1.28.88-.78 0-1.54-.25-2.03-.5l-.37 1.51c.46.25 1.37.49 2.29.49 2.22 0 3.26-1.15 3.26-2.51 0-1.14-.67-1.88-2.1-2.41-1.04-.4-1.5-.62-1.5-1.14 0-.42.38-.78 1.18-.78.79 0 1.37.23 1.69.38l.41-1.48c-.49-.21-1.16-.4-2.07-.4zM29.99 16.93l-2.2-3.87-1.27 1.56v2.32h-.81v-7.1h.81v3.57h.79l.18-.25c.12-.21.24-.4.37-.6l.17-.28 1.67-2.45h.96l-2.26 2.91 2.54 4.18h-.95z" fill="#f5821f" opacity="1" data-original="#000000" class=""></path><path d="m26.44 13.92-.19.24-.04.04v-.28zm5.25-4.58h-2.24l-1.83 2.69c-.18.29-.37.58-.55.89h-.04V9.34h-1.81v8.08h1.81v-2.64l.7-.85 1.98 3.49h2.13l-2.82-4.64zM35.54 43.61a9.78 9.78 0 0 1-6.95-2.87c-1.86-1.86-2.88-4.32-2.88-6.94s1.02-5.09 2.88-6.95c1.85-1.85 4.32-2.87 6.95-2.87s5.09 1.02 6.95 2.87c3.83 3.83 3.83 10.06 0 13.89a9.78 9.78 0 0 1-6.95 2.87zm0-18.63c-2.36 0-4.57.92-6.24 2.58-1.67 1.67-2.58 3.88-2.58 6.24s.92 4.57 2.58 6.24c1.66 1.66 3.88 2.58 6.24 2.58s4.58-.92 6.24-2.58c3.44-3.44 3.44-9.04 0-12.48a8.733 8.733 0 0 0-6.24-2.58z" fill="#f5821f" opacity="1" data-original="#000000" class=""></path><path d="M42.67 27.78c2.44 2.89 2.84 6.93 1.2 10.2a9.355 9.355 0 0 0-1.2-10.2m-7.13-4.3c-2.64 0-5.29 1.01-7.3 3.02-1.95 1.95-3.02 4.54-3.02 7.3s1.07 5.35 3.02 7.3c2.01 2.01 4.66 3.02 7.3 3.02s5.29-1.01 7.3-3.02c4.02-4.02 4.02-10.57 0-14.6a10.264 10.264 0 0 0-7.3-3.02zm0 18.63a8.29 8.29 0 0 1-5.88-2.43c-1.57-1.57-2.44-3.66-2.44-5.88s.87-4.31 2.44-5.88c1.62-1.62 3.75-2.43 5.88-2.43s4.26.81 5.88 2.43c3.24 3.25 3.24 8.52 0 11.77a8.321 8.321 0 0 1-5.88 2.42z" fill="#f5821f" opacity="1" data-original="#000000" class=""></path></g></svg>