<svg xmlns="http://www.w3.org/2000/svg" version="1.1" xmlns:xlink="http://www.w3.org/1999/xlink" width="512" height="512" x="0" y="0" viewBox="0 0 32 32" style="enable-background:new 0 0 512 512" xml:space="preserve" class=""><g><path d="m29.447 17.105-6-3a1.001 1.001 0 0 0-.894 0l-6 3a1 1 0 0 0-.545 1.019l.276 2.214a12.903 12.903 0 0 0 6.201 9.52.998.998 0 0 0 1.03 0 12.901 12.901 0 0 0 6.2-9.52l.277-2.214a1 1 0 0 0-.545-1.019zm-1.716 2.985A10.907 10.907 0 0 1 23 27.814a10.907 10.907 0 0 1-4.731-7.724l-.189-1.512 4.92-2.46 4.92 2.46z" fill="#f5821f" opacity="1" data-original="#000000" class=""></path><path d="M21.707 21.293a1 1 0 1 0-1.414 1.414l2 2A.999.999 0 0 0 23.8 24.6l3-4a.999.999 0 1 0-1.6-1.2l-2.308 3.078zM14 17H8c-2.206 0-4-1.794-4-4 0-1.868 1.293-3.429 3.027-3.866A.988.988 0 0 0 8 10a1 1 0 0 0 1-1c0-2.757 2.243-5 5-5s5 2.243 5 5a1 1 0 0 0 1 1c.505 0 .905-.38.973-.866C22.708 9.57 24 11.132 24 13a1 1 0 1 0 2 0c0-3.065-2.312-5.597-5.283-5.953C19.87 4.136 17.181 2 14 2c-3.182 0-5.87 2.136-6.717 5.047C4.312 7.403 2 9.935 2 13c0 3.309 2.691 6 6 6h6a1 1 0 0 0 0-2z" fill="#f5821f" opacity="1" data-original="#000000" class=""></path></g></svg>