<svg id="Layer_1" viewBox="0 0 512 512" xmlns="http://www.w3.org/2000/svg" data-name="Layer 1"><path d="m457.443 48.059a71.928 71.928 0 1 0 0 101.722 71.931 71.931 0 0 0 0-101.722zm-50.861-32.059a82.92 82.92 0 1 1 -82.92 82.92 82.922 82.922 0 0 1 82.92-82.92zm-35.249 86.153a5.484 5.484 0 0 1 7.472-8.03l19.011 17.716 36.35-37.326a5.481 5.481 0 1 1 7.858 7.643l-40.01 41.085a5.484 5.484 0 0 1 -7.75.279zm-240.463-14.624v-.021a42.059 42.059 0 0 0 -41.586 42.458l.021.043h-.02a42.059 42.059 0 0 0 42.457 41.591l.043-.022v.021a42.061 42.061 0 0 0 41.587-42.459l-.022-.043h.021a42.061 42.061 0 0 0 -42.458-41.586l-.043.022zm0-10.993v.021a53.02 53.02 0 0 1 53.473 52.536h-.022a53.02 53.02 0 0 1 -52.536 53.474v-.021a53.02 53.02 0 0 1 -53.474-52.536h.021a53.019 53.019 0 0 1 52.537-53.473zm28.513-14.609a73.086 73.086 0 0 1 11.92 6.295 5.482 5.482 0 0 0 6.049-.052v.009l14.348-9.706 10.636 10.433-9.609 14.8a5.478 5.478 0 0 0 .063 6.066 72.909 72.909 0 0 1 10.173 24.654 5.486 5.486 0 0 0 4.337 4.27l16.984 3.273.144 14.891-17.256 3.672a5.489 5.489 0 0 0 -4.276 4.47c-1.559 8.2-5.706 17.566-10.234 24.518a5.482 5.482 0 0 0 .052 6.049h-.009l9.705 14.339-10.432 10.637-14.8-9.61a5.48 5.48 0 0 0 -6.066.063 72.886 72.886 0 0 1 -24.655 10.173 5.483 5.483 0 0 0 -4.269 4.337l-3.288 16.992-14.892.144-3.671-17.256a5.489 5.489 0 0 0 -4.471-4.276c-8.194-1.558-17.567-5.706-24.518-10.234a5.482 5.482 0 0 0 -6.29.224l-14.09 9.537-10.646-10.439 9.61-14.8a5.482 5.482 0 0 0 -.063-6.066 72.891 72.891 0 0 1 -10.169-24.66 5.485 5.485 0 0 0 -4.337-4.27l-16.985-3.273-.144-14.892 17.257-3.671a5.489 5.489 0 0 0 4.276-4.47c1.555-8.198 5.704-17.569 10.233-24.52a5.478 5.478 0 0 0 -.051-6.048l.009-.006-9.71-14.341 10.433-10.636 14.8 9.608a5.482 5.482 0 0 0 6.066-.063 72.891 72.891 0 0 1 24.658-10.174 5.483 5.483 0 0 0 4.269-4.337l3.277-16.981 14.891-.144 3.672 17.256a5.489 5.489 0 0 0 4.471 4.277 72.508 72.508 0 0 1 12.6 3.939zm-7.058-13.9a83.17 83.17 0 0 1 21.825 9.063l15.107-10.226a5.492 5.492 0 0 1 7.143.87l16.81 16.489a5.483 5.483 0 0 1 .663 7.029l-10.073 15.509a83.891 83.891 0 0 1 9.05 21.838l17.887 3.447a5.487 5.487 0 0 1 4.448 5.7l.227 23.517a5.478 5.478 0 0 1 -4.339 5.4v.01l-18.232 3.879a83.184 83.184 0 0 1 -9.058 21.826l10.225 15.107a5.491 5.491 0 0 1 -.869 7.143l-16.489 16.81a5.483 5.483 0 0 1 -7.029.663l-15.503-10.071a83.861 83.861 0 0 1 -21.839 9.049l-3.446 17.887a5.488 5.488 0 0 1 -5.7 4.448l-23.516.227a5.477 5.477 0 0 1 -5.4-4.339h-.01l-3.879-18.232a83.183 83.183 0 0 1 -21.842-9.07l-15.086 10.218a5.475 5.475 0 0 1 -6.908-.628h-.005l-17.04-16.714a5.481 5.481 0 0 1 -.663-7.028l10.068-15.51a83.854 83.854 0 0 1 -9.052-21.833l-17.888-3.447a5.487 5.487 0 0 1 -4.447-5.7l-.227-23.517a5.476 5.476 0 0 1 4.339-5.4v-.01l18.233-3.879a83.248 83.248 0 0 1 9.056-21.822l-10.227-15.108a5.491 5.491 0 0 1 .87-7.143l16.491-16.81a5.481 5.481 0 0 1 7.028-.663l15.505 10.066a83.869 83.869 0 0 1 21.842-9.05l3.446-17.885a5.487 5.487 0 0 1 5.7-4.447l23.517-.227a5.475 5.475 0 0 1 5.4 4.339h.011l3.879 18.232zm-40.059 217.26v54.959l15.5-11.258a5.492 5.492 0 0 1 6.536-.069l16.089 11.69v-55.322zm-54.858 168.113a5.5 5.5 0 1 1 0-10.992h41.252a5.5 5.5 0 0 1 0 10.992zm0-25.238a5.5 5.5 0 1 1 0-10.993h41.252a5.5 5.5 0 0 1 0 10.993zm274.063-185.033c-7.156-7.982-17.572-12.008-29.605-12.008-12.323 0-23.722 4.208-31.685 12.548-17.647 18.481-13.917 53.932 1.007 73.281 16.3 21.13 42.074 21.13 58.372 0 7.863-10.194 12.727-24.371 12.727-40.113 0-14.912-4.042-26.153-10.816-33.708zm-29.605-23c15.129 0 28.406 5.265 37.763 15.7 8.549 9.535 13.65 23.245 13.65 41.008 0 18.2-5.749 34.76-15.045 46.811-20.729 26.874-54.991 26.874-75.72 0-9.3-12.051-15.045-28.607-15.045-46.811 0-17.6 5.683-31.211 14.768-40.725 10.144-10.624 24.389-15.984 39.629-15.984zm-123.116 260.831h-141.529a3.755 3.755 0 0 1 -3.73-3.731v-188.211a3.755 3.755 0 0 1 3.73-3.731h64.052v65.736h.009a5.51 5.51 0 0 0 8.708 4.444l21.087-15.32 21.343 15.506a5.5 5.5 0 0 0 8.96-4.267v-66.1h64.053a3.755 3.755 0 0 1 3.73 3.731v85.845a72.4 72.4 0 0 0 -50.413 68.773zm237.75 35.04h-232.254a5.5 5.5 0 0 1 -5.5-5.5v-18.548h-141.525a14.752 14.752 0 0 1 -14.721-14.723v-188.211a14.752 14.752 0 0 1 14.721-14.718h188.212a14.751 14.751 0 0 1 14.722 14.723v83.277a72 72 0 0 1 10.733-.8h98.971a72.335 72.335 0 0 1 72.141 72.136v66.864a5.5 5.5 0 0 1 -5.5 5.5zm-226.758-10.993h40.158v-29.117a5.5 5.5 0 0 1 10.993 0v29.117h118.958v-29.117a5.5 5.5 0 0 1 10.993 0v29.117h40.156v-61.371a61.337 61.337 0 0 0 -61.145-61.142h-98.967a61.338 61.338 0 0 0 -61.146 61.142z" fill-rule="evenodd"/></svg>